<?xml version="1.0" encoding="UTF-8" standalone="no"?>
<!-- Created with Inkscape (http://www.inkscape.org/) -->

<svg
   width="97.156998mm"
   height="96.524002mm"
   viewBox="0 0 97.156998 96.524002"
   version="1.1"
   id="svg1"
   inkscape:version="1.3.2 (091e20e, 2023-11-25)"
   sodipodi:docname="lf03_ipv6_scope.svg"
   xmlns:inkscape="http://www.inkscape.org/namespaces/inkscape"
   xmlns:sodipodi="http://sodipodi.sourceforge.net/DTD/sodipodi-0.dtd"
   xmlns:xlink="http://www.w3.org/1999/xlink"
   xmlns="http://www.w3.org/2000/svg"
   xmlns:svg="http://www.w3.org/2000/svg">
  <sodipodi:namedview
     id="namedview1"
     pagecolor="#ffffff"
     bordercolor="#666666"
     borderopacity="1.0"
     inkscape:showpageshadow="2"
     inkscape:pageopacity="0.0"
     inkscape:pagecheckerboard="0"
     inkscape:deskcolor="#d1d1d1"
     inkscape:document-units="mm"
     inkscape:zoom="1.1405687"
     inkscape:cx="-30.248069"
     inkscape:cy="150.80196"
     inkscape:window-width="1600"
     inkscape:window-height="843"
     inkscape:window-x="0"
     inkscape:window-y="0"
     inkscape:window-maximized="1"
     inkscape:current-layer="layer1" />
  <defs
     id="defs1">
    <marker
       inkscape:isstock="true"
       style="overflow:visible"
       id="marker1604"
       refX="0"
       refY="0"
       orient="auto"
       inkscape:stockid="Arrow2Mend"
       inkscape:collect="always">
      <path
         transform="scale(-0.6)"
         d="M 8.7185878,4.0337352 -2.2072895,0.01601326 8.7185884,-4.0017078 c -1.7454984,2.3720609 -1.7354408,5.6174519 -6e-7,8.035443 z"
         style="fill:#000000;fill-opacity:1;fill-rule:evenodd;stroke:#000000;stroke-width:0.625;stroke-linejoin:round;stroke-opacity:1"
         id="path1602"
         inkscape:connector-curvature="0" />
    </marker>
    <marker
       inkscape:stockid="Arrow2Mend"
       orient="auto"
       refY="0"
       refX="0"
       id="marker1802"
       style="overflow:visible"
       inkscape:isstock="true"
       inkscape:collect="always">
      <path
         id="path1800"
         style="fill:#000000;fill-opacity:1;fill-rule:evenodd;stroke:#000000;stroke-width:0.625;stroke-linejoin:round;stroke-opacity:1"
         d="M 8.7185878,4.0337352 -2.2072895,0.01601326 8.7185884,-4.0017078 c -1.7454984,2.3720609 -1.7354408,5.6174519 -6e-7,8.035443 z"
         transform="scale(-0.6)"
         inkscape:connector-curvature="0" />
    </marker>
    <marker
       inkscape:isstock="true"
       style="overflow:visible"
       id="marker1959"
       refX="0"
       refY="0"
       orient="auto"
       inkscape:stockid="Arrow2Mend"
       inkscape:collect="always">
      <path
         transform="scale(-0.6)"
         d="M 8.7185878,4.0337352 -2.2072895,0.01601326 8.7185884,-4.0017078 c -1.7454984,2.3720609 -1.7354408,5.6174519 -6e-7,8.035443 z"
         style="fill:#000000;fill-opacity:1;fill-rule:evenodd;stroke:#000000;stroke-width:0.625;stroke-linejoin:round;stroke-opacity:1"
         id="path1957"
         inkscape:connector-curvature="0" />
    </marker>
    <marker
       inkscape:stockid="Arrow2Mend"
       orient="auto"
       refY="0"
       refX="0"
       id="marker2343"
       style="overflow:visible"
       inkscape:isstock="true">
      <path
         id="path2341"
         style="fill:#000000;fill-opacity:1;fill-rule:evenodd;stroke:#000000;stroke-width:0.625;stroke-linejoin:round;stroke-opacity:1"
         d="M 8.7185878,4.0337352 -2.2072895,0.01601326 8.7185884,-4.0017078 c -1.7454984,2.3720609 -1.7354408,5.6174519 -6e-7,8.035443 z"
         transform="scale(-0.6)"
         inkscape:connector-curvature="0" />
    </marker>
  </defs>
  <g
     inkscape:label="Ebene 1"
     inkscape:groupmode="layer"
     id="layer1"
     transform="translate(-64.343464,-41.392135)">
    <ellipse
       style="fill:#f6ffd5;stroke:none;stroke-width:0.913224;stroke-linecap:square;stroke-opacity:1;paint-order:stroke fill markers"
       id="circle7"
       cx="14.361792"
       cy="143.62613"
       transform="matrix(-0.54629663,0.83759178,0.84125598,0.540637,0,0)"
       inkscape:transform-center-x="0.95886309"
       inkscape:transform-center-y="-0.80289665"
       rx="47.332172"
       ry="47.475544" />
    <ellipse
       style="fill:#ffd5d5;stroke:none;stroke-width:0.729643;stroke-linecap:square;stroke-opacity:1;paint-order:stroke fill markers"
       id="circle5"
       cx="9.9861879"
       cy="138.77016"
       transform="matrix(-0.56380276,0.82590946,0.85217887,0.52325059,0,0)"
       inkscape:transform-center-x="0.78332302"
       inkscape:transform-center-y="-0.62667822"
       rx="37.466396"
       ry="38.287014" />
    <circle
       style="fill:#e3d7f4;stroke:none;stroke-width:0.446351;stroke-linecap:square;stroke-opacity:1;paint-order:stroke fill markers"
       id="circle1"
       cx="-44.437206"
       cy="129.9731"
       r="23.169294"
       transform="matrix(-0.80090094,0.59879686,0.59879686,0.80090094,0,0)"
       inkscape:transform-center-x="0.30132004"
       inkscape:transform-center-y="-0.53140148" />
    <circle
       style="fill:#e3f4d7;stroke:none;stroke-width:0.264999;stroke-linecap:square;stroke-opacity:1;paint-order:stroke fill markers"
       id="path1"
       cx="-33.132732"
       cy="130.32819"
       r="13.755629"
       transform="matrix(-0.73321195,0.68000018,0.68000018,0.73321195,0,0)"
       inkscape:transform-center-x="0.21119239"
       inkscape:transform-center-y="-0.29484405" />
    <g
       id="g838"
       transform="matrix(0.49019268,0,0,0.49019268,106.17638,-17.192388)">
      <rect
         y="161"
         x="7.4125004"
         height="10"
         width="14"
         id="rect829"
         style="fill:none;fill-opacity:1;stroke:#000000;stroke-width:0.665;stroke-miterlimit:4;stroke-dasharray:none;stroke-opacity:1" />
      <rect
         ry="1.999994"
         style="fill:#e3dbdb;fill-opacity:1;stroke:#000000;stroke-width:0.465;stroke-miterlimit:4;stroke-dasharray:none;stroke-opacity:1"
         id="rect831"
         width="11"
         height="7.9999938"
         x="9"
         y="162" />
      <path
         inkscape:connector-curvature="0"
         id="path833"
         d="M 6.9999999,172.94165 H 22 l 4,5 H 3 l 3.9999999,-5"
         style="fill:#ffe6d5;stroke:#000000;stroke-width:0.264583px;stroke-linecap:butt;stroke-linejoin:miter;stroke-opacity:1" />
    </g>
    <g
       id="g3"
       transform="matrix(0.27745428,0,0,0.27745428,91.502527,23.658407)">
      <rect
         y="161"
         x="7.4125004"
         height="10"
         width="14"
         id="rect2"
         style="fill:none;fill-opacity:1;stroke:#000000;stroke-width:0.665;stroke-miterlimit:4;stroke-dasharray:none;stroke-opacity:1" />
      <rect
         ry="1.999994"
         style="fill:#e3dbdb;fill-opacity:1;stroke:#000000;stroke-width:0.465;stroke-miterlimit:4;stroke-dasharray:none;stroke-opacity:1"
         id="rect3"
         width="11"
         height="7.9999938"
         x="9"
         y="162" />
      <path
         inkscape:connector-curvature="0"
         id="path3"
         d="M 6.9999999,172.94165 H 22 l 4,5 H 3 l 3.9999999,-5"
         style="fill:#ffe6d5;stroke:#000000;stroke-width:0.264583px;stroke-linecap:butt;stroke-linejoin:miter;stroke-opacity:1" />
    </g>
    <g
       id="g5"
       transform="matrix(0.27745428,0,0,0.27745428,125.88186,23.557251)">
      <rect
         y="161"
         x="7.4125004"
         height="10"
         width="14"
         id="rect4"
         style="fill:none;fill-opacity:1;stroke:#000000;stroke-width:0.665;stroke-miterlimit:4;stroke-dasharray:none;stroke-opacity:1" />
      <rect
         ry="1.999994"
         style="fill:#e3dbdb;fill-opacity:1;stroke:#000000;stroke-width:0.465;stroke-miterlimit:4;stroke-dasharray:none;stroke-opacity:1"
         id="rect5"
         width="11"
         height="7.9999938"
         x="9"
         y="162" />
      <path
         inkscape:connector-curvature="0"
         id="path5"
         d="M 6.9999999,172.94165 H 22 l 4,5 H 3 l 3.9999999,-5"
         style="fill:#ffe6d5;stroke:#000000;stroke-width:0.264583px;stroke-linecap:butt;stroke-linejoin:miter;stroke-opacity:1" />
    </g>
    <g
       id="g2512"
       transform="matrix(0.40124804,0,0,0.40124804,116.95192,-9.0412136)">
      <circle
         r="7.9375"
         cy="216.30208"
         cx="46.302082"
         id="path1471"
         style="fill:#d5e5ff;fill-opacity:1;stroke:#000000;stroke-width:0.265;stroke-miterlimit:4;stroke-dasharray:none;stroke-dashoffset:0;stroke-opacity:1" />
      <path
         inkscape:connector-curvature="0"
         id="path1600"
         d="m 46.27753,213.92082 v -3.96875"
         style="fill:none;stroke:#000000;stroke-width:0.264583px;stroke-linecap:butt;stroke-linejoin:miter;stroke-opacity:1;marker-end:url(#marker1604)" />
      <path
         style="fill:none;stroke:#000000;stroke-width:0.264583px;stroke-linecap:butt;stroke-linejoin:miter;stroke-opacity:1;marker-end:url(#marker1802)"
         d="m 46.27753,218.54788 v 3.96875"
         id="path1798"
         inkscape:connector-curvature="0" />
      <path
         inkscape:connector-curvature="0"
         id="path1955"
         d="M 52.90692,216.30143 H 48.93817"
         style="fill:none;stroke:#000000;stroke-width:0.264583px;stroke-linecap:butt;stroke-linejoin:miter;stroke-opacity:1;marker-end:url(#marker1959)" />
      <path
         style="fill:none;stroke:#000000;stroke-width:0.264583px;stroke-linecap:butt;stroke-linejoin:miter;stroke-opacity:1;marker-end:url(#marker2343)"
         d="M 39.70235,216.30143 H 43.6711"
         id="path2339"
         inkscape:connector-curvature="0" />
    </g>
    <text
       xml:space="preserve"
       style="font-size:4.23333px;line-height:0;font-family:sans-serif;-inkscape-font-specification:sans-serif;letter-spacing:0px;word-spacing:0px;fill:#aa0000;stroke-width:0.264583"
       id="text5"><textPath
         xlink:href="#path1"
         id="textPath5"><tspan
           id="tspan5"
           style="fill:#aa0000;stroke-width:0.264583">Host-Scope</tspan></textPath></text>
    <text
       xml:space="preserve"
       style="font-size:4.23333px;line-height:0;font-family:sans-serif;-inkscape-font-specification:sans-serif;letter-spacing:0px;word-spacing:0px;fill:#aa0000;stroke-width:0.264583"
       id="text6"><textPath
         xlink:href="#circle1"
         id="textPath6"><tspan
           id="tspan6"
           style="fill:#aa0000;stroke-width:0.264583">Link-Local-Scope</tspan></textPath></text>
    <text
       xml:space="preserve"
       style="font-size:4.23333px;line-height:0;font-family:sans-serif;-inkscape-font-specification:sans-serif;letter-spacing:0px;word-spacing:0px;fill:#aa0000;stroke-width:0.264583"
       id="text7"><textPath
         xlink:href="#circle5"
         id="textPath7"><tspan
           id="tspan7"
           style="fill:#aa0000;stroke-width:0.264583">Unique-Local-Scope</tspan></textPath></text>
    <text
       xml:space="preserve"
       style="font-size:4.23333px;line-height:0;font-family:sans-serif;-inkscape-font-specification:sans-serif;letter-spacing:0px;word-spacing:0px;fill:#aa0000;stroke-width:0.264583"
       id="text8"><textPath
         xlink:href="#circle7"
         id="textPath8"><tspan
           id="tspan8"
           style="fill:#aa0000;stroke-width:0.264583">Global-Unicast-Scope</tspan></textPath></text>
    <path
       d="m 100.89457,127.54818 2.13083,0.48764 -0.11759,0.51381 -2.86529,-0.65572 0.11759,-0.51381 q 0.4299,-0.28014 1.16668,-0.74766 0.74051,-0.46987 0.93476,-0.6099 0.36858,-0.26234 0.53531,-0.46274 0.17044,-0.20274 0.22094,-0.42338 0.0823,-0.35967 -0.11969,-0.64446 -0.19898,-0.28409 -0.604,-0.37678 -0.28713,-0.0657 -0.63033,-0.0393 -0.34019,0.027 -0.74921,0.14662 l 0.14111,-0.61658 q 0.40265,-0.0637 0.74033,-0.0656 0.33768,-0.002 0.60365,0.0586 0.70121,0.16047 1.03807,0.60653 0.33686,0.44605 0.20267,1.03241 -0.0637,0.27807 -0.22683,0.50471 -0.15948,0.22433 -0.512,0.4999 -0.0956,0.0703 -0.59677,0.39779 -0.50046,0.32441 -1.41017,0.90823 z m 5.2237,-2.74949 q -0.47894,-0.0676 -0.78824,0.37093 -0.3058,0.43592 -0.43932,1.38152 -0.13308,0.94253 0.0396,1.44914 0.17621,0.50398 0.65515,0.5716 0.48202,0.0681 0.78781,-0.36786 0.30931,-0.43855 0.44239,-1.38108 0.13352,-0.94559 -0.0427,-1.44958 -0.17271,-0.50662 -0.65472,-0.57468 z m 0.0694,-0.49122 q 0.77061,0.10881 1.0896,0.77699 0.32248,0.66554 0.15868,1.82605 -0.16344,1.15743 -0.65803,1.71074 -0.49109,0.55067 -1.26169,0.44189 -0.77059,-0.10881 -1.09309,-0.77436 -0.31899,-0.66817 -0.15553,-1.82562 0.16387,-1.1605 0.65496,-1.71116 0.49459,-0.55331 1.2652,-0.44446 z m 3.59552,0.85153 q -0.48293,-0.0269 -0.75408,0.43619 -0.26787,0.4602 -0.32103,1.4137 -0.053,0.9504 0.16195,1.44061 0.21816,0.48729 0.70111,0.51421 0.48603,0.0271 0.7539,-0.4331 0.27115,-0.46312 0.32414,-1.41351 0.0532,-0.95351 -0.16498,-1.4408 -0.2149,-0.49021 -0.70094,-0.51731 z m 0.0276,-0.49533 q 0.77705,0.0433 1.15134,0.68217 0.37757,0.63591 0.31234,1.80611 -0.0651,1.16712 -0.51114,1.76022 -0.44282,0.59019 -1.21986,0.54687 -0.77704,-0.0433 -1.15461,-0.67923 -0.37429,-0.63885 -0.30924,-1.80595 0.0652,-1.1702 0.50806,-1.76039 0.44608,-0.59311 1.22311,-0.5498 z m 3.65507,0.54495 q -0.48349,0.0139 -0.71459,0.49827 -0.22809,0.48115 -0.2006,1.43573 0.0274,0.95149 0.28289,1.42182 0.2585,0.46715 0.74199,0.45322 0.48659,-0.014 0.71468,-0.49516 0.2311,-0.48434 0.2037,-1.43583 -0.0275,-0.95458 -0.28599,-1.42173 -0.25549,-0.47032 -0.74208,-0.45632 z m -0.0142,-0.49588 q 0.77793,-0.0224 1.2048,0.58257 0.42988,0.60179 0.46362,1.77332 0.0337,1.16844 -0.3608,1.79707 -0.39143,0.62544 -1.16936,0.64785 -0.77792,0.0224 -1.2078,-0.57939 -0.42687,-0.60498 -0.46051,-1.77341 -0.0338,-1.17154 0.35769,-1.79699 0.39445,-0.62862 1.17237,-0.65103 z m 2.82335,3.76855 0.65142,-0.0605 0.0736,0.78411 -0.65142,0.0605 z m -0.23291,-2.48509 0.65142,-0.0605 0.0736,0.7841 -0.65142,0.0605 z m 2.32444,2.25669 0.64801,-0.09 0.10837,0.78006 -0.64801,0.09 z m -0.34339,-2.47223 0.648,-0.09 0.10838,0.78005 -0.64801,0.09 z m 2.57877,-1.78479 0.51834,-0.0957 -0.63754,5.42436 -0.51833,0.0957 z m 3.25472,1.43557 q 0.45944,-0.0167 0.7773,0.2164 0.32085,0.23243 0.43008,0.66534 0.16763,0.66441 -0.19755,1.14349 -0.36519,0.47906 -1.20697,0.69145 -0.2826,0.0713 -0.59766,0.09 -0.31124,0.0214 -0.65802,-0.01 l -0.14791,-0.58623 q 0.2897,0.0836 0.6093,0.0829 0.31962,-6.6e-4 0.6473,-0.0834 0.57121,-0.14413 0.81195,-0.44469 0.24374,-0.30134 0.13527,-0.73126 -0.1001,-0.39684 -0.43585,-0.54875 -0.33348,-0.1557 -0.82952,-0.0305 l -0.52313,0.13191 -0.12589,-0.49906 0.54717,-0.13802 q 0.44796,-0.113 0.6407,-0.35031 0.19199,-0.24031 0.10703,-0.57703 -0.0872,-0.34574 -0.38002,-0.46692 -0.29055,-0.12495 -0.74752,-0.01 -0.24953,0.0629 -0.52146,0.18917 -0.27197,0.12614 -0.58586,0.32688 l -0.13656,-0.54114 q 0.32145,-0.18347 0.60996,-0.30739 0.2915,-0.12472 0.55906,-0.19225 0.69146,-0.17446 1.17396,0.0396 0.48174,0.21102 0.61676,0.74615 0.0941,0.37279 -0.0542,0.6852 -0.14898,0.30939 -0.51778,0.50797 z"
       id="text9"
       style="font-size:6.35px;line-height:0;-inkscape-font-specification:sans-serif;letter-spacing:0px;word-spacing:0px;stroke-width:0.264583"
       aria-label="2000::/3" />
    <path
       d="m 93.091011,97.266201 -0.330917,0.339911 -0.391009,-0.380662 q -0.219942,-0.214123 -0.393101,-0.209609 -0.170936,0.0067 -0.395873,0.237728 l -0.214123,0.219942 0.673157,0.655346 -0.309288,0.317694 -0.673157,-0.655345 -2.113111,2.170542 -0.411004,-0.400128 2.113111,-2.170543 -0.391009,-0.380663 0.309289,-0.317694 0.391009,0.380663 0.168702,-0.173288 q 0.404454,-0.415447 0.78158,-0.416118 0.379288,-0.0029 0.799178,0.405887 z m 1.047237,2.792109 -0.339752,0.41107 q -0.101478,-0.25684 -0.248801,-0.46308 -0.142959,-0.206652 -0.334154,-0.364676 -0.427799,-0.353579 -0.889588,-0.276681 -0.459813,0.07451 -0.86475,0.564445 -0.404937,0.489942 -0.393518,0.957952 0.0134,0.46562 0.441194,0.8192 0.191195,0.15802 0.419091,0.26191 0.232262,0.10347 0.503615,0.15478 l -0.335801,0.40629 q -0.255136,-0.0661 -0.489057,-0.18699 -0.23153,-0.11896 -0.453795,-0.30267 -0.604654,-0.49975 -0.646682,-1.17407 -0.04203,-0.67433 0.491305,-1.319611 0.541233,-0.654843 1.209846,-0.733768 0.671004,-0.07695 1.297168,0.44058 0.203145,0.167901 0.361174,0.37092 0.160005,0.200628 0.272505,0.434399 z m 2.178989,0.4331 q -0.403583,-0.2666 -0.871148,-0.003 -0.463269,0.26252 -0.98964,1.05935 -0.524663,0.79423 -0.586058,1.32595 -0.0571,0.53083 0.346486,0.79744 0.406171,0.26831 0.869439,0.006 0.467565,-0.2634 0.992228,-1.05764 0.526371,-0.79682 0.58347,-1.32766 0.06139,-0.53171 -0.344777,-0.80003 z m 0.27344,-0.41393 q 0.649356,0.42896 0.650759,1.16938 0.0057,0.73954 -0.640303,1.71746 -0.644293,0.97533 -1.328465,1.26286 -0.679875,0.28666 -1.329231,-0.1423 -0.649356,-0.42896 -0.655055,-1.16851 -0.0014,-0.74041 0.64289,-1.71575 0.646002,-0.97792 1.325878,-1.264569 0.684172,-0.287531 1.333527,0.141429 z m 2.799983,2.20022 q -0.431444,-0.21866 -0.86579,0.0965 -0.430179,0.31382 -0.861896,1.16565 -0.430315,0.84907 -0.430451,1.38431 0.004,0.53388 0.435476,0.75254 0.434211,0.22007 0.86439,-0.0937 0.434346,-0.31518 0.864661,-1.16424 0.431716,-0.85183 0.427685,-1.38571 1.36e-4,-0.53525 -0.434075,-0.75531 z m 0.224269,-0.44251 q 0.694181,0.35183 0.780321,1.08722 0.0903,0.73403 -0.439535,1.77946 -0.528432,1.04265 -1.1752,1.4066 -0.642601,0.36258 -1.336784,0.0108 -0.694183,-0.35182 -0.784485,-1.08585 -0.08614,-0.73539 0.442297,-1.77805 0.529834,-1.04543 1.172434,-1.40801 0.646768,-0.36395 1.340952,-0.0121 z m 0.675721,4.6267 0.60723,0.24349 -0.29312,0.73097 -0.607223,-0.24349 z m 0.92897,-2.31666 0.60722,0.24349 -0.29311,0.73097 -0.60723,-0.24349 z m 1.02818,3.05432 0.62088,0.20619 -0.2482,0.74741 -0.62088,-0.20618 z m 0.78662,-2.36877 0.62088,0.20618 -0.2482,0.74742 -0.62088,-0.20619 z m 3.03786,-0.50326 0.5094,0.13544 -2.89908,4.62876 -0.5094,-0.13545 z m 0.61938,0.17886 2.93256,0.50991 -0.0457,0.26271 -2.40302,4.01015 -0.64456,-0.11208 2.26066,-3.77054 -2.19026,-0.38085 z m 7.78489,3.60537 q 1.8e-4,-0.62942 -0.26017,-0.98606 -0.25725,-0.35974 -0.70993,-0.35987 -0.45269,-1.3e-4 -0.71324,0.35947 -0.25745,0.35649 -0.25763,0.98591 -1.8e-4,0.62942 0.25707,0.98916 0.26035,0.35664 0.71303,0.35677 0.45269,1.3e-4 0.71014,-0.35637 0.26055,-0.35959 0.26073,-0.98901 z m -1.94063,-1.21288 q 0.17993,-0.31001 0.45282,-0.45876 0.27599,-0.15185 0.65737,-0.15174 0.63252,1.8e-4 1.02615,0.50258 0.39673,0.50241 0.3965,1.32097 -2.3e-4,0.81855 -0.39725,1.32073 -0.39392,0.50219 -1.02643,0.50201 -0.38138,-1.1e-4 -0.65729,-0.14902 -0.27281,-0.152 -0.45255,-0.46211 l -1.5e-4,0.5209 -0.57361,-1.7e-4 0.001,-4.82451 0.57361,1.7e-4 z m 3.19165,-0.61027 0.56859,-0.0467 0.28437,3.461 -0.56859,0.0467 z m -0.1107,-1.34731 0.56859,-0.0467 0.0592,0.72001 -0.56859,0.0467 z m 3.82358,0.97848 0.0828,0.53312 q -0.258,-0.0855 -0.52488,-0.10679 -0.26688,-0.0213 -0.54263,0.0215 -0.41975,0.0652 -0.61119,0.22665 -0.18837,0.16102 -0.14842,0.41839 0.0304,0.19609 0.19816,0.28615 0.16725,0.087 0.6364,0.11772 l 0.19969,0.0129 q 0.62049,0.0355 0.90835,0.2324 0.29045,0.19338 0.3556,0.61314 0.0742,0.47796 -0.26245,0.81575 -0.33359,0.33731 -0.99539,0.44003 -0.27575,0.0428 -0.58457,0.0343 -0.30528,-0.006 -0.65283,-0.0618 l -0.0904,-0.58214 q 0.33772,0.11388 0.65389,0.14953 0.31569,0.0326 0.61289,-0.0135 0.3983,-0.0618 0.59185,-0.22993 0.19307,-0.17117 0.15455,-0.41934 -0.0357,-0.22979 -0.21095,-0.32809 -0.17221,-0.0988 -0.71374,-0.13082 l -0.20322,-0.0155 q -0.54105,-0.029 -0.8091,-0.21957 -0.26852,-0.19365 -0.33034,-0.59195 -0.0751,-0.4841 0.22711,-0.80086 0.30226,-0.31676 0.93342,-0.41472 0.31252,-0.0485 0.59541,-0.0453 0.28288,0.003 0.53,0.0589 z m 3.84969,-2.52318 0.13565,0.45458 -0.52292,0.15604 q -0.29414,0.0878 -0.37455,0.2412 -0.0774,0.15254 0.0148,0.46153 l 0.0878,0.29414 0.90025,-0.26864 0.12678,0.42487 -0.90025,0.26864 0.86621,2.90279 -0.54965,0.16402 -0.86621,-2.90278 -0.52292,0.15604 -0.12678,-0.42487 0.52291,-0.15605 -0.0692,-0.23174 q -0.16579,-0.5556 0.0173,-0.88528 0.18224,-0.33265 0.74379,-0.50022 z m 2.86829,0.89124 -0.6951,-1.74566 0.53003,-0.21106 1.78479,4.48224 -0.53003,0.21106 -0.1927,-0.48394 q -0.0524,0.35459 -0.25254,0.59782 -0.19844,0.23921 -0.55564,0.38144 -0.58476,0.23285 -1.1393,-0.087 -0.55166,-0.32098 -0.85448,-1.08146 -0.30281,-0.76048 -0.1228,-1.37282 0.1829,-0.61348 0.76767,-0.84633 0.35719,-0.14223 0.66689,-0.10202 0.31143,0.0362 0.59321,0.25772 z m -1.35765,1.84551 q 0.23285,0.58477 0.605,0.82371 0.37388,0.23492 0.79445,0.0675 0.42057,-0.16747 0.53063,-0.59509 0.10891,-0.4305 -0.12394,-1.01526 -0.23284,-0.58477 -0.60673,-0.81969 -0.37502,-0.2378 -0.79559,-0.0703 -0.42057,0.16747 -0.52949,0.59797 -0.10718,0.42648 0.12567,1.01124 z m 5.16592,-5.91285 0.22672,0.41671 -0.47935,0.2608 q -0.26964,0.14669 -0.31659,0.31343 -0.0442,0.16525 0.10988,0.44851 l 0.1467,0.26963 0.82525,-0.44898 0.2119,0.38947 -0.82525,0.44899 1.44771,2.66095 -0.50386,0.27413 -1.44771,-2.66095 -1.37542,0.74831 1.44772,2.66095 -0.50387,0.27413 -1.44771,-2.66095 -0.47935,0.2608 -0.2119,-0.38947 0.47935,-0.2608 -0.11558,-0.21244 q -0.27709,-0.50932 -0.16609,-0.86974 0.10952,-0.36314 0.62427,-0.64321 l 0.47391,-0.25783 0.22671,0.41671 -0.47935,0.2608 q -0.26963,0.1467 -0.31658,0.31343 -0.0442,0.16526 0.10988,0.44851 l 0.1467,0.26964 1.37541,-0.74831 -0.11558,-0.21245 q -0.2771,-0.50931 -0.1661,-0.86973 0.10952,-0.36315 0.62428,-0.64321 z m 2.35432,3.1816 0.54335,-0.36439 0.43865,0.65408 -0.54335,0.36439 z m -1.39021,-2.07298 0.54335,-0.36439 0.43865,0.65408 -0.54335,0.36439 z m 3.10254,0.87195 0.52023,-0.39671 0.47755,0.62625 -0.52023,0.3967 z m -1.51348,-1.98477 0.52023,-0.396702 0.47755,0.626242 -0.52023,0.39671 z m 1.2963,-2.793122 0.39896,-0.344469 2.18988,5.003451 -0.39896,0.34447 z m 0.49663,-0.410693 2.07392,-2.135131 0.19127,0.185788 1.9584,4.245047 -0.45583,0.469284 -1.84071,-3.992408 -1.54896,1.594676 z"
       id="text10"
       style="font-size:6.35px;line-height:0;-inkscape-font-specification:sans-serif;letter-spacing:0px;word-spacing:0px;stroke-width:0.264583"
       aria-label=" fc00::/7 bis fdff::/7" />
    <path
       d="m 105.38803,87.444764 -0.27205,0.388638 -0.44706,-0.312937 q -0.25147,-0.176027 -0.42165,-0.143766 -0.16765,0.03404 -0.35257,0.298211 l -0.17602,0.251471 0.76965,0.538749 -0.25426,0.363235 -0.76965,-0.538748 -1.73716,2.48169 -0.46992,-0.328939 1.73715,-2.48169 -0.44706,-0.312937 0.25427,-0.363236 0.44706,0.312937 0.13868,-0.198129 q 0.3325,-0.475002 0.70462,-0.536221 0.3739,-0.06376 0.85399,0.272292 z m 1.14148,3.875547 -0.12626,0.248857 -2.33925,-1.186819 q -0.23336,0.542197 -0.0916,0.961797 0.14592,0.418236 0.65193,0.674959 0.29309,0.148703 0.60331,0.215695 0.31298,0.06839 0.65691,0.06209 l -0.2441,0.481121 q -0.33266,-0.02275 -0.65109,-0.107815 -0.31843,-0.08507 -0.6143,-0.235172 -0.74104,-0.375967 -0.95631,-1.027567 -0.2125,-0.650197 0.16066,-1.385706 0.38579,-0.760394 1.02088,-0.997948 0.63926,-0.238914 1.33605,0.114606 0.62491,0.317046 0.78232,0.904521 0.16157,0.586113 -0.18914,1.27738 z m -0.43302,-0.40744 q 0.2063,-0.420331 0.10306,-0.785624 -0.10046,-0.363899 -0.47653,-0.554681 -0.42582,-0.21604 -0.80502,-0.105945 -0.37643,0.111545 -0.6368,0.528739 z m 2.45079,0.708458 q -0.42825,-0.12631 -0.74263,0.02988 -0.3114,0.157068 -0.42982,0.558545 -0.11841,0.40148 0.0579,0.702399 0.1793,0.301797 0.60754,0.428107 0.42825,0.126311 0.74262,-0.02988 0.31526,-0.159158 0.4328,-0.557667 0.11841,-0.40148 -0.0609,-0.703277 -0.17633,-0.300917 -0.60754,-0.428107 z m -0.5253,-0.432943 q -0.35854,-0.209197 -0.49757,-0.537909 -0.13606,-0.327834 -0.0238,-0.708497 0.15701,-0.532332 0.62592,-0.730221 0.47189,-0.197014 1.1321,-0.0023 0.66318,0.195606 0.94965,0.616294 0.28646,0.420687 0.12945,0.953019 -0.11228,0.380663 -0.40744,0.581309 -0.29219,0.201524 -0.70391,0.183493 0.40437,0.229179 0.55842,0.594647 0.15703,0.366344 0.0316,0.791616 -0.19034,0.645342 -0.68762,0.873655 -0.49431,0.22919 -1.22887,0.01253 -0.73456,-0.216659 -1.02834,-0.678296 -0.29081,-0.46076 -0.10047,-1.106102 0.12544,-0.425271 0.45614,-0.647762 0.3307,-0.222492 0.79471,-0.19554 z m 0.0597,-1.013592 q -0.10175,0.344975 0.0554,0.601435 0.16007,0.257339 0.54966,0.372246 0.38661,0.114031 0.66072,-0.01524 0.27709,-0.128391 0.37884,-0.47337 0.10175,-0.344975 -0.0613,-0.603189 -0.16008,-0.257339 -0.54669,-0.371368 -0.38958,-0.114908 -0.6637,0.01436 -0.27114,0.130146 -0.37289,0.475125 z m 4.22824,0.137663 q -0.48123,-0.0488 -0.77309,0.401544 -0.28848,0.447569 -0.38482,1.397678 -0.096,0.947023 0.0964,1.446476 0.19583,0.496681 0.67706,0.54548 0.48431,0.04911 0.77278,-0.398459 0.29187,-0.450342 0.3879,-1.397365 0.0964,-0.950108 -0.0995,-1.446789 -0.19244,-0.499454 -0.67675,-0.548565 z m 0.05,-0.493562 q 0.77427,0.07851 1.11921,0.733674 0.34834,0.652388 0.2301,1.818429 -0.11793,1.162957 -0.59045,1.735222 -0.46913,0.569493 -1.24341,0.490978 -0.77427,-0.07852 -1.12261,-0.730903 -0.34494,-0.65516 -0.22701,-1.818117 0.11824,-1.166042 0.58737,-1.735534 0.47252,-0.572265 1.2468,-0.493749 z m 2.25471,4.008165 0.65368,-0.02682 0.0323,0.786887 -0.65368,0.02682 z m -0.10231,-2.493874 0.65367,-0.02682 0.0323,0.786888 -0.65367,0.02682 z m 2.15825,2.340089 0.64788,-0.09088 0.1094,0.779912 -0.64788,0.09088 z m -0.34675,-2.47177 0.64788,-0.09088 0.10941,0.779913 -0.64788,0.09088 z m 2.31666,-1.821209 0.51227,-0.124131 -0.33802,5.451218 -0.51227,0.124131 z m 2.16437,3.655864 0.95028,-0.379335 -1.30928,-3.279902 -0.95102,0.620004 -0.21151,-0.529851 0.94526,-0.617705 0.58168,-0.232204 1.52079,3.809755 0.95028,-0.379335 0.19542,0.489536 -2.47648,0.988569 z m 2.67148,-5.363729 q -0.40837,0.259205 -0.35929,0.793608 0.05,0.530123 0.56179,1.336403 0.5101,0.803661 0.97017,1.077199 0.46103,0.269258 0.8694,0.01005 0.411,-0.260865 0.36096,-0.79099 -0.0491,-0.534402 -0.55918,-1.338065 -0.51176,-0.806279 -0.97278,-1.075537 -0.46007,-0.273538 -0.87107,-0.01267 z m -0.26585,-0.418846 q 0.65707,-0.417054 1.33327,-0.115441 0.67716,0.297333 1.30523,1.286859 0.62641,0.986906 0.6089,1.728835 -0.0166,0.737649 -0.67363,1.154703 -0.65706,0.417053 -1.33422,0.11972 -0.6762,-0.301614 -1.30261,-1.28852 -0.62807,-0.989525 -0.61152,-1.727174 0.0175,-0.741929 0.67458,-1.158982 z"
       id="text11"
       style="font-size:6.35px;line-height:0;-inkscape-font-specification:sans-serif;letter-spacing:0px;word-spacing:0px;stroke-width:0.264583"
       aria-label="fe80::/10" />
    <text
       xml:space="preserve"
       style="font-size:4.23333px;line-height:0;font-family:sans-serif;-inkscape-font-specification:sans-serif;letter-spacing:0px;word-spacing:0px;stroke-width:0.264583"
       x="106.86768"
       y="74.32399"
       id="text12"><tspan
         sodipodi:role="line"
         id="tspan11"
         style="font-size:4.23333px;stroke-width:0.264583"
         x="106.86768"
         y="74.32399">::/128</tspan></text>
    <text
       xml:space="preserve"
       style="font-size:4.23333px;line-height:0;font-family:sans-serif;-inkscape-font-specification:sans-serif;letter-spacing:0px;word-spacing:0px;stroke-width:0.264583"
       x="105.66997"
       y="79.18515"
       id="text13"><tspan
         sodipodi:role="line"
         id="tspan12"
         style="font-size:4.23333px;stroke-width:0.264583"
         x="105.66997"
         y="79.18515">::1/128</tspan></text>
  </g>
</svg>
