<?xml version="1.0" encoding="UTF-8" standalone="no"?>
<!-- Created with Inkscape (http://www.inkscape.org/) -->

<svg
   width="210mm"
   height="148mm"
   viewBox="0 0 210 148"
   version="1.1"
   id="svg1"
   inkscape:version="1.3.2 (091e20e, 2023-11-25)"
   sodipodi:docname="lf04_gs_strukturanalyse_plan.svg"
   xmlns:inkscape="http://www.inkscape.org/namespaces/inkscape"
   xmlns:sodipodi="http://sodipodi.sourceforge.net/DTD/sodipodi-0.dtd"
   xmlns="http://www.w3.org/2000/svg"
   xmlns:svg="http://www.w3.org/2000/svg">
  <sodipodi:namedview
     id="namedview1"
     pagecolor="#ffffff"
     bordercolor="#666666"
     borderopacity="1.0"
     inkscape:showpageshadow="2"
     inkscape:pageopacity="0.0"
     inkscape:pagecheckerboard="0"
     inkscape:deskcolor="#d1d1d1"
     inkscape:document-units="mm"
     inkscape:zoom="3.2260154"
     inkscape:cx="431.49205"
     inkscape:cy="469.3096"
     inkscape:window-width="1600"
     inkscape:window-height="843"
     inkscape:window-x="0"
     inkscape:window-y="0"
     inkscape:window-maximized="1"
     inkscape:current-layer="layer1" />
  <defs
     id="defs1">
    <marker
       inkscape:stockid="Arrow2Mend"
       orient="auto"
       refY="0"
       refX="0"
       id="Arrow2Mend"
       style="overflow:visible"
       inkscape:isstock="true"
       inkscape:collect="always">
      <path
         id="path851"
         style="fill:#000000;fill-opacity:1;fill-rule:evenodd;stroke:#000000;stroke-width:0.625;stroke-linejoin:round;stroke-opacity:1"
         d="M 8.7185878,4.0337352 -2.2072895,0.01601326 8.7185884,-4.0017078 c -1.7454984,2.3720609 -1.7354408,5.6174519 -6e-7,8.035443 z"
         transform="scale(-0.6)"
         inkscape:connector-curvature="0" />
    </marker>
    <marker
       inkscape:stockid="Arrow2Mend"
       orient="auto"
       refY="0"
       refX="0"
       id="marker1538"
       style="overflow:visible"
       inkscape:isstock="true"
       inkscape:collect="always">
      <path
         id="path1536"
         style="fill:#000000;fill-opacity:1;fill-rule:evenodd;stroke:#000000;stroke-width:0.625;stroke-linejoin:round;stroke-opacity:1"
         d="M 8.7185878,4.0337352 -2.2072895,0.01601326 8.7185884,-4.0017078 c -1.7454984,2.3720609 -1.7354408,5.6174519 -6e-7,8.035443 z"
         transform="scale(-0.6)"
         inkscape:connector-curvature="0" />
    </marker>
    <marker
       inkscape:isstock="true"
       style="overflow:visible"
       id="marker1236"
       refX="0"
       refY="0"
       orient="auto"
       inkscape:stockid="Arrow2Mend">
      <path
         transform="scale(-0.6)"
         d="M 8.7185878,4.0337352 -2.2072895,0.01601326 8.7185884,-4.0017078 c -1.7454984,2.3720609 -1.7354408,5.6174519 -6e-7,8.035443 z"
         style="fill:#000000;fill-opacity:1;fill-rule:evenodd;stroke:#000000;stroke-width:0.625;stroke-linejoin:round;stroke-opacity:1"
         id="path1234"
         inkscape:connector-curvature="0" />
    </marker>
    <marker
       inkscape:isstock="true"
       style="overflow:visible"
       id="marker1480"
       refX="0"
       refY="0"
       orient="auto"
       inkscape:stockid="Arrow2Mend">
      <path
         transform="scale(-0.6)"
         d="M 8.7185878,4.0337352 -2.2072895,0.01601326 8.7185884,-4.0017078 c -1.7454984,2.3720609 -1.7354408,5.6174519 -6e-7,8.035443 z"
         style="fill:#000000;fill-opacity:1;fill-rule:evenodd;stroke:#000000;stroke-width:0.625;stroke-linejoin:round;stroke-opacity:1"
         id="path1478"
         inkscape:connector-curvature="0" />
    </marker>
    <marker
       inkscape:isstock="true"
       style="overflow:visible"
       id="marker1604"
       refX="0"
       refY="0"
       orient="auto"
       inkscape:stockid="Arrow2Mend"
       inkscape:collect="always">
      <path
         transform="scale(-0.6)"
         d="M 8.7185878,4.0337352 -2.2072895,0.01601326 8.7185884,-4.0017078 c -1.7454984,2.3720609 -1.7354408,5.6174519 -6e-7,8.035443 z"
         style="fill:#000000;fill-opacity:1;fill-rule:evenodd;stroke:#000000;stroke-width:0.625;stroke-linejoin:round;stroke-opacity:1"
         id="path1602"
         inkscape:connector-curvature="0" />
    </marker>
    <marker
       inkscape:stockid="Arrow2Mend"
       orient="auto"
       refY="0"
       refX="0"
       id="marker1802"
       style="overflow:visible"
       inkscape:isstock="true"
       inkscape:collect="always">
      <path
         id="path1800"
         style="fill:#000000;fill-opacity:1;fill-rule:evenodd;stroke:#000000;stroke-width:0.625;stroke-linejoin:round;stroke-opacity:1"
         d="M 8.7185878,4.0337352 -2.2072895,0.01601326 8.7185884,-4.0017078 c -1.7454984,2.3720609 -1.7354408,5.6174519 -6e-7,8.035443 z"
         transform="scale(-0.6)"
         inkscape:connector-curvature="0" />
    </marker>
    <marker
       inkscape:isstock="true"
       style="overflow:visible"
       id="marker1959"
       refX="0"
       refY="0"
       orient="auto"
       inkscape:stockid="Arrow2Mend"
       inkscape:collect="always">
      <path
         transform="scale(-0.6)"
         d="M 8.7185878,4.0337352 -2.2072895,0.01601326 8.7185884,-4.0017078 c -1.7454984,2.3720609 -1.7354408,5.6174519 -6e-7,8.035443 z"
         style="fill:#000000;fill-opacity:1;fill-rule:evenodd;stroke:#000000;stroke-width:0.625;stroke-linejoin:round;stroke-opacity:1"
         id="path1957"
         inkscape:connector-curvature="0" />
    </marker>
    <marker
       inkscape:stockid="Arrow2Mend"
       orient="auto"
       refY="0"
       refX="0"
       id="marker2343"
       style="overflow:visible"
       inkscape:isstock="true">
      <path
         id="path2341"
         style="fill:#000000;fill-opacity:1;fill-rule:evenodd;stroke:#000000;stroke-width:0.625;stroke-linejoin:round;stroke-opacity:1"
         d="M 8.7185878,4.0337352 -2.2072895,0.01601326 8.7185884,-4.0017078 c -1.7454984,2.3720609 -1.7354408,5.6174519 -6e-7,8.035443 z"
         transform="scale(-0.6)"
         inkscape:connector-curvature="0" />
    </marker>
  </defs>
  <g
     inkscape:label="Ebene 1"
     inkscape:groupmode="layer"
     id="layer1">
    <rect
       style="fill:#f9f9f9;fill-opacity:0.721569;stroke:#000080;stroke-width:0.264999;stroke-linecap:square;stroke-opacity:0.721569;paint-order:stroke fill markers"
       id="rect84"
       width="103.04621"
       height="38.535557"
       x="48.949406"
       y="8.3410473" />
    <rect
       style="fill:#ffeeaa;fill-opacity:1;stroke:#000080;stroke-width:0.264999;stroke-linecap:square;stroke-opacity:0.721569;paint-order:stroke fill markers"
       id="rect90"
       width="19.926046"
       height="11.705762"
       x="69.829239"
       y="13.912352" />
    <rect
       style="fill:#f9f9f9;fill-opacity:0.721569;stroke:#000080;stroke-width:0.264999;stroke-linecap:square;stroke-opacity:0.721569;paint-order:stroke fill markers"
       id="rect88"
       width="35.665039"
       height="43.972763"
       x="111.06496"
       y="97.916138" />
    <rect
       style="fill:#f9f9f9;fill-opacity:0.721569;stroke:#000080;stroke-width:0.264999;stroke-linecap:square;stroke-opacity:0.721569;paint-order:stroke fill markers"
       id="rect87"
       width="35.665039"
       height="43.972763"
       x="63.43998"
       y="97.916138" />
    <g
       id="g838"
       transform="translate(69.459063,-56.520789)">
      <rect
         y="161"
         x="7.4125004"
         height="10"
         width="14"
         id="rect829"
         style="fill:none;fill-opacity:1;stroke:#000000;stroke-width:0.665;stroke-miterlimit:4;stroke-dasharray:none;stroke-opacity:1" />
      <rect
         ry="1.999994"
         style="fill:#e3dbdb;fill-opacity:1;stroke:#000000;stroke-width:0.465;stroke-miterlimit:4;stroke-dasharray:none;stroke-opacity:1"
         id="rect831"
         width="11"
         height="7.9999938"
         x="9"
         y="162" />
      <path
         inkscape:connector-curvature="0"
         id="path833"
         d="M 6.9999999,172.94165 H 22 l 4,5 H 3 l 3.9999999,-5"
         style="fill:#ffe6d5;stroke:#000000;stroke-width:0.264583px;stroke-linecap:butt;stroke-linejoin:miter;stroke-opacity:1" />
    </g>
    <g
       id="g1947"
       transform="translate(86.174962,-143.33291)">
      <rect
         y="209.6875"
         x="18.520834"
         height="13.229166"
         width="13.229166"
         id="rect12"
         style="fill:#d5e5ff;fill-opacity:1;stroke:#000000;stroke-width:0.265;stroke-miterlimit:4;stroke-dasharray:none;stroke-dashoffset:0;stroke-opacity:1" />
      <path
         inkscape:connector-curvature="0"
         id="path822"
         d="m 21.166666,214.97916 v -3.96875"
         style="fill:none;stroke:#000000;stroke-width:0.264583px;stroke-linecap:butt;stroke-linejoin:miter;stroke-opacity:1;marker-end:url(#Arrow2Mend)" />
      <path
         style="fill:none;stroke:#000000;stroke-width:0.264583px;stroke-linecap:butt;stroke-linejoin:miter;stroke-opacity:1;marker-end:url(#marker1538)"
         d="m 26.458333,214.97916 v -3.96875"
         id="path1164"
         inkscape:connector-curvature="0" />
      <path
         style="fill:none;stroke:#000000;stroke-width:0.264583px;stroke-linecap:butt;stroke-linejoin:miter;stroke-opacity:1;marker-end:url(#marker1236)"
         d="m 23.812501,217.2404 v 3.96875"
         id="path1230"
         inkscape:connector-curvature="0" />
      <path
         inkscape:connector-curvature="0"
         id="path1232"
         d="m 29.104168,217.2404 v 3.96875"
         style="fill:none;stroke:#000000;stroke-width:0.264583px;stroke-linecap:butt;stroke-linejoin:miter;stroke-opacity:1;marker-end:url(#marker1480)" />
    </g>
    <g
       id="Hintergrund"
       transform="matrix(0.26458333,0,0,0.26458333,-15.47123,-4.6073923)">
      <g
         id="g25">
        <path
           style="fill:#ffe9aa;fill-opacity:1;stroke:none"
           fill-rule="evenodd"
           d="m 239.944,257.592 -0.045,-1.168 -0.155,-1.169 -0.288,-1.147 -0.4,-1.148 -0.533,-1.169 -0.599,-1.127 -0.755,-1.086 -0.843,-1.107 -0.91,-1.066 -1.066,-1.045 -1.132,-1.005 -1.242,-0.984 -1.354,-0.942 -1.421,-0.902 -1.509,-0.882 -1.621,-0.84 -1.664,-0.799 -1.731,-0.738 -1.821,-0.677 -1.886,-0.656 -1.953,-0.614 -2.02,-0.533 -2.02,-0.492 -2.109,-0.431 -2.153,-0.369 -2.153,-0.348 -2.197,-0.267 -2.22,-0.205 -2.241,-0.143 -2.264,-0.082 -2.264,-0.041 v 0 l -2.242,0.041 -2.286,0.082 -2.22,0.143 -2.219,0.205 -2.22,0.267 -2.153,0.348 -2.153,0.369 -2.086,0.431 -2.065,0.492 -1.975,0.533 -1.953,0.614 -1.865,0.656 -1.842,0.677 -1.731,0.738 -1.687,0.799 -1.62,0.84 -1.51,0.882 -1.42,0.902 -1.354,0.942 -1.243,0.984 -1.132,1.005 -1.043,1.045 -0.955,1.066 -0.799,1.107 -0.754,1.086 -0.622,1.127 -0.533,1.169 -0.355,1.148 -0.288,1.147 -0.2,1.169 -0.022,1.168 v 0 l 0.022,1.168 0.2,1.21 0.288,1.148 0.355,1.168 0.533,1.148 0.622,1.127 0.754,1.086 0.799,1.107 0.955,1.066 1.043,1.025 1.132,1.025 1.243,0.984 1.354,0.922 1.42,0.922 1.51,0.882 1.62,0.84 1.687,0.779 1.731,0.717 1.842,0.738 1.865,0.636 1.953,0.594 1.975,0.554 2.065,0.491 2.086,0.41 2.153,0.39 2.153,0.328 2.22,0.266 2.219,0.185 2.22,0.184 2.286,0.062 2.242,0.02 v 0 l 2.264,-0.02 2.264,-0.062 2.241,-0.184 2.22,-0.185 2.197,-0.266 2.153,-0.328 2.153,-0.39 2.109,-0.41 2.02,-0.491 2.02,-0.554 1.953,-0.594 1.886,-0.636 1.821,-0.738 1.731,-0.717 1.664,-0.779 1.621,-0.84 1.509,-0.882 1.421,-0.922 1.354,-0.922 1.242,-0.984 1.132,-1.025 1.066,-1.025 0.91,-1.066 0.843,-1.107 0.755,-1.086 0.599,-1.127 0.533,-1.148 0.4,-1.168 0.288,-1.148 0.155,-1.21 z"
           id="path1" />
        <path
           style="fill:#ffe9aa;fill-opacity:1;stroke:none"
           fill-rule="evenodd"
           d="m 170.094,269.767 -0.045,-1.168 -0.155,-1.168 -0.178,-1.148 -0.31,-1.169 -0.4,-1.147 -0.488,-1.128 -0.577,-1.107 -0.622,-1.086 -0.71,-1.066 -0.799,-1.045 -0.866,-1.004 -0.954,-0.984 -1.065,-0.943 -1.088,-0.943 -1.154,-0.84 -1.243,-0.841 -1.243,-0.799 -1.376,-0.738 -1.376,-0.697 -1.465,-0.635 -1.465,-0.615 -1.532,-0.533 -1.598,-0.492 -1.598,-0.431 -1.642,-0.368 -1.665,-0.349 -1.687,-0.266 -1.709,-0.185 -1.687,-0.164 -1.731,-0.082 -1.732,-0.041 v 0 l -1.731,0.041 -1.731,0.082 -1.731,0.164 -1.687,0.185 -1.709,0.266 -1.665,0.349 -1.62,0.368 -1.598,0.431 -1.576,0.492 -1.532,0.533 -1.509,0.615 -1.421,0.635 -1.42,0.697 -1.332,0.738 -1.265,0.799 -1.243,0.841 -1.154,0.84 -1.11,0.943 -1.043,0.943 -0.932,0.984 -0.888,1.004 -0.777,1.045 -0.732,1.066 -0.644,1.086 -0.555,1.107 -0.488,1.128 -0.4,1.147 -0.288,1.169 -0.222,1.148 -0.134,1.168 -0.044,1.168 v 0 l 0.044,1.189 0.134,1.189 0.222,1.148 0.288,1.148 0.4,1.168 0.488,1.086 0.555,1.128 0.644,1.106 0.732,1.066 0.777,1.025 0.888,1.025 0.932,0.984 1.043,0.922 1.11,0.923 1.154,0.881 1.243,0.799 1.265,0.82 1.332,0.718 1.42,0.737 1.421,0.636 1.509,0.594 1.532,0.554 1.576,0.471 1.598,0.431 1.62,0.389 1.665,0.328 1.709,0.266 1.687,0.185 1.731,0.143 1.731,0.103 1.731,0.02 v 0 l 1.732,-0.02 1.731,-0.103 1.687,-0.143 1.709,-0.185 1.687,-0.266 1.665,-0.328 1.642,-0.389 1.598,-0.431 1.598,-0.471 1.532,-0.554 1.465,-0.594 1.465,-0.636 1.376,-0.737 1.376,-0.718 1.243,-0.82 1.243,-0.799 1.154,-0.881 1.088,-0.923 1.065,-0.922 0.954,-0.984 0.866,-1.025 0.799,-1.025 0.71,-1.066 0.622,-1.106 0.577,-1.128 0.488,-1.086 0.4,-1.168 0.31,-1.148 0.178,-1.148 0.155,-1.189 z"
           id="path2" />
        <path
           style="fill:#ffe9aa;fill-opacity:1;stroke:none"
           fill-rule="evenodd"
           d="m 127.012,293.421 -0.022,-0.943 -0.067,-0.963 -0.155,-0.943 -0.2,-0.964 -0.289,-0.922 -0.333,-0.922 -0.355,-0.902 -0.421,-0.882 -0.489,-0.881 -0.555,-0.881 -0.599,-0.779 -0.644,-0.82 -0.688,-0.799 -0.732,-0.718 -0.799,-0.717 -0.821,-0.656 -0.844,-0.656 -0.888,-0.615 -0.954,-0.553 -0.977,-0.533 -0.999,-0.492 -1.043,-0.451 -1.043,-0.41 -1.088,-0.349 -1.109,-0.307 -1.11,-0.246 -1.132,-0.246 -1.176,-0.143 -1.155,-0.123 -1.132,-0.062 -1.176,-0.041 v 0 l -1.176,0.041 -1.177,0.062 -1.154,0.123 -1.1319,0.143 -1.1542,0.246 -1.132,0.246 -1.0876,0.307 -1.0654,0.349 -1.0876,0.41 -1.0432,0.451 -0.9988,0.492 -0.9766,0.533 -0.9322,0.553 -0.91,0.615 -0.8435,0.656 -0.8212,0.656 -0.7769,0.717 -0.7546,0.718 -0.6881,0.799 -0.6437,0.82 -0.5992,0.779 -0.5105,0.881 -0.4884,0.881 -0.4217,0.882 -0.3995,0.902 -0.3329,0.922 -0.2442,0.922 -0.1998,0.964 -0.1775,0.943 L 81,292.478 v 0.943 0 0.943 l 0.0888,0.984 0.1775,0.922 0.1998,0.963 0.2442,0.943 0.3329,0.902 0.3995,0.902 0.4217,0.881 0.4884,0.902 0.5105,0.861 0.5992,0.799 0.6437,0.8 0.6881,0.779 0.7546,0.738 0.7769,0.717 0.8212,0.676 0.8435,0.656 0.91,0.595 0.9322,0.553 0.9766,0.533 0.9988,0.492 1.0432,0.451 1.0876,0.41 1.0654,0.328 1.0876,0.328 1.132,0.266 1.1542,0.226 1.1319,0.164 1.154,0.102 1.177,0.062 1.176,0.041 v 0 l 1.176,-0.041 1.132,-0.062 1.155,-0.102 1.176,-0.164 1.132,-0.226 1.11,-0.266 1.109,-0.328 1.088,-0.328 1.043,-0.41 1.043,-0.451 0.999,-0.492 0.977,-0.533 0.954,-0.553 0.888,-0.595 0.844,-0.656 0.821,-0.676 0.799,-0.717 0.732,-0.738 0.688,-0.779 0.644,-0.8 0.599,-0.799 0.555,-0.861 0.489,-0.902 0.421,-0.881 0.355,-0.902 0.333,-0.902 0.289,-0.943 0.2,-0.963 0.155,-0.922 0.067,-0.984 z"
           id="path3" />
        <path
           style="fill:#ffe9aa;fill-opacity:1;stroke:none"
           fill-rule="evenodd"
           d="m 164.167,311.643 -0.022,-1.025 -0.155,-1.046 -0.244,-1.024 -0.289,-1.025 -0.399,-1.005 -0.466,-1.004 -0.6,-0.963 -0.621,-0.984 -0.755,-0.923 -0.799,-0.901 -0.91,-0.902 -0.954,-0.861 -1.021,-0.882 -1.11,-0.799 -1.176,-0.758 -1.243,-0.738 -1.31,-0.677 -1.376,-0.655 -1.398,-0.615 -1.465,-0.574 -1.532,-0.513 -1.554,-0.492 -1.598,-0.451 -1.62,-0.389 -1.665,-0.307 -1.709,-0.287 -1.687,-0.246 -1.731,-0.205 -1.731,-0.123 -1.754,-0.062 -1.775,-0.041 v 0 l -1.754,0.041 -1.731,0.062 -1.776,0.123 -1.709,0.205 -1.731,0.246 -1.665,0.287 -1.664,0.307 -1.643,0.389 -1.598,0.451 -1.531,0.492 -1.532,0.513 -1.465,0.574 -1.42,0.615 -1.354,0.655 -1.31,0.677 -1.243,0.738 -1.176,0.758 -1.11,0.799 -1.043,0.882 -0.955,0.861 -0.9097,0.902 -0.8212,0.901 -0.7103,0.923 -0.6437,0.984 -0.5992,0.963 -0.4884,1.004 -0.3551,1.005 -0.3329,1.025 -0.222,1.024 -0.1332,1.046 -0.0443,1.025 v 0 l 0.0443,1.045 0.1332,1.025 0.222,1.066 0.3329,1.025 0.3551,0.983 0.4884,0.984 0.5992,1.005 0.6437,0.963 0.7103,0.943 0.8212,0.922 0.9097,0.902 0.955,0.861 1.043,0.861 1.11,0.82 1.176,0.738 1.243,0.717 1.31,0.717 1.354,0.656 1.42,0.615 1.465,0.574 1.532,0.513 1.531,0.491 1.598,0.41 1.643,0.39 1.664,0.348 1.665,0.267 1.731,0.246 1.709,0.205 1.776,0.102 1.731,0.103 h 1.754 v 0 h 1.775 l 1.754,-0.103 1.731,-0.102 1.731,-0.205 1.687,-0.246 1.709,-0.267 1.665,-0.348 1.62,-0.39 1.598,-0.41 1.554,-0.491 1.532,-0.513 1.465,-0.574 1.398,-0.615 1.376,-0.656 1.31,-0.717 1.243,-0.717 1.176,-0.759 1.11,-0.84 1.021,-0.82 0.954,-0.861 0.91,-0.902 0.799,-0.922 0.755,-0.943 0.621,-0.963 0.6,-1.005 0.466,-0.984 0.399,-0.983 0.289,-1.025 0.244,-1.066 0.155,-1.025 z"
           id="path4" />
        <path
           style="fill:#ffe9aa;fill-opacity:1;stroke:none"
           fill-rule="evenodd"
           d="m 247.379,322.24 -0.088,-1.23 -0.178,-1.23 -0.355,-1.23 -0.466,-1.189 -0.577,-1.229 -0.711,-1.169 -0.843,-1.168 -0.977,-1.148 -1.109,-1.127 -1.199,-1.066 -1.354,-1.066 -1.42,-1.066 -1.554,-0.963 -1.643,-0.964 -1.797,-0.922 -1.821,-0.881 -1.953,-0.8 -2.042,-0.779 -2.086,-0.737 -2.22,-0.677 -2.242,-0.615 -2.33,-0.594 -2.375,-0.513 -2.464,-0.43 -2.463,-0.41 -2.531,-0.348 -2.53,-0.267 -2.619,-0.225 -2.553,-0.144 -2.641,-0.123 h -2.619 v 0 H 193 l -2.619,0.123 -2.597,0.144 -2.575,0.225 -2.575,0.267 -2.508,0.348 -2.486,0.41 -2.419,0.43 -2.419,0.513 -2.287,0.594 -2.286,0.615 -2.175,0.677 -2.108,0.737 -2.02,0.779 -1.954,0.8 -1.864,0.881 -1.753,0.922 -1.643,0.964 -1.576,0.963 -1.443,1.066 -1.331,1.066 -1.177,1.066 -1.109,1.127 -0.977,1.148 -0.843,1.168 -0.733,1.169 -0.577,1.229 -0.488,1.189 -0.333,1.23 -0.2,1.23 -0.067,1.23 v 0 l 0.067,1.209 0.2,1.25 0.333,1.23 0.488,1.209 0.577,1.21 0.733,1.189 0.843,1.147 0.977,1.148 1.109,1.128 1.177,1.086 1.331,1.045 1.443,1.025 1.576,1.004 1.643,0.964 1.753,0.922 1.864,0.841 1.954,0.86 2.02,0.779 2.108,0.718 2.175,0.676 2.286,0.636 2.287,0.532 2.419,0.533 2.419,0.472 2.486,0.41 2.508,0.328 2.575,0.287 2.575,0.205 2.597,0.164 2.619,0.102 2.619,0.021 v 0 l 2.619,-0.021 2.641,-0.102 2.553,-0.164 2.619,-0.205 2.53,-0.287 2.531,-0.328 2.463,-0.41 2.464,-0.472 2.375,-0.533 2.33,-0.532 2.242,-0.636 2.22,-0.676 2.086,-0.718 2.042,-0.779 1.953,-0.86 1.821,-0.841 1.797,-0.922 1.643,-0.964 1.554,-1.004 1.42,-1.025 1.354,-1.045 1.199,-1.086 1.109,-1.128 0.977,-1.148 0.843,-1.147 0.711,-1.189 0.577,-1.21 0.466,-1.209 0.355,-1.23 0.178,-1.25 z"
           id="path5" />
        <path
           style="fill:#ffe9aa;fill-opacity:1;stroke:none"
           fill-rule="evenodd"
           d="m 276.101,266.16 -0.023,-0.902 -0.133,-0.922 -0.244,-0.923 -0.266,-0.902 -0.4,-0.902 -0.444,-0.881 -0.555,-0.881 -0.643,-0.882 -0.688,-0.82 -0.755,-0.84 -0.866,-0.779 -0.932,-0.779 -0.976,-0.738 -1.088,-0.737 -1.11,-0.677 -1.221,-0.635 -1.242,-0.656 -1.288,-0.554 -1.376,-0.574 -1.398,-0.512 -1.421,-0.451 -1.509,-0.43 -1.532,-0.39 -1.553,-0.328 -1.598,-0.328 -1.599,-0.246 -1.642,-0.184 -1.643,-0.185 -1.686,-0.123 -1.665,-0.041 -1.687,-0.02 v 0 l -1.709,0.02 -1.665,0.041 -1.687,0.123 -1.642,0.185 -1.62,0.184 -1.621,0.246 -1.576,0.328 -1.575,0.328 -1.532,0.39 -1.509,0.43 -1.443,0.451 -1.376,0.512 -1.376,0.574 -1.288,0.554 -1.243,0.656 -1.198,0.635 -1.132,0.677 -1.088,0.737 -0.976,0.738 -0.91,0.779 -0.888,0.779 -0.755,0.84 -0.688,0.82 -0.644,0.882 -0.555,0.881 -0.443,0.881 -0.378,0.902 -0.31,0.902 -0.2,0.923 -0.111,0.922 -0.067,0.902 v 0 l 0.067,0.922 0.111,0.902 0.2,0.943 0.31,0.902 0.378,0.922 0.443,0.882 0.555,0.881 0.644,0.82 0.688,0.881 0.755,0.8 0.888,0.778 0.91,0.8 0.976,0.717 1.088,0.738 1.132,0.676 1.198,0.656 1.243,0.615 1.288,0.595 1.376,0.553 1.376,0.513 1.443,0.471 1.509,0.43 1.532,0.369 1.575,0.349 1.576,0.307 1.621,0.246 1.62,0.205 1.642,0.185 1.687,0.102 1.665,0.041 1.709,0.062 v 0 l 1.687,-0.062 1.665,-0.041 1.686,-0.102 1.643,-0.185 1.642,-0.205 1.599,-0.246 1.598,-0.307 1.553,-0.349 1.532,-0.369 1.509,-0.43 1.421,-0.471 1.398,-0.513 1.376,-0.553 1.288,-0.595 1.242,-0.615 1.221,-0.656 1.11,-0.676 1.088,-0.738 0.976,-0.717 0.932,-0.8 0.866,-0.778 0.755,-0.8 0.688,-0.881 0.643,-0.82 0.555,-0.881 0.444,-0.882 0.4,-0.922 0.266,-0.902 0.244,-0.943 0.133,-0.902 z"
           id="path6" />
        <path
           style="fill:#ffe9aa;fill-opacity:1;stroke:none"
           fill-rule="evenodd"
           d="m 285.512,289.588 -0.067,-0.902 -0.089,-0.922 -0.222,-0.923 -0.288,-0.922 -0.4,-0.922 -0.444,-0.882 -0.532,-0.861 -0.644,-0.84 -0.688,-0.861 -0.755,-0.799 -0.865,-0.8 -0.933,-0.758 -0.954,-0.738 -1.088,-0.758 -1.109,-0.656 -1.155,-0.656 -1.243,-0.636 -1.331,-0.553 -1.31,-0.574 -1.398,-0.512 -1.421,-0.451 -1.487,-0.451 -1.509,-0.369 -1.554,-0.328 -1.598,-0.328 -1.598,-0.246 -1.62,-0.205 -1.665,-0.184 -1.642,-0.082 -1.665,-0.062 -1.665,-0.041 v 0 l -1.687,0.041 -1.642,0.062 -1.665,0.082 -1.62,0.184 -1.62,0.205 -1.621,0.246 -1.576,0.328 -1.531,0.328 -1.532,0.369 -1.487,0.451 -1.42,0.451 -1.399,0.512 -1.354,0.574 -1.265,0.553 -1.243,0.636 -1.22,0.656 -1.11,0.656 -1.043,0.758 -0.955,0.738 -0.932,0.758 -0.844,0.8 -0.799,0.799 -0.688,0.861 -0.599,0.84 -0.555,0.861 -0.488,0.882 -0.355,0.922 -0.289,0.922 -0.222,0.923 -0.133,0.922 -0.022,0.902 v 0 l 0.022,0.902 0.133,0.922 0.222,0.943 0.289,0.902 0.355,0.922 0.488,0.882 0.555,0.881 0.599,0.82 0.688,0.861 0.799,0.82 0.844,0.778 0.932,0.759 0.955,0.758 1.043,0.738 1.11,0.677 1.22,0.635 1.243,0.635 1.265,0.554 1.354,0.574 1.399,0.512 1.42,0.451 1.487,0.451 1.532,0.389 1.531,0.308 1.576,0.328 1.621,0.246 1.62,0.205 1.62,0.184 1.665,0.103 1.642,0.061 1.687,0.021 v 0 l 1.665,-0.021 1.665,-0.061 1.642,-0.103 1.665,-0.184 1.62,-0.205 1.598,-0.246 1.598,-0.328 1.554,-0.308 1.509,-0.389 1.487,-0.451 1.421,-0.451 1.398,-0.512 1.31,-0.574 1.331,-0.554 1.243,-0.635 1.155,-0.635 1.109,-0.677 1.088,-0.738 0.954,-0.758 0.933,-0.759 0.865,-0.778 0.755,-0.82 0.688,-0.861 0.644,-0.82 0.532,-0.881 0.444,-0.882 0.4,-0.922 0.288,-0.902 0.222,-0.943 0.089,-0.922 z"
           id="path7" />
        <path
           style="fill:#ffe9aa;fill-opacity:1;stroke:none"
           fill-rule="evenodd"
           d="m 279.075,308.958 -0.044,-1.517 -0.134,-1.497 -0.177,-1.496 -0.289,-1.517 -0.377,-1.475 -0.466,-1.476 -0.533,-1.414 -0.644,-1.415 -0.688,-1.373 -0.732,-1.332 -0.844,-1.312 -0.932,-1.271 -0.976,-1.23 -1.066,-1.168 -1.11,-1.148 -1.154,-1.045 -1.243,-1.025 -1.265,-0.943 -1.354,-0.922 -1.376,-0.82 -1.42,-0.759 -1.443,-0.697 -1.509,-0.635 -1.532,-0.594 -1.598,-0.492 -1.576,-0.39 -1.642,-0.369 -1.621,-0.266 -1.62,-0.164 -1.643,-0.123 -1.664,-0.041 v 0 l -1.665,0.041 -1.642,0.123 -1.665,0.164 -1.62,0.266 -1.598,0.369 -1.621,0.39 -1.553,0.492 -1.532,0.594 -1.509,0.635 -1.487,0.697 -1.421,0.759 -1.376,0.82 -1.31,0.922 -1.309,0.943 -1.221,1.025 -1.176,1.045 -1.11,1.148 -1.043,1.168 -0.999,1.23 -0.888,1.271 -0.843,1.312 -0.777,1.332 -0.688,1.373 -0.6,1.415 -0.532,1.414 -0.466,1.476 -0.378,1.475 -0.288,1.517 -0.222,1.496 -0.133,1.497 -0.045,1.517 v 0 l 0.045,1.516 0.133,1.538 0.222,1.496 0.288,1.476 0.378,1.496 0.466,1.435 0.532,1.435 0.6,1.414 0.688,1.373 0.777,1.373 0.843,1.312 0.888,1.251 0.999,1.209 1.043,1.168 1.11,1.128 1.176,1.106 1.221,1.025 1.309,0.943 1.31,0.881 1.376,0.841 1.421,0.779 1.487,0.697 1.509,0.635 1.532,0.574 1.553,0.471 1.621,0.431 1.598,0.328 1.62,0.266 1.665,0.205 1.642,0.123 1.665,0.041 v 0 l 1.664,-0.041 1.643,-0.123 1.62,-0.205 1.621,-0.266 1.642,-0.328 1.576,-0.431 1.598,-0.471 1.532,-0.574 1.509,-0.635 1.443,-0.697 1.42,-0.779 1.376,-0.841 1.354,-0.881 1.265,-0.943 1.243,-1.025 1.154,-1.106 1.11,-1.128 1.066,-1.168 0.976,-2.255 0.932,-0.205 0.844,-1.312 0.732,-1.373 0.688,-1.373 0.644,-1.414 0.533,-1.435 0.466,-1.435 0.377,-1.496 0.289,-1.476 0.177,-1.496 0.134,-1.538 z"
           id="path8" />
        <path
           style="fill:#ffe9aa;fill-opacity:1;stroke:none"
           fill-rule="evenodd"
           d="m 250.842,290.941 -0.089,-1.517 -0.266,-1.517 -0.422,-1.517 -0.577,-1.496 -0.755,-1.455 -0.932,-1.456 -1.087,-1.455 -1.266,-1.414 -1.376,-1.394 -1.553,-1.312 -1.732,-1.312 -1.842,-1.27 -1.998,-1.23 -2.13,-1.189 -2.264,-1.127 -2.353,-1.066 -2.508,-1.025 -2.619,-0.922 -2.686,-0.923 -2.819,-0.84 -2.908,-0.758 -2.974,-0.697 -3.041,-0.636 -3.107,-0.574 -3.196,-0.492 -3.241,-0.43 -3.263,-0.308 -3.307,-0.307 -3.329,-0.164 -3.352,-0.123 -3.396,-0.02 v 0 l -3.351,0.02 -3.352,0.123 -3.329,0.164 -3.329,0.307 -3.263,0.308 -3.241,0.43 -3.174,0.492 -3.107,0.574 -3.085,0.636 -2.93,0.697 -2.908,0.758 -2.841,0.84 -2.708,0.923 -2.575,0.922 -2.53,1.025 -2.375,1.066 -2.219,1.127 -2.153,1.189 -1.998,1.23 -1.82,1.27 -1.731,1.312 -1.532,1.312 -1.398,1.394 -1.287,1.414 -1.066,1.455 -0.91,1.456 -0.799,1.455 -0.577,1.496 -0.422,1.517 -0.266,1.517 -0.067,1.517 v 0 l 0.067,1.496 0.266,1.517 0.422,1.517 0.577,1.496 0.799,1.476 0.91,1.434 1.066,1.456 1.287,1.414 1.398,1.394 1.532,1.332 1.731,1.291 1.82,1.271 1.998,1.23 2.153,1.189 2.219,1.127 2.375,1.066 2.53,1.025 2.575,0.922 2.708,0.943 2.841,0.82 2.908,0.758 2.93,0.697 3.085,0.636 3.107,0.574 3.174,0.492 3.241,0.43 3.263,0.307 3.329,0.287 3.329,0.185 3.352,0.123 3.351,0.02 v 0 l 3.396,-0.02 3.352,-0.123 3.329,-0.185 3.307,-0.287 3.263,-0.307 3.241,-0.43 3.196,-0.492 3.107,-0.574 3.041,-0.636 2.974,-0.697 2.908,-0.758 2.819,-0.82 2.686,-0.943 2.619,-0.922 2.508,-1.025 2.353,-1.066 2.264,-1.127 2.13,-1.189 1.998,-1.23 1.842,-1.271 1.732,-1.291 1.553,-1.332 1.376,-1.394 1.266,-1.414 1.087,-1.456 0.932,-1.434 0.755,-1.476 0.577,-1.496 0.422,-1.517 0.266,-1.517 z"
           id="path9" />
        <path
           style="fill:#ffe9aa;fill-opacity:1;stroke:none"
           fill-rule="evenodd"
           d="m 195.885,257.408 43.926,-5.186 -0.555,-1.148 -0.688,-1.107 -0.755,-1.127 -0.91,-1.107 -0.977,-1.066 -1.109,-1.025 -1.155,-1.025 -1.331,-0.942 -1.354,-0.964 -1.465,-0.902 -1.576,-0.861 -1.643,-0.799 -1.731,-0.779 -1.798,-0.758 -1.864,-0.677 -1.931,-0.614 -1.953,-0.615 -2.065,-0.513 -2.086,-0.451 -2.109,-0.451 -2.197,-0.369 -2.197,-0.287 -2.22,-0.266 -2.242,-0.164 -2.264,-0.123 L 197.35,234 h -2.264 l -2.286,0.02 -2.286,0.123 -2.22,0.185 -2.241,0.205 -2.22,0.328 -2.197,0.307 -2.153,0.431 -2.087,0.451 -2.042,0.512 -2.02,0.574 -1.953,0.594 -1.842,0.697 -1.82,0.697 -1.754,0.759 -1.664,0.799 -1.576,0.861 -1.487,0.902 -1.421,0.902 -1.332,1.004 -1.243,0.984 -1.132,1.045 -0.976,1.046 -0.955,1.065 -0.821,1.128 -0.688,1.127 -0.577,1.148 -0.488,1.148 z"
           id="path10" />
        <path
           style="fill:none;stroke:#805d00;stroke-width:0.02;stroke-opacity:1"
           d="m 239.811,252.181 -0.577,-1.148 -0.666,-1.127 -0.777,-1.107 -0.888,-1.087 -1.021,-1.065 -1.088,-1.025 -1.176,-1.005 -1.332,-1.004 -1.376,-0.902 -1.42,-0.902 -1.598,-0.902 -1.599,-0.799 -1.753,-0.779 -1.798,-0.717 -1.842,-0.697 -1.931,-0.615 -1.976,-0.594 -2.064,-0.533 -2.086,-0.492 -2.087,-0.41 -2.197,-0.349 -2.22,-0.287 -2.219,-0.266 -2.242,-0.164 -2.242,-0.123 -2.308,-0.082 h -2.264 l -2.264,0.02 -2.264,0.123 -2.264,0.185 -2.219,0.205 -2.22,0.307 -2.175,0.328 -2.131,0.431 -2.131,0.451 -2.02,0.512 -2.019,0.574 -1.931,0.574 -1.887,0.676 -1.798,0.738 -1.753,0.759 -1.665,0.779 -1.576,0.881 -1.509,0.881 -1.421,0.923 -1.332,0.983 -1.198,0.964 -1.154,1.025 -0.999,1.086 -0.932,1.066 -0.799,1.107 -0.733,1.107 -0.577,1.147 -0.466,1.148"
           id="path11" />
        <path
           style="fill:#ffe9aa;fill-opacity:1;stroke:none"
           fill-rule="evenodd"
           d="m 136.156,269.562 22.152,-17.976 -1.376,-0.696 -1.443,-0.718 -1.465,-0.656 -1.509,-0.553 -1.532,-0.554 -1.598,-0.471 -1.642,-0.451 -1.621,-0.348 -1.709,-0.328 -1.687,-0.267 -1.731,-0.164 -1.731,-0.143 -1.731,-0.082 h -1.732 -1.753 l -1.731,0.143 -1.732,0.123 -1.709,0.246 -1.687,0.267 -1.664,0.369 -1.665,0.389 -1.598,0.43 -1.598,0.513 -1.532,0.574 -1.487,0.615 -1.42,0.656 -1.421,0.696 -1.332,0.759 -1.265,0.799 -1.243,0.861 -1.154,0.902 -1.065,0.902 -1.021,0.984 -0.933,1.004 -0.887,1.025 -0.777,1.045 -0.733,1.066 -0.621,1.127 -0.555,1.128 -0.444,1.148 -0.355,1.147 -0.311,1.169 -0.222,1.189 -0.089,1.168 -0.044,1.168 0.067,1.21 0.133,1.188 0.266,1.148 z"
           id="path12" />
        <path
           style="fill:none;stroke:#805d00;stroke-width:0.02;stroke-opacity:1"
           d="m 158.197,251.545 -1.376,-0.737 -1.399,-0.677 -1.465,-0.635 -1.531,-0.574 -1.576,-0.554 -1.576,-0.451 -1.62,-0.45 -1.665,-0.369 -1.665,-0.287 -1.731,-0.267 -1.709,-0.184 -1.709,-0.123 -1.731,-0.082 h -1.776 l -1.687,0.02 -1.731,0.123 -1.776,0.144 -1.687,0.225 -1.664,0.287 -1.709,0.369 -1.621,0.369 -1.598,0.492 -1.576,0.512 -1.553,0.533 -1.487,0.636 -1.421,0.656 -1.376,0.717 -1.332,0.717 -1.309,0.841 -1.177,0.84 -1.176,0.882 -1.088,0.942 -0.999,0.943 -0.954,1.005 -0.843,1.045 -0.777,1.025 -0.733,1.107 -0.643,1.086 -0.533,1.148 -0.444,1.127 -0.399,1.168 -0.267,1.169 -0.222,1.168 -0.089,1.148 -0.044,1.23 0.111,1.168 0.133,1.168 0.222,1.169"
           id="path13" />
        <path
           style="fill:#ffe9aa;fill-opacity:1;stroke:none"
           fill-rule="evenodd"
           d="m 129.986,311.438 -35.6464,-0.615 v 1.045 l 0.0666,1.045 0.1776,1.087 0.2885,1.045 0.333,1.046 0.4217,1.024 0.5549,1.025 0.5771,1.005 0.7324,0.942 0.7769,0.984 0.8212,0.943 0.9765,0.902 0.977,0.881 1.11,0.861 1.132,0.8 1.22,0.779 1.31,0.737 1.332,0.677 1.398,0.697 1.465,0.594 1.509,0.595 1.576,0.532 1.598,0.472 1.598,0.43 1.687,0.39 1.709,0.328 1.731,0.287 1.754,0.225 1.753,0.185 1.776,0.123 1.798,0.082 h 1.82 l 1.753,-0.062 1.798,-0.061 1.776,-0.144 1.753,-0.184 1.776,-0.267 1.687,-0.287 1.731,-0.348 1.621,-0.41 1.642,-0.472 1.598,-0.471 1.509,-0.553 1.532,-0.574 1.398,-0.636 1.399,-0.697 z"
           id="path14" />
        <path
           style="fill:none;stroke:#805d00;stroke-width:0.02;stroke-opacity:1"
           d="m 94.384,310.823 -0.0665,1.045 0.1331,1.045 0.1332,1.046 0.2885,1.066 0.333,1.045 0.4439,1.045 0.5327,1.025 0.6215,0.984 0.688,0.963 0.7325,0.964 0.8656,0.943 0.9101,0.902 1.0434,0.881 1.065,0.861 1.154,0.799 1.199,0.779 1.287,0.738 1.332,0.697 1.398,0.656 1.465,0.615 1.51,0.594 1.531,0.512 1.598,0.472 1.665,0.451 1.642,0.389 1.687,0.308 1.731,0.328 1.776,0.184 1.754,0.226 1.753,0.102 1.798,0.103 h 1.798 l 1.775,-0.041 1.776,-0.062 1.776,-0.143 1.753,-0.205 1.776,-0.267 1.687,-0.266 1.731,-0.369 1.643,-0.39 1.598,-0.43 1.598,-0.492 1.531,-0.553 1.532,-0.574 1.442,-0.636 1.354,-0.656"
           id="path15" />
        <path
           style="fill:#ffe9aa;fill-opacity:1;stroke:none"
           fill-rule="evenodd"
           d="m 243.406,265.729 31.363,5.924 0.533,-0.881 0.399,-0.882 0.377,-0.922 0.222,-0.902 0.222,-0.902 0.045,-0.922 v -0.964 l -0.045,-0.922 -0.177,-0.902 -0.244,-0.902 -0.355,-0.922 -0.422,-0.881 -0.488,-0.882 -0.578,-0.902 -0.665,-0.82 -0.755,-0.84 -0.844,-0.799 -0.865,-0.82 -0.955,-0.718 -1.021,-0.758 -1.087,-0.717 -1.199,-0.656 -1.198,-0.636 -1.31,-0.615 -1.309,-0.553 -1.377,-0.512 -1.42,-0.513 -1.487,-0.43 -1.51,-0.431 -1.553,-0.348 -1.598,-0.328 -1.576,-0.267 -1.665,-0.246 -1.642,-0.164 -1.665,-0.143 -1.687,-0.082 -1.665,-0.082 -1.664,0.041 -1.687,0.041 -1.687,0.103 -1.643,0.143 -1.664,0.164 -1.643,0.225 -1.62,0.287 z"
           id="path16" />
        <path
           style="fill:none;stroke:#805d00;stroke-width:0.02;stroke-opacity:1"
           d="m 271.883,274.994 2.864,-3.3 0.532,-0.902 0.422,-0.861 0.333,-0.922 0.266,-0.922 0.178,-0.902 0.067,-0.902 0.022,-0.943 -0.067,-0.943 -0.155,-0.922 -0.244,-0.902 -0.355,-0.902 -0.422,-0.902 -0.466,-0.881 -0.577,-0.882 -0.688,-0.82 -0.755,-0.86 -0.777,-0.8 -0.91,-0.779 -0.954,-0.758 -1.021,-0.758 -1.088,-0.677 -1.154,-0.656 -1.221,-0.676 -1.265,-0.595 -1.354,-0.594 -1.376,-0.512 -1.421,-0.492 -1.487,-0.431 -1.509,-0.41 -1.532,-0.369 -1.576,-0.348 -1.62,-0.267 -1.598,-0.246 -1.642,-0.164 -1.665,-0.122 -1.687,-0.103 -1.687,-0.082 h -1.709 l -1.665,0.082 -1.686,0.103 -1.665,0.122 -1.643,0.164 -1.62,0.246 -1.62,0.267"
           id="path17" />
        <path
           style="fill:#ffe9aa;fill-opacity:1;stroke:none"
           fill-rule="evenodd"
           d="m 247.868,289.834 35.313,7.481 0.71,-0.963 0.577,-0.984 0.533,-1.025 0.422,-1.025 0.288,-1.025 0.2,-1.024 0.067,-1.066 v -1.025 l -0.133,-1.045 -0.2,-1.066 -0.355,-1.025 -0.422,-0.984 -0.555,-1.025 -0.599,-0.984 -0.755,-1.004 -0.843,-0.922 -0.91,-0.902 -1.043,-0.923 -1.11,-0.86 z"
           id="path18" />
        <path
           style="fill:none;stroke:#805d00;stroke-width:0.02;stroke-opacity:1"
           d="m 278.698,300.718 4.439,-3.341 0.666,-0.984 0.665,-1.025 0.511,-1.004 0.422,-1.046 0.288,-1.025 0.222,-1.024 0.089,-1.066 -0.022,-1.025 -0.133,-1.086 -0.245,-1.025 -0.31,-1.046 -0.422,-1.024 -0.555,-1.005 -0.621,-0.984 -0.777,-0.984 -0.821,-0.942 -0.977,-0.943 -0.999,-0.902 -1.132,-0.881 -7.103,-3.362"
           id="path19" />
        <path
           style="fill:#ffe9aa;fill-opacity:1;stroke:none"
           fill-rule="evenodd"
           d="m 246.381,309.613 -11.143,28.471 1.643,0.451 1.664,0.389 1.665,0.349 1.731,0.246 1.687,0.164 1.687,0.082 1.754,0.02 1.709,-0.102 1.687,-0.123 1.709,-0.246 1.664,-0.287 1.665,-0.369 1.643,-0.472 1.62,-0.533 1.554,-0.594 1.553,-0.676 1.51,-0.718 1.464,-0.84 1.421,-0.882 1.354,-0.922 1.287,-1.004 1.243,-1.046 1.199,-1.127 1.132,-1.168 1.021,-1.189 0.976,-1.271 0.933,-1.291 0.821,-1.374 0.732,-1.352 0.688,-1.435 0.577,-1.435 0.533,-1.455 0.422,-1.497 0.355,-1.516 0.222,-1.497 0.2,-1.537 0.044,-1.537 v -1.537 l -0.089,-1.517 -0.177,-1.537 -0.267,-1.517 -0.332,-1.517 -0.444,-1.476 z"
           id="path20" />
        <path
           style="fill:none;stroke:#805d00;stroke-width:0.02;stroke-opacity:1"
           d="m 235.327,338.125 1.665,0.43 1.642,0.431 1.687,0.307 1.687,0.246 1.731,0.144 1.687,0.102 1.709,0.021 1.709,-0.123 1.732,-0.123 1.686,-0.246 1.665,-0.287 1.665,-0.39 1.642,-0.492 1.598,-0.512 1.598,-0.615 1.532,-0.656 1.487,-0.758 1.443,-0.779 1.42,-0.902 1.354,-0.943 1.288,-1.004 1.243,-1.046 1.198,-1.106 1.11,-1.169 1.065,-1.25 0.933,-1.23 0.932,-1.353 0.821,-1.312 0.733,-1.373 0.665,-1.414 0.6,-1.455 0.532,-1.497 0.4,-1.455 0.355,-1.496 0.266,-1.517 0.156,-1.537 0.044,-1.538 v -1.537 l -0.111,-1.537 -0.155,-1.537 -0.289,-1.538 -0.377,-1.476 -0.377,-1.475"
           id="path21" />
        <path
           style="fill:#ffe9aa;fill-opacity:1;stroke:none"
           fill-rule="evenodd"
           d="m 105.216,293.421 -1.687,-19.308 -1.243,0.102 -1.177,0.123 -1.2426,0.205 -1.1986,0.226 -1.1764,0.327 -1.1541,0.308 -1.132,0.389 -1.1098,0.451 -1.1098,0.451 -1.0432,0.513 -1.021,0.594 -0.9766,0.615 -0.9544,0.635 -0.8657,0.677 -0.8656,0.717 -0.799,0.718 -0.7547,0.778 -0.6881,0.841 -0.688,0.799 -0.5993,0.882 -0.5105,0.901 -0.4883,0.902 -0.4661,0.902 -0.3552,0.964 -0.2885,0.942 -0.2664,0.984 -0.1997,0.943 -0.0888,1.005 L 81,292.99 v 0.964 l 0.0666,1.004 0.1332,0.984 0.1997,0.963 0.222,0.984 0.3329,0.943 0.3551,0.922 0.444,0.964 0.4883,0.881 0.5549,0.882 0.5993,0.86 0.688,0.841 0.6881,0.779 0.7768,0.779 0.8213,0.758 0.8434,0.738 0.91,0.656 0.9545,0.635 0.9766,0.574 1.0432,0.594 1.021,0.513 1.1098,0.471 z"
           id="path22" />
        <path
           style="fill:none;stroke:#805d00;stroke-width:0.02;stroke-opacity:1"
           d="m 103.529,274.113 -1.177,0.102 -1.22,0.123 -1.199,0.205 -1.1542,0.226 -1.1764,0.287 -1.1542,0.307 -1.1097,0.389 -1.0876,0.41 -1.0876,0.472 -0.9988,0.512 -1.0432,0.533 -0.9545,0.595 -0.9322,0.594 -0.8878,0.676 -0.8878,0.697 -0.7769,0.718 -0.7768,0.758 -0.6881,0.799 -0.6659,0.8 -0.5771,0.84 -0.5549,0.841 -0.5327,0.881 -0.4439,0.902 -0.3995,0.902 -0.3329,0.963 -0.2442,0.943 -0.2441,0.943 -0.1332,0.963 L 81,292.478 v 0.963 0.964 l 0.1332,0.963 0.1331,0.984 0.1998,0.922 0.2886,0.943 0.2885,0.943 0.3995,0.922 0.4883,0.902 0.4883,0.882 0.5549,0.881 0.6215,0.82 0.6437,0.799 0.6881,0.82 0.7546,0.718 0.8213,0.737 0.8656,0.697 0.8878,0.677 0.9544,0.574 0.9323,0.594 1.021,0.533 1.0432,0.512 1.0654,0.492"
           id="path23" />
        <path
           style="fill:#ffe9aa;fill-opacity:1;stroke:none"
           fill-rule="evenodd"
           d="m 195.131,324.474 -50.518,2.254 0.333,1.128 0.422,1.107 0.577,1.106 0.732,1.066 0.777,1.107 0.955,1.046 1.043,1.024 1.176,1.005 1.31,0.984 1.398,0.963 1.465,0.881 1.62,0.902 1.687,0.861 1.798,0.799 1.887,0.759 1.953,0.717 2.086,0.677 2.087,0.635 2.197,0.553 2.242,0.574 2.352,0.451 2.353,0.451 2.375,0.349 2.486,0.348 2.486,0.267 2.508,0.225 2.486,0.144 2.553,0.102 2.574,0.041 2.531,-0.02 2.574,-0.082 2.531,-0.144 2.508,-0.143 2.486,-0.267 2.486,-0.266 2.397,-0.369 2.397,-0.41 2.33,-0.472 2.309,-0.512 2.219,-0.533 2.131,-0.615 2.087,-0.656 2.019,-0.697 1.931,-0.738 1.843,-0.779 1.709,-0.86 1.664,-0.841 1.532,-0.922 1.465,-0.923 1.354,-0.942 1.198,-0.984 1.11,-1.025 1.021,-1.045 0.866,-1.066 z"
           id="path24" />
        <path
           style="fill:none;stroke:#805d00;stroke-width:0.02;stroke-opacity:1"
           d="m 144.657,326.749 0.289,1.127 0.444,1.087 0.555,1.127 0.732,1.107 0.821,1.066 0.911,1.025 1.065,1.024 1.154,1.025 1.31,0.964 1.398,0.963 1.465,0.881 1.62,0.902 1.731,0.861 1.754,0.799 1.887,0.759 1.953,0.717 2.086,0.677 2.087,0.635 2.197,0.553 2.242,0.574 2.308,0.451 2.353,0.451 2.397,0.349 2.486,0.328 2.464,0.287 2.508,0.205 2.508,0.164 2.53,0.102 2.553,0.041 2.552,-0.02 2.531,-0.082 2.53,-0.144 2.552,-0.143 2.486,-0.267 2.442,-0.287 2.441,-0.348 2.375,-0.39 2.331,-0.492 2.286,-0.492 2.197,-0.553 2.176,-0.615 2.086,-0.635 1.998,-0.697 1.931,-0.738 1.82,-0.779 1.775,-0.82 1.643,-0.881 1.554,-0.882 1.464,-0.963 1.31,-0.922 1.243,-1.025 1.11,-1.005 0.976,-1.045 0.91,-1.045"
           id="path25" />
      </g>
    </g>
    <g
       id="Hintergrund-1"
       transform="matrix(0.26458333,0,0,0.26458333,-131.76878,-22.099706)">
      <g
         id="g44">
        <path
           style="fill:#770000;fill-opacity:1;stroke:none"
           fill-rule="evenodd"
           d="M 724.99,313.425 744.982,293 v 96.665 l -19.992,20.44 z"
           id="path1-2" />
        <path
           style="fill:#770000;fill-opacity:1;stroke:none"
           fill-rule="evenodd"
           d="m 725.484,313.904 19.976,-20.425 v 96.695 l -19.976,20.425 z"
           id="path2-7" />
        <path
           style="fill:none;stroke:#aaaaaa;stroke-width:0.1;stroke-opacity:1"
           d="m 725.484,313.904 19.976,-20.425 v 96.695 l -19.976,20.425 v -96.695"
           id="path3-0" />
        <path
           style="fill:none;stroke:#aaaaaa;stroke-width:0.6;stroke-opacity:1"
           d="m 724.99,329.87 19.992,-20.41"
           id="path4-9" />
        <path
           style="fill:none;stroke:#aaaaaa;stroke-width:0.6;stroke-opacity:1"
           d="m 724.99,345.837 19.992,-20.366"
           id="path5-3" />
        <path
           style="fill:none;stroke:#aaaaaa;stroke-width:0.6;stroke-opacity:1"
           d="m 724.99,361.758 19.992,-20.381"
           id="path6-6" />
        <path
           style="fill:none;stroke:#aaaaaa;stroke-width:0.6;stroke-opacity:1"
           d="m 724.99,378.203 19.992,-21.308"
           id="path7-0" />
        <path
           style="fill:none;stroke:#aaaaaa;stroke-width:0.6;stroke-opacity:1"
           d="m 724.99,394.154 19.992,-19.901"
           id="path8-6" />
        <path
           style="fill:none;stroke:#aaaaaa;stroke-width:0.6;stroke-opacity:1"
           d="m 732.307,307.425 v 16.43"
           id="path9-2" />
        <path
           style="fill:none;stroke:#aaaaaa;stroke-width:0.6;stroke-opacity:1"
           d="m 737.664,317.406 v 16.415"
           id="path10-6" />
        <path
           style="fill:none;stroke:#aaaaaa;stroke-width:0.6;stroke-opacity:1"
           d="m 732.801,338.834 v 14.948"
           id="path11-1" />
        <path
           style="fill:none;stroke:#aaaaaa;stroke-width:0.6;stroke-opacity:1"
           d="m 738.158,349.293 v 14.44"
           id="path12-8" />
        <path
           style="fill:none;stroke:#aaaaaa;stroke-width:0.6;stroke-opacity:1"
           d="m 733.295,369.734 v 16.43"
           id="path13-7" />
        <path
           style="fill:none;stroke:#aaaaaa;stroke-width:0.6;stroke-opacity:1"
           d="m 738.652,380.208 v 16.415"
           id="path14-9" />
        <path
           style="fill:#aa0000;fill-opacity:1;stroke:none"
           fill-rule="evenodd"
           d="m 696.709,313.425 v 15.952 h 28.281 v -15.952 z"
           id="path15-2" />
        <path
           style="fill:#aa0000;fill-opacity:1;stroke:none"
           fill-rule="evenodd"
           d="m 697.188,313.904 v 15.966 h 28.296 v -15.966 z"
           id="path16-0" />
        <path
           style="fill:none;stroke:#c7c7c7;stroke-width:0.6;stroke-opacity:1"
           d="m 697.218,329.87 h 28.266 v -15.966 h -28.266"
           id="path17-2" />
        <path
           style="fill:#aa0000;fill-opacity:1;stroke:none"
           fill-rule="evenodd"
           d="m 696.709,329.377 v 15.936 h 28.281 v -15.936 z"
           id="path18-3" />
        <path
           style="fill:#aa0000;fill-opacity:1;stroke:none"
           fill-rule="evenodd"
           d="m 697.188,329.87 v 15.967 h 28.296 V 329.87 Z"
           id="path19-7" />
        <path
           style="fill:none;stroke:#c7c7c7;stroke-width:0.6;stroke-opacity:1"
           d="m 697.218,345.837 h 28.266 V 329.87 h -28.266"
           id="path20-5" />
        <path
           style="fill:#aa0000;fill-opacity:1;stroke:none"
           fill-rule="evenodd"
           d="m 696.709,345.313 v 15.966 h 28.281 v -15.966 z"
           id="path21-9" />
        <path
           style="fill:#aa0000;fill-opacity:1;stroke:none"
           fill-rule="evenodd"
           d="m 697.188,345.837 v 15.921 h 28.296 v -15.921 z"
           id="path22-2" />
        <path
           style="fill:none;stroke:#c7c7c7;stroke-width:0.6;stroke-opacity:1"
           d="m 697.218,361.758 h 28.266 v -15.921 h -28.266"
           id="path23-2" />
        <path
           style="fill:#aa0000;fill-opacity:1;stroke:none"
           fill-rule="evenodd"
           d="m 696.709,361.279 v 16.445 h 28.281 v -16.445 z"
           id="path24-8" />
        <path
           style="fill:#aa0000;fill-opacity:1;stroke:none"
           fill-rule="evenodd"
           d="m 697.188,361.758 v 16.445 h 28.296 v -16.445 z"
           id="path25-9" />
        <path
           style="fill:none;stroke:#c7c7c7;stroke-width:0.6;stroke-opacity:1"
           d="m 697.218,378.203 h 28.266 v -16.445 h -28.266"
           id="path26" />
        <path
           style="fill:#aa0000;fill-opacity:1;stroke:none"
           fill-rule="evenodd"
           d="M 696.709,377.724 V 393.66 H 724.99 V 377.724 Z"
           id="path27" />
        <path
           style="fill:#aa0000;fill-opacity:1;stroke:none"
           fill-rule="evenodd"
           d="m 697.188,378.203 v 15.951 h 28.296 v -15.951 z"
           id="path28" />
        <path
           style="fill:none;stroke:#c7c7c7;stroke-width:0.6;stroke-opacity:1"
           d="m 697.218,394.154 h 28.266 v -15.951 h -28.266"
           id="path29" />
        <path
           style="fill:#aa0000;fill-opacity:1;stroke:none"
           fill-rule="evenodd"
           d="m 696.709,393.66 v 15.937 H 724.99 V 393.66 Z"
           id="path30" />
        <path
           style="fill:#aa0000;fill-opacity:1;stroke:none"
           fill-rule="evenodd"
           d="m 697.188,394.154 v 15.951 h 28.296 v -15.951 z"
           id="path31" />
        <path
           style="fill:none;stroke:#c7c7c7;stroke-width:0.6;stroke-opacity:1"
           d="m 697.218,410.105 h 28.266 v -15.951 h -28.266"
           id="path32" />
        <path
           style="fill:none;stroke:#aaaaaa;stroke-width:0.6;stroke-opacity:1"
           d="m 706.45,313.904 v 15.951"
           id="path33" />
        <path
           style="fill:none;stroke:#aaaaaa;stroke-width:0.6;stroke-opacity:1"
           d="m 715.743,329.87 v 15.413"
           id="path34" />
        <path
           style="fill:none;stroke:#aaaaaa;stroke-width:0.6;stroke-opacity:1"
           d="m 706.45,346.301 v 15.442"
           id="path35" />
        <path
           style="fill:none;stroke:#aaaaaa;stroke-width:0.6;stroke-opacity:1"
           d="m 715.743,361.758 v 15.921"
           id="path36" />
        <path
           style="fill:none;stroke:#aaaaaa;stroke-width:0.6;stroke-opacity:1"
           d="m 706.45,378.203 v 15.936"
           id="path37" />
        <path
           style="fill:none;stroke:#aaaaaa;stroke-width:0.6;stroke-opacity:1"
           d="m 715.743,394.154 v 15.428"
           id="path38" />
        <path
           style="fill:#ff555d;fill-opacity:1;stroke:none"
           fill-rule="evenodd"
           d="M 696.709,313.425 717.179,293 h 27.803 l -20.486,20.425 z"
           id="path39" />
        <path
           style="fill:#ff555d;fill-opacity:1;stroke:none"
           fill-rule="evenodd"
           d="m 697.188,313.904 20.485,-20.425 h 27.787 l -20.47,20.425 z"
           id="path40" />
        <path
           style="fill:none;stroke:#e2e2e2;stroke-width:0.6;stroke-opacity:1"
           d="m 697.218,313.904 20.455,-20.425 h 27.787 l -20.47,20.425 h -27.772"
           id="path41" />
        <path
           style="fill:none;stroke:#e2e2e2;stroke-width:0.6;stroke-opacity:1"
           d="m 732.756,307.934 h -20.44"
           id="path42" />
        <path
           style="fill:none;stroke:#e2e2e2;stroke-width:0.6;stroke-opacity:1"
           d="M 706.45,313.395 727.235,293"
           id="path43" />
        <path
           style="fill:none;stroke:#e2e2e2;stroke-width:0.6;stroke-opacity:1"
           d="m 708.904,301.948 h 10.22"
           id="path44" />
      </g>
    </g>
    <g
       id="g2512"
       transform="translate(25.898348,-143.09047)">
      <circle
         r="7.9375"
         cy="216.30208"
         cx="46.302082"
         id="path1471"
         style="fill:#d5e5ff;fill-opacity:1;stroke:#000000;stroke-width:0.265;stroke-miterlimit:4;stroke-dasharray:none;stroke-dashoffset:0;stroke-opacity:1" />
      <path
         inkscape:connector-curvature="0"
         id="path1600"
         d="m 46.27753,213.92082 v -3.96875"
         style="fill:none;stroke:#000000;stroke-width:0.264583px;stroke-linecap:butt;stroke-linejoin:miter;stroke-opacity:1;marker-end:url(#marker1604)" />
      <path
         style="fill:none;stroke:#000000;stroke-width:0.264583px;stroke-linecap:butt;stroke-linejoin:miter;stroke-opacity:1;marker-end:url(#marker1802)"
         d="m 46.27753,218.54788 v 3.96875"
         id="path1798"
         inkscape:connector-curvature="0" />
      <path
         inkscape:connector-curvature="0"
         id="path1955"
         d="M 52.90692,216.30143 H 48.93817"
         style="fill:none;stroke:#000000;stroke-width:0.264583px;stroke-linecap:butt;stroke-linejoin:miter;stroke-opacity:1;marker-end:url(#marker1959)" />
      <path
         style="fill:none;stroke:#000000;stroke-width:0.264583px;stroke-linecap:butt;stroke-linejoin:miter;stroke-opacity:1;marker-end:url(#marker2343)"
         d="M 39.70235,216.30143 H 43.6711"
         id="path2339"
         inkscape:connector-curvature="0" />
    </g>
    <g
       id="Hintergrund-7"
       transform="matrix(0.16272808,0,0,0.16272808,25.482736,14.932667)">
      <g
         id="g16">
        <path
           style="fill:#b7b79d;fill-opacity:1;stroke:none"
           fill-rule="evenodd"
           d="m 424.58,128.737 v 83.74 h 49.495 v -83.74 z"
           id="path1-3" />
        <path
           style="fill:none;stroke:#494936;stroke-width:0.02;stroke-opacity:1"
           d="m 424.58,128.737 v 83.74 h 49.495 v -83.74 H 424.58"
           id="path2-6" />
        <path
           style="fill:#c9c9b6;fill-opacity:1;stroke:none"
           fill-rule="evenodd"
           d="M 424.58,128.737 431.287,122 h 49.48 l -6.692,6.737 z"
           id="path3-1" />
        <path
           style="fill:none;stroke:#494936;stroke-width:0.02;stroke-opacity:1"
           d="M 424.58,128.737 431.287,122 h 49.155"
           id="path4-2" />
        <path
           style="fill:none;stroke:#494936;stroke-width:0.02;stroke-opacity:1"
           d="m 480.442,122.341 -6.367,6.396 H 424.58"
           id="path5-9" />
        <path
           style="fill:#c9c9b6;fill-opacity:1;stroke:none"
           fill-rule="evenodd"
           d="m 427.63,133.608 h 22.608 v 10.985 H 427.63 Z"
           id="path6-3" />
        <path
           style="fill:none;stroke:#626248;stroke-width:0.02;stroke-opacity:1"
           d="m 427.63,133.608 h 22.593 v 10.971 H 427.63 v -10.971"
           id="path7-1" />
        <path
           style="fill:none;stroke:#ecece7;stroke-width:0.6;stroke-opacity:1"
           d="m 430.68,139.115 h 15.857"
           id="path8-9" />
        <path
           style="fill:#7a7a5a;fill-opacity:1;stroke:none"
           fill-rule="evenodd"
           d="m 474.075,212.477 6.692,-6.751 V 122 l -6.692,6.737 z"
           id="path9-4" />
        <path
           style="fill:none;stroke:#494936;stroke-width:0.02;stroke-opacity:1"
           d="m 474.075,212.477 6.367,-6.41"
           id="path10-7" />
        <path
           style="fill:none;stroke:#494936;stroke-width:0.02;stroke-opacity:1"
           d="m 480.442,122.341 -6.367,6.396 v 83.74"
           id="path11-8" />
        <path
           style="fill:none;stroke:#ecece7;stroke-width:0.6;stroke-opacity:1"
           d="M 425.202,206.955 H 474.06"
           id="path12-4" />
        <path
           style="fill:none;stroke:#000000;stroke-width:0.6;stroke-opacity:1"
           d="M 425.202,162.345 H 474.06"
           id="path13-5" />
        <path
           style="fill:none;stroke:#494936;stroke-width:0.6;stroke-opacity:1"
           d="m 424.58,206.348 h 49.436"
           id="path14-0" />
        <path
           style="fill:none;stroke:#000000;stroke-width:0.6;stroke-opacity:1"
           d="m 424.58,161.724 h 49.436"
           id="path15-3" />
        <path
           style="fill:none;stroke:#ecece7;stroke-width:0.02;stroke-opacity:1"
           d="m 427.63,144.001 v -10.393 h 21.986"
           id="path16-6" />
      </g>
    </g>
    <text
       xml:space="preserve"
       style="font-size:4.93889px;line-height:0;font-family:sans-serif;-inkscape-font-specification:sans-serif;letter-spacing:0px;word-spacing:0px;stroke-width:0.264583"
       x="23.947151"
       y="74.124954"
       id="text1"><tspan
         sodipodi:role="line"
         id="tspan1"
         style="font-size:4.93889px;stroke-width:0.264583"
         x="23.947151"
         y="74.124954">Internet</tspan></text>
    <g
       id="g45"
       transform="translate(3.7041668,6.3500001)">
      <rect
         y="105.53754"
         x="68.404892"
         height="10"
         width="14"
         id="rect1"
         style="fill:#f9f9f9;fill-opacity:1;stroke:#000000;stroke-width:0.665;stroke-miterlimit:4;stroke-dasharray:none;stroke-opacity:1" />
      <rect
         ry="1.999994"
         style="fill:#e3dbdb;fill-opacity:1;stroke:#000000;stroke-width:0.465;stroke-miterlimit:4;stroke-dasharray:none;stroke-opacity:1"
         id="rect2"
         width="11"
         height="7.9999938"
         x="69.992393"
         y="106.53754" />
      <path
         inkscape:connector-curvature="0"
         id="path45"
         d="m 67.992391,117.4792 h 15 l 4,5 h -23 l 4,-5"
         style="fill:#ffe6d5;stroke:#000000;stroke-width:0.264583px;stroke-linecap:butt;stroke-linejoin:miter;stroke-opacity:1" />
    </g>
    <g
       id="g46"
       transform="translate(117.08409,-56.520789)">
      <rect
         y="161"
         x="7.4125004"
         height="10"
         width="14"
         id="rect45"
         style="fill:none;fill-opacity:1;stroke:#000000;stroke-width:0.665;stroke-miterlimit:4;stroke-dasharray:none;stroke-opacity:1" />
      <rect
         ry="1.999994"
         style="fill:#e3dbdb;fill-opacity:1;stroke:#000000;stroke-width:0.465;stroke-miterlimit:4;stroke-dasharray:none;stroke-opacity:1"
         id="rect46"
         width="11"
         height="7.9999938"
         x="9"
         y="162" />
      <path
         inkscape:connector-curvature="0"
         id="path46"
         d="M 6.9999999,172.94165 H 22 l 4,5 H 3 l 3.9999999,-5"
         style="fill:#ffe6d5;stroke:#000000;stroke-width:0.264583px;stroke-linecap:butt;stroke-linejoin:miter;stroke-opacity:1" />
    </g>
    <g
       id="g48"
       transform="translate(51.329171,6.3500001)">
      <rect
         y="105.53754"
         x="68.404892"
         height="10"
         width="14"
         id="rect47"
         style="fill:#f9f9f9;fill-opacity:1;stroke:#000000;stroke-width:0.665;stroke-miterlimit:4;stroke-dasharray:none;stroke-opacity:1" />
      <rect
         ry="1.999994"
         style="fill:#e3dbdb;fill-opacity:1;stroke:#000000;stroke-width:0.465;stroke-miterlimit:4;stroke-dasharray:none;stroke-opacity:1"
         id="rect48"
         width="11"
         height="7.9999938"
         x="69.992393"
         y="106.53754" />
      <path
         inkscape:connector-curvature="0"
         id="path48"
         d="m 67.992391,117.4792 h 15 l 4,5 h -23 l 4,-5"
         style="fill:#ffe6d5;stroke:#000000;stroke-width:0.264583px;stroke-linecap:butt;stroke-linejoin:miter;stroke-opacity:1" />
    </g>
    <path
       style="fill:none;stroke:#000000;stroke-width:0.264583px;stroke-linecap:butt;stroke-linejoin:miter;stroke-opacity:1"
       d="M 80.018608,72.987354 H 104.60393"
       id="path49" />
    <g
       id="g66"
       transform="matrix(0.16272808,0,0,0.16272808,36.06607,14.932667)">
      <g
         id="g65">
        <path
           style="fill:#b7b79d;fill-opacity:1;stroke:none"
           fill-rule="evenodd"
           d="m 424.58,128.737 v 83.74 h 49.495 v -83.74 z"
           id="path50" />
        <path
           style="fill:none;stroke:#494936;stroke-width:0.02;stroke-opacity:1"
           d="m 424.58,128.737 v 83.74 h 49.495 v -83.74 H 424.58"
           id="path51" />
        <path
           style="fill:#c9c9b6;fill-opacity:1;stroke:none"
           fill-rule="evenodd"
           d="M 424.58,128.737 431.287,122 h 49.48 l -6.692,6.737 z"
           id="path52" />
        <path
           style="fill:none;stroke:#494936;stroke-width:0.02;stroke-opacity:1"
           d="M 424.58,128.737 431.287,122 h 49.155"
           id="path53" />
        <path
           style="fill:none;stroke:#494936;stroke-width:0.02;stroke-opacity:1"
           d="m 480.442,122.341 -6.367,6.396 H 424.58"
           id="path54" />
        <path
           style="fill:#c9c9b6;fill-opacity:1;stroke:none"
           fill-rule="evenodd"
           d="m 427.63,133.608 h 22.608 v 10.985 H 427.63 Z"
           id="path55" />
        <path
           style="fill:none;stroke:#626248;stroke-width:0.02;stroke-opacity:1"
           d="m 427.63,133.608 h 22.593 v 10.971 H 427.63 v -10.971"
           id="path56" />
        <path
           style="fill:none;stroke:#ecece7;stroke-width:0.6;stroke-opacity:1"
           d="m 430.68,139.115 h 15.857"
           id="path57" />
        <path
           style="fill:#7a7a5a;fill-opacity:1;stroke:none"
           fill-rule="evenodd"
           d="m 474.075,212.477 6.692,-6.751 V 122 l -6.692,6.737 z"
           id="path58" />
        <path
           style="fill:none;stroke:#494936;stroke-width:0.02;stroke-opacity:1"
           d="m 474.075,212.477 6.367,-6.41"
           id="path59" />
        <path
           style="fill:none;stroke:#494936;stroke-width:0.02;stroke-opacity:1"
           d="m 480.442,122.341 -6.367,6.396 v 83.74"
           id="path60" />
        <path
           style="fill:none;stroke:#ecece7;stroke-width:0.6;stroke-opacity:1"
           d="M 425.202,206.955 H 474.06"
           id="path61" />
        <path
           style="fill:none;stroke:#000000;stroke-width:0.6;stroke-opacity:1"
           d="M 425.202,162.345 H 474.06"
           id="path62" />
        <path
           style="fill:none;stroke:#494936;stroke-width:0.6;stroke-opacity:1"
           d="m 424.58,206.348 h 49.436"
           id="path63" />
        <path
           style="fill:none;stroke:#000000;stroke-width:0.6;stroke-opacity:1"
           d="m 424.58,161.724 h 49.436"
           id="path64" />
        <path
           style="fill:none;stroke:#ecece7;stroke-width:0.02;stroke-opacity:1"
           d="m 427.63,144.001 v -10.393 h 21.986"
           id="path65" />
      </g>
    </g>
    <g
       id="g82"
       transform="matrix(0.16272808,0,0,0.16272808,46.649404,14.932667)">
      <g
         id="g81">
        <path
           style="fill:#b7b79d;fill-opacity:1;stroke:none"
           fill-rule="evenodd"
           d="m 424.58,128.737 v 83.74 h 49.495 v -83.74 z"
           id="path66" />
        <path
           style="fill:none;stroke:#494936;stroke-width:0.02;stroke-opacity:1"
           d="m 424.58,128.737 v 83.74 h 49.495 v -83.74 H 424.58"
           id="path67" />
        <path
           style="fill:#c9c9b6;fill-opacity:1;stroke:none"
           fill-rule="evenodd"
           d="M 424.58,128.737 431.287,122 h 49.48 l -6.692,6.737 z"
           id="path68" />
        <path
           style="fill:none;stroke:#494936;stroke-width:0.02;stroke-opacity:1"
           d="M 424.58,128.737 431.287,122 h 49.155"
           id="path69" />
        <path
           style="fill:none;stroke:#494936;stroke-width:0.02;stroke-opacity:1"
           d="m 480.442,122.341 -6.367,6.396 H 424.58"
           id="path70" />
        <path
           style="fill:#c9c9b6;fill-opacity:1;stroke:none"
           fill-rule="evenodd"
           d="m 427.63,133.608 h 22.608 v 10.985 H 427.63 Z"
           id="path71" />
        <path
           style="fill:none;stroke:#626248;stroke-width:0.02;stroke-opacity:1"
           d="m 427.63,133.608 h 22.593 v 10.971 H 427.63 v -10.971"
           id="path72" />
        <path
           style="fill:none;stroke:#ecece7;stroke-width:0.6;stroke-opacity:1"
           d="m 430.68,139.115 h 15.857"
           id="path73" />
        <path
           style="fill:#7a7a5a;fill-opacity:1;stroke:none"
           fill-rule="evenodd"
           d="m 474.075,212.477 6.692,-6.751 V 122 l -6.692,6.737 z"
           id="path74" />
        <path
           style="fill:none;stroke:#494936;stroke-width:0.02;stroke-opacity:1"
           d="m 474.075,212.477 6.367,-6.41"
           id="path75" />
        <path
           style="fill:none;stroke:#494936;stroke-width:0.02;stroke-opacity:1"
           d="m 480.442,122.341 -6.367,6.396 v 83.74"
           id="path76" />
        <path
           style="fill:none;stroke:#ecece7;stroke-width:0.6;stroke-opacity:1"
           d="M 425.202,206.955 H 474.06"
           id="path77" />
        <path
           style="fill:none;stroke:#000000;stroke-width:0.6;stroke-opacity:1"
           d="M 425.202,162.345 H 474.06"
           id="path78" />
        <path
           style="fill:none;stroke:#494936;stroke-width:0.6;stroke-opacity:1"
           d="m 424.58,206.348 h 49.436"
           id="path79" />
        <path
           style="fill:none;stroke:#000000;stroke-width:0.6;stroke-opacity:1"
           d="m 424.58,161.724 h 49.436"
           id="path80" />
        <path
           style="fill:none;stroke:#ecece7;stroke-width:0.02;stroke-opacity:1"
           d="m 427.63,144.001 v -10.393 h 21.986"
           id="path81" />
      </g>
    </g>
    <path
       style="fill:none;stroke:#000000;stroke-width:0.264583px;stroke-linecap:butt;stroke-linejoin:miter;stroke-opacity:1"
       d="m 98.994273,49.578918 v 11.088339 h 8.770887 v 5.547084"
       id="path82" />
    <path
       style="fill:none;stroke:#000000;stroke-width:0.264583px;stroke-linecap:butt;stroke-linejoin:miter;stroke-opacity:1"
       d="m 109.42174,49.564771 v 6.981127 h 3.21148 v 9.941046"
       id="path83" />
    <path
       style="fill:none;stroke:#000000;stroke-width:0.264583px;stroke-linecap:butt;stroke-linejoin:miter;stroke-opacity:1"
       d="m 120.16002,49.598201 v 11.00151 h -4.22699 v 5.87657"
       id="path84" />
    <text
       xml:space="preserve"
       style="font-size:3.52777px;line-height:0;font-family:sans-serif;-inkscape-font-specification:sans-serif;letter-spacing:0px;word-spacing:0px;stroke-width:0.264583"
       x="51.173401"
       y="45.914764"
       id="text84"><tspan
         sodipodi:role="line"
         id="tspan84"
         style="stroke-width:0.264583"
         x="51.173401"
         y="45.914764">Virtualisierungs-Cluster</tspan></text>
    <path
       style="fill:none;stroke:#000000;stroke-width:0.264583px;stroke-linecap:butt;stroke-linejoin:miter;stroke-opacity:1"
       d="M 83.65933,104.22657 V 94.066666 h 23.92676 V 79.598374"
       id="path85" />
    <path
       style="fill:none;stroke:#000000;stroke-width:0.264583px;stroke-linecap:butt;stroke-linejoin:miter;stroke-opacity:1"
       d="M 131.79463,104.09383 V 93.815489 H 115.38497 V 79.503087"
       id="path86" />
    <text
       xml:space="preserve"
       style="font-size:3.52777px;line-height:0;font-family:sans-serif;-inkscape-font-specification:sans-serif;letter-spacing:0px;word-spacing:0px;stroke-width:0.264583"
       x="72.11042"
       y="133.8278"
       id="text86"><tspan
         sodipodi:role="line"
         id="tspan86"
         style="stroke-width:0.264583"
         x="72.11042"
         y="133.8278">10 PCs</tspan></text>
    <text
       xml:space="preserve"
       style="font-size:3.52777px;line-height:0;font-family:sans-serif;-inkscape-font-specification:sans-serif;letter-spacing:0px;word-spacing:0px;stroke-width:0.264583"
       x="120.79372"
       y="133.82788"
       id="text87"><tspan
         sodipodi:role="line"
         id="tspan87"
         style="stroke-width:0.264583"
         x="120.79372"
         y="133.82788">20 PCs</tspan></text>
    <text
       xml:space="preserve"
       style="font-size:3.52777px;line-height:0;font-family:sans-serif;-inkscape-font-specification:sans-serif;letter-spacing:0px;word-spacing:0px;stroke-width:0.264583"
       x="72.848068"
       y="18.517"
       id="text88"><tspan
         sodipodi:role="line"
         style="stroke-width:0.264583"
         x="72.848068"
         y="18.517"
         id="tspan89">Domain-</tspan></text>
    <text
       xml:space="preserve"
       style="font-size:3.52777px;line-height:0;font-family:sans-serif;-inkscape-font-specification:sans-serif;letter-spacing:0px;word-spacing:0px;stroke-width:0.264583"
       x="72.062614"
       y="23.327248"
       id="text90"><tspan
         sodipodi:role="line"
         id="tspan90"
         style="stroke-width:0.264583"
         x="72.062614"
         y="23.327248">Controler</tspan></text>
    <rect
       style="fill:#ffeeaa;fill-opacity:1;stroke:#000080;stroke-width:0.264999;stroke-linecap:square;stroke-opacity:0.721569;paint-order:stroke fill markers"
       id="rect91"
       width="19.926046"
       height="11.705762"
       x="96.28756"
       y="13.912352" />
    <text
       xml:space="preserve"
       style="font-size:3.52777px;line-height:0;font-family:sans-serif;-inkscape-font-specification:sans-serif;letter-spacing:0px;word-spacing:0px;stroke-width:0.264583"
       x="100.89389"
       y="18.517"
       id="text91"><tspan
         sodipodi:role="line"
         style="stroke-width:0.264583"
         x="100.89389"
         y="18.517"
         id="tspan91">Datei-</tspan></text>
    <text
       xml:space="preserve"
       style="font-size:3.52777px;line-height:0;font-family:sans-serif;-inkscape-font-specification:sans-serif;letter-spacing:0px;word-spacing:0px;stroke-width:0.264583"
       x="100.6376"
       y="23.327248"
       id="text92"><tspan
         sodipodi:role="line"
         id="tspan92"
         style="stroke-width:0.264583"
         x="100.6376"
         y="23.327248">Server</tspan></text>
    <rect
       style="fill:#ffeeaa;fill-opacity:1;stroke:#000080;stroke-width:0.264999;stroke-linecap:square;stroke-opacity:0.721569;paint-order:stroke fill markers"
       id="rect92"
       width="19.926046"
       height="11.705762"
       x="122.74588"
       y="13.912352" />
    <text
       xml:space="preserve"
       style="font-size:3.52777px;line-height:0;font-family:sans-serif;-inkscape-font-specification:sans-serif;letter-spacing:0px;word-spacing:0px;stroke-width:0.264583"
       x="126.82304"
       y="18.517"
       id="text93"><tspan
         sodipodi:role="line"
         style="stroke-width:0.264583"
         x="126.82304"
         y="18.517"
         id="tspan93">E-Mail-</tspan></text>
    <text
       xml:space="preserve"
       style="font-size:3.52777px;line-height:0;font-family:sans-serif;-inkscape-font-specification:sans-serif;letter-spacing:0px;word-spacing:0px;stroke-width:0.264583"
       x="126.56676"
       y="23.327248"
       id="text94"><tspan
         sodipodi:role="line"
         id="tspan94"
         style="stroke-width:0.264583"
         x="126.56676"
         y="23.327248">Server</tspan></text>
    <text
       xml:space="preserve"
       style="font-size:3.52777px;line-height:0;font-family:sans-serif;-inkscape-font-specification:sans-serif;letter-spacing:0px;word-spacing:0px;stroke-width:0.264583"
       x="89.868393"
       y="12.193982"
       id="text95"><tspan
         sodipodi:role="line"
         id="tspan95"
         style="stroke-width:0.264583"
         x="89.868393"
         y="12.193982">Virtuelle Maschinen</tspan></text>
    <text
       xml:space="preserve"
       style="font-size:3.52777px;line-height:0;font-family:sans-serif;-inkscape-font-specification:sans-serif;letter-spacing:0px;word-spacing:0px;stroke-width:0.264583"
       x="72.11042"
       y="139.11948"
       id="text96"><tspan
         sodipodi:role="line"
         id="tspan96"
         style="stroke-width:0.264583"
         x="72.11042"
         y="139.11948">Vertrieb</tspan></text>
    <text
       xml:space="preserve"
       style="font-size:3.52777px;line-height:0;font-family:sans-serif;-inkscape-font-specification:sans-serif;letter-spacing:0px;word-spacing:0px;stroke-width:0.264583"
       x="117.36031"
       y="138.55774"
       id="text97"><tspan
         sodipodi:role="line"
         id="tspan97"
         style="stroke-width:0.264583"
         x="117.36031"
         y="138.55774">Entwicklung</tspan></text>
  </g>
</svg>
