<?xml version="1.0" encoding="UTF-8" standalone="no"?>
<!-- Created with Inkscape (http://www.inkscape.org/) -->

<svg
   width="124.76203mm"
   height="53.512501mm"
   viewBox="0 0 135.159 57.971933"
   version="1.1"
   id="svg1"
   xml:space="preserve"
   sodipodi:docname="lf11-50-vlan-dhcp-trunk-port.svg"
   inkscape:version="1.2.2 (b0a8486541, 2022-12-01)"
   xmlns:inkscape="http://www.inkscape.org/namespaces/inkscape"
   xmlns:sodipodi="http://sodipodi.sourceforge.net/DTD/sodipodi-0.dtd"
   xmlns="http://www.w3.org/2000/svg"
   xmlns:svg="http://www.w3.org/2000/svg"
   xmlns:rdf="http://www.w3.org/1999/02/22-rdf-syntax-ns#"
   xmlns:cc="http://creativecommons.org/ns#"
   xmlns:dc="http://purl.org/dc/elements/1.1/"><sodipodi:namedview
     id="namedview1"
     pagecolor="#ffffff"
     bordercolor="#000000"
     borderopacity="0.25"
     inkscape:showpageshadow="2"
     inkscape:pageopacity="0.0"
     inkscape:pagecheckerboard="0"
     inkscape:deskcolor="#d1d1d1"
     inkscape:document-units="mm"
     inkscape:zoom="1.3081161"
     inkscape:cx="235.45311"
     inkscape:cy="100.52625"
     inkscape:window-width="1374"
     inkscape:window-height="831"
     inkscape:window-x="0"
     inkscape:window-y="0"
     inkscape:window-maximized="1"
     inkscape:current-layer="layer2"
     showgrid="false" /><defs
     id="defs1"><marker
       inkscape:stockid="Arrow2Mend"
       orient="auto"
       refY="0"
       refX="0"
       id="marker2343"
       style="overflow:visible"
       inkscape:isstock="true"><path
         id="path2341"
         style="fill:#000000;fill-opacity:1;fill-rule:evenodd;stroke:#000000;stroke-width:0.625;stroke-linejoin:round;stroke-opacity:1"
         d="M 8.7185878,4.0337352 -2.2072895,0.01601326 8.7185884,-4.0017078 c -1.7454984,2.3720609 -1.7354408,5.6174519 -6e-7,8.035443 z"
         transform="scale(-0.6)"
         inkscape:connector-curvature="0" /></marker><marker
       inkscape:stockid="Arrow2Mend"
       orient="auto"
       refY="0"
       refX="0"
       id="marker2343-9"
       style="overflow:visible"
       inkscape:isstock="true"><path
         id="path2341-1"
         style="fill:#000000;fill-opacity:1;fill-rule:evenodd;stroke:#000000;stroke-width:0.625;stroke-linejoin:round;stroke-opacity:1"
         d="M 8.7185878,4.0337352 -2.2072895,0.01601326 8.7185884,-4.0017078 c -1.7454984,2.3720609 -1.7354408,5.6174519 -6e-7,8.035443 z"
         transform="scale(-0.6)"
         inkscape:connector-curvature="0" /></marker></defs><g
     inkscape:groupmode="layer"
     id="layer2"
     inkscape:label="svg-routing"
     style="display:inline"
     transform="translate(-23.507521,-20.794692)"><rect
       style="fill:#f4d7d7;stroke:#501616;stroke-width:0.498678;stroke-dasharray:none"
       id="rect1458"
       width="69.115532"
       height="16.487524"
       x="27.418369"
       y="26.206484"
       ry="1.4986721" /><text
       id="text49"
       y="121.67362"
       x="113.01019"
       style="font-style:normal;font-weight:normal;font-size:2.25179px;line-height:1.25;font-family:sans-serif;text-align:start;letter-spacing:0px;word-spacing:0px;text-anchor:start;fill:#000000;fill-opacity:1;stroke:none;stroke-width:0.140737"
       xml:space="preserve"><tspan
         style="stroke-width:0.140737"
         y="121.67362"
         x="113.01019"
         id="tspan49"
         sodipodi:role="line" /></text><g
       id="g70"
       transform="matrix(0.66555643,0,0,0.66555643,-51.97014,30.244165)"><g
         id="g71"
         transform="translate(0.02801832,0.15326099)"><rect
           style="opacity:1;fill:#ffaaaa;fill-opacity:1;stroke:#aa0000;stroke-width:0.465;stroke-dasharray:none"
           id="rect69"
           width="29.406809"
           height="6.4786258"
           x="119.62737"
           y="58.321133"
           ry="0.60052669" /><text
           xml:space="preserve"
           style="font-size:4.23333px;line-height:1.6;font-family:sans-serif;-inkscape-font-specification:sans-serif;text-align:start;text-anchor:start;opacity:1;fill:none;fill-opacity:1;stroke:#000000;stroke-width:0.465;stroke-dasharray:none"
           x="121.72038"
           y="63.218636"
           id="text69"><tspan
             sodipodi:role="line"
             id="tspan69"
             style="text-align:start;text-anchor:start;fill:#000000;fill-opacity:1;stroke:none;stroke-width:0.465"
             x="121.72038"
             y="63.218636">DHCP-Server</tspan></text></g></g><g
       id="g5"
       transform="matrix(0.63806457,0,0,0.63806457,-25.583908,-5.7411042)"
       style="display:inline"><rect
         style="fill:#e3dbdb;fill-opacity:1;stroke:#000000;stroke-width:0.373955;stroke-miterlimit:4;stroke-dasharray:none;stroke-dashoffset:0;stroke-opacity:0.984615"
         id="rect3340"
         width="9.2780437"
         height="14.124784"
         x="94.383049"
         y="101.36189"
         ry="0" /><path
         style="fill:none;stroke:#000000;stroke-width:0.264999"
         d="m 95.837138,104.88156 h 6.035642"
         id="path1-7" /><path
         style="fill:none;stroke:#000000;stroke-width:0.264999"
         d="m 95.837138,106.46907 h 6.035642"
         id="path2-9" /><path
         style="fill:none;stroke:#000000;stroke-width:0.264999"
         d="m 95.837138,108.05658 h 6.035642"
         id="path3-2" /><path
         style="fill:none;stroke:#000000;stroke-width:0.264999"
         d="m 95.837138,109.64409 h 6.035642"
         id="path4-0" /><path
         style="fill:none;stroke:#000000;stroke-width:0.264999"
         id="path5-2"
         sodipodi:type="arc"
         sodipodi:cx="101.77797"
         sodipodi:cy="102.79063"
         sodipodi:rx="0.78190351"
         sodipodi:ry="0.78190351"
         sodipodi:start="0"
         sodipodi:end="6.2825569"
         sodipodi:open="true"
         sodipodi:arc-type="arc"
         d="m 102.55987,102.79063 a 0.78190351,0.78190351 0 0 1 -0.78178,0.7819 0.78190351,0.78190351 0 0 1 -0.78202,-0.78166 0.78190351,0.78190351 0 0 1 0.78153,-0.78215 0.78190351,0.78190351 0 0 1 0.78227,0.78142" /></g><g
       transform="matrix(0.06355613,0,0,0.06355613,46.533831,26.60894)"
       stroke-linecap="square"
       id="g25"><path
         d="m 64.41,69.931 h 108.85 a 4.5139,4.5139 0 0 1 4.5139,4.5139 v 81.597 a 4.5139,4.5139 0 0 1 -4.5139,4.5139 H 64.41 a 4.5139,4.5139 0 0 1 -4.5139,-4.5139 V 74.4449 A 4.5139,4.5139 0 0 1 64.41,69.931"
         fill="#ffffff"
         stroke="#0a0a0a"
         stroke-width="4"
         id="path14" /><path
         d="m 73.958,75.66 h 89.41 c 2.3083,0 4.1667,1.8583 4.1667,4.1667 l 2.8e-4,52.653 h -21.742 v 9.414 h -8.694 l 4e-5,12.586 h -36.871 l -4e-5,-12.586 h -8.694 v -9.414 h -21.742 l -3.4e-4,-52.653 c -1.1e-5,-2.3083 1.8583,-4.1667 4.1667,-4.1667 z"
         fill="#dcdcdc"
         stroke="#0a0a0a"
         stroke-width="2.5"
         id="path15-3" /><g
         transform="translate(-0.36789)"
         fill="#666666"
         stroke="#191919"
         id="g23"><path
           d="m 80.556,75.747 h 3.9062 V 98.533 H 80.556 Z"
           id="path16" /><path
           d="m 153.6,75.747 h 3.9062 V 98.533 H 153.6 Z"
           id="path17" /><path
           d="m 132.73,75.747 h 3.9062 V 98.533 H 132.73 Z"
           id="path18" /><path
           d="m 122.3,75.747 h 3.9062 V 98.533 H 122.3 Z"
           id="path19" /><path
           d="m 111.86,75.747 h 3.9062 V 98.533 H 111.86 Z"
           id="path20" /><path
           d="m 101.43,75.747 h 3.9062 V 98.533 H 101.43 Z"
           id="path21" /><path
           d="m 90.991,75.747 h 3.9062 V 98.533 H 90.991 Z"
           id="path22" /><path
           d="m 143.17,75.747 h 3.9062 V 98.533 H 143.17 Z"
           id="path23" /></g><path
         d="m 69.542,137.03 h 17.101 v 13.889 H 69.542 Z"
         fill="#1dfe0a"
         stroke="#0a0a0a"
         stroke-width="2"
         id="path24" /><path
         d="m 150.68,137.03 h 17.101 v 13.889 H 150.68 Z"
         fill="#ffd10a"
         stroke="#0a0a0a"
         stroke-width="2"
         id="path25" /></g><g
       transform="matrix(0.06355613,0,0,0.06355613,57.574985,26.60894)"
       stroke-linecap="square"
       id="g1348"><path
         d="m 64.41,69.931 h 108.85 a 4.5139,4.5139 0 0 1 4.5139,4.5139 v 81.597 a 4.5139,4.5139 0 0 1 -4.5139,4.5139 H 64.41 a 4.5139,4.5139 0 0 1 -4.5139,-4.5139 V 74.4449 A 4.5139,4.5139 0 0 1 64.41,69.931"
         fill="#ffffff"
         stroke="#0a0a0a"
         stroke-width="4"
         id="path1322" /><path
         d="m 73.958,75.66 h 89.41 c 2.3083,0 4.1667,1.8583 4.1667,4.1667 l 2.8e-4,52.653 h -21.742 v 9.414 h -8.694 l 4e-5,12.586 h -36.871 l -4e-5,-12.586 h -8.694 v -9.414 h -21.742 l -3.4e-4,-52.653 c -1.1e-5,-2.3083 1.8583,-4.1667 4.1667,-4.1667 z"
         fill="#dcdcdc"
         stroke="#0a0a0a"
         stroke-width="2.5"
         id="path1324" /><g
         transform="translate(-0.36789)"
         fill="#666666"
         stroke="#191919"
         id="g1342"><path
           d="m 80.556,75.747 h 3.9062 V 98.533 H 80.556 Z"
           id="path1326" /><path
           d="m 153.6,75.747 h 3.9062 V 98.533 H 153.6 Z"
           id="path1328" /><path
           d="m 132.73,75.747 h 3.9062 V 98.533 H 132.73 Z"
           id="path1330" /><path
           d="m 122.3,75.747 h 3.9062 V 98.533 H 122.3 Z"
           id="path1332" /><path
           d="m 111.86,75.747 h 3.9062 V 98.533 H 111.86 Z"
           id="path1334" /><path
           d="m 101.43,75.747 h 3.9062 V 98.533 H 101.43 Z"
           id="path1336" /><path
           d="m 90.991,75.747 h 3.9062 V 98.533 H 90.991 Z"
           id="path1338" /><path
           d="m 143.17,75.747 h 3.9062 V 98.533 H 143.17 Z"
           id="path1340" /></g><path
         d="m 69.542,137.03 h 17.101 v 13.889 H 69.542 Z"
         fill="#1dfe0a"
         stroke="#0a0a0a"
         stroke-width="2"
         id="path1344" /><path
         d="m 150.68,137.03 h 17.101 v 13.889 H 150.68 Z"
         fill="#ffd10a"
         stroke="#0a0a0a"
         stroke-width="2"
         id="path1346" /></g><g
       transform="matrix(0.06355613,0,0,0.06355613,68.616139,26.60894)"
       stroke-linecap="square"
       id="g1376"><path
         d="m 64.41,69.931 h 108.85 a 4.5139,4.5139 0 0 1 4.5139,4.5139 v 81.597 a 4.5139,4.5139 0 0 1 -4.5139,4.5139 H 64.41 a 4.5139,4.5139 0 0 1 -4.5139,-4.5139 V 74.4449 A 4.5139,4.5139 0 0 1 64.41,69.931"
         fill="#ffffff"
         stroke="#0a0a0a"
         stroke-width="4"
         id="path1350" /><path
         d="m 73.958,75.66 h 89.41 c 2.3083,0 4.1667,1.8583 4.1667,4.1667 l 2.8e-4,52.653 h -21.742 v 9.414 h -8.694 l 4e-5,12.586 h -36.871 l -4e-5,-12.586 h -8.694 v -9.414 h -21.742 l -3.4e-4,-52.653 c -1.1e-5,-2.3083 1.8583,-4.1667 4.1667,-4.1667 z"
         fill="#dcdcdc"
         stroke="#0a0a0a"
         stroke-width="2.5"
         id="path1352" /><g
         transform="translate(-0.36789)"
         fill="#666666"
         stroke="#191919"
         id="g1370"><path
           d="m 80.556,75.747 h 3.9062 V 98.533 H 80.556 Z"
           id="path1354" /><path
           d="m 153.6,75.747 h 3.9062 V 98.533 H 153.6 Z"
           id="path1356" /><path
           d="m 132.73,75.747 h 3.9062 V 98.533 H 132.73 Z"
           id="path1358" /><path
           d="m 122.3,75.747 h 3.9062 V 98.533 H 122.3 Z"
           id="path1360" /><path
           d="m 111.86,75.747 h 3.9062 V 98.533 H 111.86 Z"
           id="path1362" /><path
           d="m 101.43,75.747 h 3.9062 V 98.533 H 101.43 Z"
           id="path1364" /><path
           d="m 90.991,75.747 h 3.9062 V 98.533 H 90.991 Z"
           id="path1366" /><path
           d="m 143.17,75.747 h 3.9062 V 98.533 H 143.17 Z"
           id="path1368" /></g><path
         d="m 69.542,137.03 h 17.101 v 13.889 H 69.542 Z"
         fill="#1dfe0a"
         stroke="#0a0a0a"
         stroke-width="2"
         id="path1372" /><path
         d="m 150.68,137.03 h 17.101 v 13.889 H 150.68 Z"
         fill="#ffd10a"
         stroke="#0a0a0a"
         stroke-width="2"
         id="path1374" /></g><g
       transform="matrix(0.06355613,0,0,0.06355613,79.657293,26.60894)"
       stroke-linecap="square"
       id="g1404"><path
         d="m 64.41,69.931 h 108.85 a 4.5139,4.5139 0 0 1 4.5139,4.5139 v 81.597 a 4.5139,4.5139 0 0 1 -4.5139,4.5139 H 64.41 a 4.5139,4.5139 0 0 1 -4.5139,-4.5139 V 74.4449 A 4.5139,4.5139 0 0 1 64.41,69.931"
         fill="#ffffff"
         stroke="#0a0a0a"
         stroke-width="4"
         id="path1378" /><path
         d="m 73.958,75.66 h 89.41 c 2.3083,0 4.1667,1.8583 4.1667,4.1667 l 2.8e-4,52.653 h -21.742 v 9.414 h -8.694 l 4e-5,12.586 h -36.871 l -4e-5,-12.586 h -8.694 v -9.414 h -21.742 l -3.4e-4,-52.653 c -1.1e-5,-2.3083 1.8583,-4.1667 4.1667,-4.1667 z"
         fill="#dcdcdc"
         stroke="#0a0a0a"
         stroke-width="2.5"
         id="path1380" /><g
         transform="translate(-0.36789)"
         fill="#666666"
         stroke="#191919"
         id="g1398"><path
           d="m 80.556,75.747 h 3.9062 V 98.533 H 80.556 Z"
           id="path1382" /><path
           d="m 153.6,75.747 h 3.9062 V 98.533 H 153.6 Z"
           id="path1384" /><path
           d="m 132.73,75.747 h 3.9062 V 98.533 H 132.73 Z"
           id="path1386" /><path
           d="m 122.3,75.747 h 3.9062 V 98.533 H 122.3 Z"
           id="path1388" /><path
           d="m 111.86,75.747 h 3.9062 V 98.533 H 111.86 Z"
           id="path1390" /><path
           d="m 101.43,75.747 h 3.9062 V 98.533 H 101.43 Z"
           id="path1392" /><path
           d="m 90.991,75.747 h 3.9062 V 98.533 H 90.991 Z"
           id="path1394" /><path
           d="m 143.17,75.747 h 3.9062 V 98.533 H 143.17 Z"
           id="path1396" /></g><path
         d="m 69.542,137.03 h 17.101 v 13.889 H 69.542 Z"
         fill="#1dfe0a"
         stroke="#0a0a0a"
         stroke-width="2"
         id="path1400" /><path
         d="m 150.68,137.03 h 17.101 v 13.889 H 150.68 Z"
         fill="#ffd10a"
         stroke="#0a0a0a"
         stroke-width="2"
         id="path1402" /></g><g
       transform="matrix(0.06355613,0,0,0.06355613,29.9721,26.60894)"
       stroke-linecap="square"
       id="g1750"><path
         d="m 64.41,69.931 h 108.85 a 4.5139,4.5139 0 0 1 4.5139,4.5139 v 81.597 a 4.5139,4.5139 0 0 1 -4.5139,4.5139 H 64.41 a 4.5139,4.5139 0 0 1 -4.5139,-4.5139 V 74.4449 A 4.5139,4.5139 0 0 1 64.41,69.931"
         fill="#ffffff"
         stroke="#0a0a0a"
         stroke-width="4"
         id="path1724" /><path
         d="m 73.958,75.66 h 89.41 c 2.3083,0 4.1667,1.8583 4.1667,4.1667 l 2.8e-4,52.653 h -21.742 v 9.414 h -8.694 l 4e-5,12.586 h -36.871 l -4e-5,-12.586 h -8.694 v -9.414 h -21.742 l -3.4e-4,-52.653 c -1.1e-5,-2.3083 1.8583,-4.1667 4.1667,-4.1667 z"
         fill="#dcdcdc"
         stroke="#0a0a0a"
         stroke-width="2.5"
         id="path1726" /><g
         transform="translate(-0.36789)"
         fill="#666666"
         stroke="#191919"
         id="g1744"><path
           d="m 80.556,75.747 h 3.9062 V 98.533 H 80.556 Z"
           id="path1728" /><path
           d="m 153.6,75.747 h 3.9062 V 98.533 H 153.6 Z"
           id="path1730" /><path
           d="m 132.73,75.747 h 3.9062 V 98.533 H 132.73 Z"
           id="path1732" /><path
           d="m 122.3,75.747 h 3.9062 V 98.533 H 122.3 Z"
           id="path1734" /><path
           d="m 111.86,75.747 h 3.9062 V 98.533 H 111.86 Z"
           id="path1736" /><path
           d="m 101.43,75.747 h 3.9062 V 98.533 H 101.43 Z"
           id="path1738" /><path
           d="m 90.991,75.747 h 3.9062 V 98.533 H 90.991 Z"
           id="path1740" /><path
           d="m 143.17,75.747 h 3.9062 V 98.533 H 143.17 Z"
           id="path1742" /></g><path
         d="m 69.542,137.03 h 17.101 v 13.889 H 69.542 Z"
         fill="#1dfe0a"
         stroke="#0a0a0a"
         stroke-width="2"
         id="path1746" /><path
         d="m 150.68,137.03 h 17.101 v 13.889 H 150.68 Z"
         fill="#ffd10a"
         stroke="#0a0a0a"
         stroke-width="2"
         id="path1748" /></g><path
       style="fill:#f4d7d7;stroke:#501616;stroke-width:1.12427"
       d="M 37.459726,58.791026 V 36.256191"
       id="path1806" /><text
       xml:space="preserve"
       style="font-size:4.41646px;fill:#000000;stroke:none;stroke-width:0.498676;stroke-dasharray:none"
       x="59.822117"
       y="58.915642"
       id="text2460"><tspan
         sodipodi:role="line"
         id="tspan2458"
         style="font-size:4.41646px;fill:#000000;stroke:none;stroke-width:0.498678"
         x="59.822117"
         y="58.915642">VLAN-ID 10 - Bereich: 10.0.10.100 - 10.0.10.200</tspan></text><text
       xml:space="preserve"
       style="font-size:4.41646px;fill:#000000;stroke:none;stroke-width:0.498676;stroke-dasharray:none"
       x="59.822117"
       y="64.988289"
       id="text4620"><tspan
         sodipodi:role="line"
         id="tspan4618"
         style="font-size:4.41646px;fill:#000000;stroke:none;stroke-width:0.498678"
         x="59.822117"
         y="64.988289">VLAN-ID 20 - Bereich: 10.0.20.100 - 10.0.20.200</tspan></text><text
       xml:space="preserve"
       style="font-size:4.41646px;fill:#000000;stroke:none;stroke-width:0.498676;stroke-dasharray:none"
       x="59.822117"
       y="71.060898"
       id="text4624"><tspan
         sodipodi:role="line"
         id="tspan4622"
         style="font-size:4.41646px;fill:#000000;stroke:none;stroke-width:0.498678"
         x="59.822117"
         y="71.060898">VLAN-ID 30 - Bereich: 10.0.30.100 - 10.0.30.200</tspan></text><text
       xml:space="preserve"
       style="font-size:4.41646px;fill:#000000;stroke:none;stroke-width:0.498676;stroke-dasharray:none"
       x="59.822117"
       y="77.133507"
       id="text4628"><tspan
         sodipodi:role="line"
         id="tspan4626"
         style="font-size:4.41646px;fill:#000000;stroke:none;stroke-width:0.498678"
         x="59.822117"
         y="77.133507">VLAN-ID 99 - Bereich: 10.0.99.100 - 10.0.99.200</tspan></text><text
       xml:space="preserve"
       style="font-size:4.41646px;fill:#000000;stroke:none;stroke-width:0.498676;stroke-dasharray:none"
       x="25.756416"
       y="24.724466"
       id="text4734"><tspan
         sodipodi:role="line"
         id="tspan4732"
         style="stroke-width:0.498678"
         x="25.756416"
         y="24.724466">Trunk Port</tspan></text></g><metadata
     id="metadata345"><rdf:RDF><cc:Work
         rdf:about=""><cc:license
           rdf:resource="http://creativecommons.org/licenses/by-sa/4.0/" /><dc:creator><cc:Agent><dc:title>Günter Dannoritzer</dc:title></cc:Agent></dc:creator></cc:Work><cc:License
         rdf:about="http://creativecommons.org/licenses/by-sa/4.0/"><cc:permits
           rdf:resource="http://creativecommons.org/ns#Reproduction" /><cc:permits
           rdf:resource="http://creativecommons.org/ns#Distribution" /><cc:requires
           rdf:resource="http://creativecommons.org/ns#Notice" /><cc:requires
           rdf:resource="http://creativecommons.org/ns#Attribution" /><cc:permits
           rdf:resource="http://creativecommons.org/ns#DerivativeWorks" /><cc:requires
           rdf:resource="http://creativecommons.org/ns#ShareAlike" /></cc:License></rdf:RDF></metadata></svg>
