<?xml version="1.0" encoding="UTF-8" standalone="no"?>
<!-- Created with Inkscape (http://www.inkscape.org/) -->

<svg
   width="126.94851mm"
   height="97.608986mm"
   viewBox="0 0 140.277 107.85708"
   version="1.1"
   id="svg1"
   inkscape:version="1.3.2 (091e20e, 2023-11-25)"
   sodipodi:docname="lf11-fw-alf.svg"
   xml:space="preserve"
   xmlns:inkscape="http://www.inkscape.org/namespaces/inkscape"
   xmlns:sodipodi="http://sodipodi.sourceforge.net/DTD/sodipodi-0.dtd"
   xmlns="http://www.w3.org/2000/svg"
   xmlns:svg="http://www.w3.org/2000/svg"><sodipodi:namedview
     id="namedview1"
     pagecolor="#ffffff"
     bordercolor="#000000"
     borderopacity="0.25"
     inkscape:showpageshadow="2"
     inkscape:pageopacity="0.0"
     inkscape:pagecheckerboard="0"
     inkscape:deskcolor="#d1d1d1"
     inkscape:document-units="mm"
     inkscape:zoom="1.1280546"
     inkscape:cx="216.74483"
     inkscape:cy="234.47447"
     inkscape:window-width="1600"
     inkscape:window-height="828"
     inkscape:window-x="0"
     inkscape:window-y="0"
     inkscape:window-maximized="1"
     inkscape:current-layer="layer1" /><defs
     id="defs1"><marker
       style="overflow:visible"
       id="marker44"
       refX="0"
       refY="0"
       orient="auto-start-reverse"
       inkscape:stockid="Dart arrow"
       markerWidth="1"
       markerHeight="1"
       viewBox="0 0 1 1"
       inkscape:isstock="true"
       inkscape:collect="always"
       preserveAspectRatio="xMidYMid"><path
         style="fill:context-stroke;fill-rule:evenodd;stroke:none"
         d="M 0,0 5,-5 -12.5,0 5,5 Z"
         transform="scale(-0.5)"
         id="path44" /></marker><marker
       style="overflow:visible"
       id="DartArrow"
       refX="0"
       refY="0"
       orient="auto-start-reverse"
       inkscape:stockid="Dart arrow"
       markerWidth="1"
       markerHeight="1"
       viewBox="0 0 1 1"
       inkscape:isstock="true"
       inkscape:collect="always"
       preserveAspectRatio="xMidYMid"><path
         style="fill:context-stroke;fill-rule:evenodd;stroke:none"
         d="M 0,0 5,-5 -12.5,0 5,5 Z"
         transform="scale(-0.5)"
         id="path26" /></marker></defs><g
     inkscape:label="Ebene 1"
     inkscape:groupmode="layer"
     id="layer1"
     transform="translate(-36.184071,-41.913776)"><rect
       style="fill:#ffffff;fill-opacity:1;stroke:none;stroke-width:0.645001;stroke-dasharray:none;stroke-opacity:1"
       id="rect41"
       width="136.2769"
       height="104.78146"
       x="37.938244"
       y="43.66795" /><rect
       style="fill:#e6e6e6;fill-opacity:1;stroke:#afc6e9;stroke-width:0.101;stroke-dasharray:none;stroke-opacity:1"
       id="rect40"
       width="120.17336"
       height="95.947975"
       x="46.680855"
       y="48.690304" /><path
       style="fill:#ff5555;fill-opacity:1;stroke:#550000;stroke-width:0.155655;stroke-dasharray:none"
       d="m 83.324296,59.182336 v 16.533652 h 5.694484 c 0,0 -2.275228,1.429072 -2.216934,2.483338 0.05829,1.054266 1.112499,1.982741 2.237146,2.008284 1.124647,0.02554 2.751048,-1.294734 2.896206,-2.371542 0.145158,-1.076808 -1.605436,-2.26467 -1.605436,-2.26467 l 8.377689,0.02051 V 70.57041 c 0,0 -1.394536,1.497454 -2.213558,1.277997 -0.819022,-0.219457 -1.386323,-1.276446 -1.265744,-2.192336 0.120579,-0.91589 1.305542,-2.129287 2.129287,-2.129287 0.823745,0 1.365568,1.365569 1.365568,1.365569 v -2.64749 h 6.551676 c 0,0 -2.27667,1.310958 -2.27667,2.276664 0,0.965706 1.05075,1.501644 1.82048,1.820476 0.76973,0.318832 1.64354,0.4508 2.42435,0 0.78081,-0.4508 1.60951,-1.697432 1.49262,-2.585297 -0.11689,-0.887865 -1.68851,-1.688511 -1.68851,-1.688511 h 6.83801 v -4.301358 c 0,0 1.1566,1.316176 2.07114,1.195775 0.91454,-0.120401 1.90282,-1.450802 2.22245,-2.222452 0.31963,-0.77165 0.35983,-1.245105 0,-1.868349 -0.35983,-0.623244 -1.2958,-1.224806 -2.12142,-1.224807 -0.82562,-1e-6 -2.16864,1.252063 -2.16864,1.252063 V 55.825365 H 83.342209 Z"
       id="path28"
       sodipodi:nodetypes="ccczzzccczzzccczzzzccczzzzcccc" /><rect
       style="fill:#ffeeaa;fill-opacity:1;stroke:#2b2200;stroke-width:0.101;stroke-dasharray:none;stroke-opacity:1"
       id="rect7"
       width="28.183311"
       height="4.6530151"
       x="48.576393"
       y="133.09314"
       ry="0" /><rect
       style="fill:#ffeeaa;fill-opacity:1;stroke:#2b2200;stroke-width:0.101;stroke-dasharray:none;stroke-opacity:1"
       id="rect6"
       width="18.963037"
       height="4.6453266"
       x="57.796669"
       y="128.39699"
       ry="0" /><rect
       style="fill:#ffeeaa;fill-opacity:1;stroke:#2b2200;stroke-width:0.101;stroke-dasharray:none;stroke-opacity:1"
       id="rect5"
       width="48.621937"
       height="4.6453247"
       x="57.796669"
       y="123.69314"
       ry="0" /><rect
       style="fill:#ffeeaa;fill-opacity:1;stroke:#2b2200;stroke-width:0.101;stroke-dasharray:none;stroke-opacity:1"
       id="rect4"
       width="44.565651"
       height="4.6453247"
       x="57.796669"
       y="119.04788"
       ry="0" /><text
       xml:space="preserve"
       style="font-weight:bold;font-size:3.52778px;font-family:Sans;-inkscape-font-specification:'Sans Bold';text-align:center;text-anchor:middle;fill:#000000;fill-opacity:1;stroke:none;stroke-width:0.900999;stroke-opacity:1"
       x="67.284187"
       y="136.60199"
       id="text1"><tspan
         sodipodi:role="line"
         id="tspan1"
         style="font-style:normal;font-variant:normal;font-weight:normal;font-stretch:normal;font-size:3.52778px;font-family:Sans;-inkscape-font-specification:Sans;fill:#000000;fill-opacity:1;stroke:none;stroke-width:0.901;stroke-opacity:1"
         x="67.284187"
         y="136.60199">Phy</tspan></text><text
       xml:space="preserve"
       style="font-weight:bold;font-size:3.52778px;font-family:Sans;-inkscape-font-specification:'Sans Bold';text-align:center;text-anchor:middle;fill:#000000;fill-opacity:1;stroke:none;stroke-width:0.900999;stroke-opacity:1"
       x="67.284187"
       y="131.83948"
       id="text2"><tspan
         sodipodi:role="line"
         id="tspan2"
         style="font-style:normal;font-variant:normal;font-weight:normal;font-stretch:normal;font-size:3.52778px;font-family:Sans;-inkscape-font-specification:Sans;fill:#000000;fill-opacity:1;stroke:none;stroke-width:0.901;stroke-opacity:1"
         x="67.284187"
         y="131.83948">Eth</tspan></text><text
       xml:space="preserve"
       style="font-weight:bold;font-size:3.52778px;font-family:Sans;-inkscape-font-specification:'Sans Bold';text-align:center;text-anchor:middle;fill:#000000;fill-opacity:1;stroke:none;stroke-width:0.900999;stroke-opacity:1"
       x="67.284187"
       y="127.07699"
       id="text3"><tspan
         sodipodi:role="line"
         id="tspan3"
         style="font-style:normal;font-variant:normal;font-weight:normal;font-stretch:normal;font-size:3.52778px;font-family:Sans;-inkscape-font-specification:Sans;fill:#000000;fill-opacity:1;stroke:none;stroke-width:0.901;stroke-opacity:1"
         x="67.284187"
         y="127.07699">IP</tspan></text><text
       xml:space="preserve"
       style="font-weight:bold;font-size:3.52778px;font-family:Sans;-inkscape-font-specification:'Sans Bold';text-align:center;text-anchor:middle;fill:#000000;fill-opacity:1;stroke:none;stroke-width:0.900999;stroke-opacity:1"
       x="67.284187"
       y="122.84367"
       id="text4"><tspan
         sodipodi:role="line"
         id="tspan4"
         style="font-style:normal;font-variant:normal;font-weight:normal;font-stretch:normal;font-size:3.52778px;font-family:Sans;-inkscape-font-specification:Sans;fill:#000000;fill-opacity:1;stroke:none;stroke-width:0.901;stroke-opacity:1"
         x="67.284187"
         y="122.84367">TCP/UDP</tspan></text><g
       transform="matrix(0.06306659,0,0,0.06306659,38.452087,128.17259)"
       stroke-linecap="square"
       id="g12"><path
         d="m 64.41,69.931 h 108.85 a 4.5139,4.5139 0 0 1 4.5139,4.5139 v 81.597 a 4.5139,4.5139 0 0 1 -4.5139,4.5139 H 64.41 a 4.5139,4.5139 0 0 1 -4.5139,-4.5139 V 74.4449 A 4.5139,4.5139 0 0 1 64.41,69.931"
         fill="#ffffff"
         stroke="#0a0a0a"
         stroke-width="4"
         id="path1" /><path
         d="m 73.958,75.66 h 89.41 c 2.3083,0 4.1667,1.8583 4.1667,4.1667 l 2.8e-4,52.653 h -21.742 v 9.414 h -8.694 l 4e-5,12.586 h -36.871 l -4e-5,-12.586 h -8.694 v -9.414 h -21.742 l -3.4e-4,-52.653 c -1.1e-5,-2.3083 1.8583,-4.1667 4.1667,-4.1667 z"
         fill="#dcdcdc"
         stroke="#0a0a0a"
         stroke-width="2.5"
         id="path2" /><g
         transform="translate(-0.36789)"
         fill="#666666"
         stroke="#191919"
         id="g10"><path
           d="m 80.556,75.747 h 3.9062 V 98.533 H 80.556 Z"
           id="path3" /><path
           d="m 153.6,75.747 h 3.9062 V 98.533 H 153.6 Z"
           id="path4" /><path
           d="m 132.73,75.747 h 3.9062 V 98.533 H 132.73 Z"
           id="path5" /><path
           d="m 122.3,75.747 h 3.9062 V 98.533 H 122.3 Z"
           id="path6" /><path
           d="m 111.86,75.747 h 3.9062 V 98.533 H 111.86 Z"
           id="path7" /><path
           d="m 101.43,75.747 h 3.9062 V 98.533 H 101.43 Z"
           id="path8" /><path
           d="m 90.991,75.747 h 3.9062 V 98.533 H 90.991 Z"
           id="path9" /><path
           d="m 143.17,75.747 h 3.9062 V 98.533 H 143.17 Z"
           id="path10" /></g><path
         d="m 69.542,137.03 h 17.101 v 13.889 H 69.542 Z"
         fill="#1dfe0a"
         stroke="#0a0a0a"
         stroke-width="2"
         id="path11" /><path
         d="m 150.68,137.03 h 17.101 v 13.889 H 150.68 Z"
         fill="#ffd10a"
         stroke="#0a0a0a"
         stroke-width="2"
         id="path12" /></g><rect
       style="fill:#ffeeaa;fill-opacity:1;stroke:#2b2200;stroke-width:0.101;stroke-dasharray:none;stroke-opacity:1"
       id="rect8"
       width="28.183311"
       height="4.6530151"
       x="137.18175"
       y="133.09314"
       ry="0" /><rect
       style="fill:#ffeeaa;fill-opacity:1;stroke:#2b2200;stroke-width:0.101;stroke-dasharray:none;stroke-opacity:1"
       id="rect9"
       width="18.963037"
       height="4.6453266"
       x="137.17168"
       y="128.39699"
       ry="0" /><rect
       style="fill:#ffeeaa;fill-opacity:1;stroke:#2b2200;stroke-width:0.101;stroke-dasharray:none;stroke-opacity:1"
       id="rect10"
       width="42.870705"
       height="4.6453247"
       x="113.26399"
       y="123.69314"
       ry="0" /><rect
       style="fill:#ffeeaa;fill-opacity:1;stroke:#2b2200;stroke-width:0.101;stroke-dasharray:none;stroke-opacity:1"
       id="rect11"
       width="38.675732"
       height="4.6453247"
       x="117.45896"
       y="119.04788"
       ry="0" /><text
       xml:space="preserve"
       style="font-weight:bold;font-size:3.52778px;font-family:Sans;-inkscape-font-specification:'Sans Bold';text-align:center;text-anchor:middle;fill:#000000;fill-opacity:1;stroke:none;stroke-width:0.900999;stroke-opacity:1"
       x="146.65921"
       y="136.60199"
       id="text11"><tspan
         sodipodi:role="line"
         id="tspan11"
         style="font-style:normal;font-variant:normal;font-weight:normal;font-stretch:normal;font-size:3.52778px;font-family:Sans;-inkscape-font-specification:Sans;fill:#000000;fill-opacity:1;stroke:none;stroke-width:0.901;stroke-opacity:1"
         x="146.65921"
         y="136.60199">Phy</tspan></text><text
       xml:space="preserve"
       style="font-weight:bold;font-size:3.52778px;font-family:Sans;-inkscape-font-specification:'Sans Bold';text-align:center;text-anchor:middle;fill:#000000;fill-opacity:1;stroke:none;stroke-width:0.900999;stroke-opacity:1"
       x="146.65921"
       y="131.83948"
       id="text12"><tspan
         sodipodi:role="line"
         id="tspan12"
         style="font-style:normal;font-variant:normal;font-weight:normal;font-stretch:normal;font-size:3.52778px;font-family:Sans;-inkscape-font-specification:Sans;fill:#000000;fill-opacity:1;stroke:none;stroke-width:0.901;stroke-opacity:1"
         x="146.65921"
         y="131.83948">Eth</tspan></text><text
       xml:space="preserve"
       style="font-weight:bold;font-size:3.52778px;font-family:Sans;-inkscape-font-specification:'Sans Bold';text-align:center;text-anchor:middle;fill:#000000;fill-opacity:1;stroke:none;stroke-width:0.900999;stroke-opacity:1"
       x="146.65921"
       y="127.07699"
       id="text13"><tspan
         sodipodi:role="line"
         id="tspan13"
         style="font-style:normal;font-variant:normal;font-weight:normal;font-stretch:normal;font-size:3.52778px;font-family:Sans;-inkscape-font-specification:Sans;fill:#000000;fill-opacity:1;stroke:none;stroke-width:0.901;stroke-opacity:1"
         x="146.65921"
         y="127.07699">IP</tspan></text><text
       xml:space="preserve"
       style="font-weight:bold;font-size:3.52778px;font-family:Sans;-inkscape-font-specification:'Sans Bold';text-align:center;text-anchor:middle;fill:#000000;fill-opacity:1;stroke:none;stroke-width:0.900999;stroke-opacity:1"
       x="146.65921"
       y="122.84367"
       id="text14"><tspan
         sodipodi:role="line"
         id="tspan14"
         style="font-style:normal;font-variant:normal;font-weight:normal;font-stretch:normal;font-size:3.52778px;font-family:Sans;-inkscape-font-specification:Sans;fill:#000000;fill-opacity:1;stroke:none;stroke-width:0.901;stroke-opacity:1"
         x="146.65921"
         y="122.84367">TCP/UDP</tspan></text><g
       transform="matrix(0.06306659,0,0,0.06306659,160.6896,128.17259)"
       stroke-linecap="square"
       id="g25"><path
         d="m 64.41,69.931 h 108.85 a 4.5139,4.5139 0 0 1 4.5139,4.5139 v 81.597 a 4.5139,4.5139 0 0 1 -4.5139,4.5139 H 64.41 a 4.5139,4.5139 0 0 1 -4.5139,-4.5139 V 74.4449 A 4.5139,4.5139 0 0 1 64.41,69.931"
         fill="#ffffff"
         stroke="#0a0a0a"
         stroke-width="4"
         id="path14" /><path
         d="m 73.958,75.66 h 89.41 c 2.3083,0 4.1667,1.8583 4.1667,4.1667 l 2.8e-4,52.653 h -21.742 v 9.414 h -8.694 l 4e-5,12.586 h -36.871 l -4e-5,-12.586 h -8.694 v -9.414 h -21.742 l -3.4e-4,-52.653 c -1.1e-5,-2.3083 1.8583,-4.1667 4.1667,-4.1667 z"
         fill="#dcdcdc"
         stroke="#0a0a0a"
         stroke-width="2.5"
         id="path15" /><g
         transform="translate(-0.36789)"
         fill="#666666"
         stroke="#191919"
         id="g23"><path
           d="m 80.556,75.747 h 3.9062 V 98.533 H 80.556 Z"
           id="path16" /><path
           d="m 153.6,75.747 h 3.9062 V 98.533 H 153.6 Z"
           id="path17" /><path
           d="m 132.73,75.747 h 3.9062 V 98.533 H 132.73 Z"
           id="path18" /><path
           d="m 122.3,75.747 h 3.9062 V 98.533 H 122.3 Z"
           id="path19" /><path
           d="m 111.86,75.747 h 3.9062 V 98.533 H 111.86 Z"
           id="path20" /><path
           d="m 101.43,75.747 h 3.9062 V 98.533 H 101.43 Z"
           id="path21" /><path
           d="m 90.991,75.747 h 3.9062 V 98.533 H 90.991 Z"
           id="path22" /><path
           d="m 143.17,75.747 h 3.9062 V 98.533 H 143.17 Z"
           id="path23" /></g><path
         d="m 69.542,137.03 h 17.101 v 13.889 H 69.542 Z"
         fill="#1dfe0a"
         stroke="#0a0a0a"
         stroke-width="2"
         id="path24" /><path
         d="m 150.68,137.03 h 17.101 v 13.889 H 150.68 Z"
         fill="#ffd10a"
         stroke="#0a0a0a"
         stroke-width="2"
         id="path25" /></g><text
       xml:space="preserve"
       style="font-weight:bold;font-size:3.52778px;font-family:Sans;-inkscape-font-specification:'Sans Bold';text-align:center;text-anchor:middle;fill:#000000;fill-opacity:1;stroke:none;stroke-width:0.900999;stroke-opacity:1"
       x="46.117504"
       y="141.89366"
       id="text25"><tspan
         sodipodi:role="line"
         id="tspan25"
         style="font-style:normal;font-variant:normal;font-weight:normal;font-stretch:normal;font-size:3.52778px;font-family:Sans;-inkscape-font-specification:Sans;fill:#000000;fill-opacity:1;stroke:none;stroke-width:0.901;stroke-opacity:1"
         x="46.117504"
         y="141.89366">LAN</tspan></text><text
       xml:space="preserve"
       style="font-weight:bold;font-size:3.52778px;font-family:Sans;-inkscape-font-specification:'Sans Bold';text-align:center;text-anchor:middle;fill:#000000;fill-opacity:1;stroke:none;stroke-width:0.900999;stroke-opacity:1"
       x="168.35506"
       y="141.89366"
       id="text26"><tspan
         sodipodi:role="line"
         id="tspan26"
         style="font-style:normal;font-variant:normal;font-weight:normal;font-stretch:normal;font-size:3.52778px;font-family:Sans;-inkscape-font-specification:Sans;fill:#000000;fill-opacity:1;stroke:none;stroke-width:0.901;stroke-opacity:1"
         x="168.35506"
         y="141.89366">WAN</tspan></text><g
       id="g40"
       transform="translate(-23.046019,5.3597752)"><path
         style="fill:#afc6e9;fill-opacity:1;stroke:#afc6e9;stroke-width:0.101;stroke-dasharray:none;stroke-opacity:1"
         d="m 121.36727,114.55372 9.90281,9.90282 h 4.77684 l 10.49838,-9.85578"
         id="path39"
         sodipodi:nodetypes="cccc" /><path
         style="fill:#3771c8;fill-opacity:1;stroke:#3771c8;stroke-width:0.101;stroke-dasharray:none;stroke-opacity:1"
         id="path38"
         sodipodi:type="arc"
         sodipodi:cx="133.96634"
         sodipodi:cy="114.57435"
         sodipodi:rx="12.533373"
         sodipodi:ry="1.7196476"
         sodipodi:start="0"
         sodipodi:end="6.2825569"
         sodipodi:open="true"
         sodipodi:arc-type="arc"
         d="m 146.49971,114.57435 a 12.533373,1.7196476 0 0 1 -12.5314,1.71965 12.533373,1.7196476 0 0 1 -12.53534,-1.71911 12.533373,1.7196476 0 0 1 12.52746,-1.72019 12.533373,1.7196476 0 0 1 12.53928,1.71857" /><path
         style="fill:#afc6e9;fill-opacity:1;stroke:#afc6e9;stroke-width:0.101;stroke-dasharray:none;stroke-opacity:1"
         d="m 131.23206,124.50727 v 8.66308 l 4.86421,-2.80835 v -5.85558 z"
         id="path40" /></g><path
       style="fill:#00aa88;stroke:#00aa88;stroke-width:0.66772;stroke-opacity:1;marker-end:url(#DartArrow)"
       d="M 114.34872,89.154819 V 116.33313"
       id="path27"
       sodipodi:nodetypes="cc" /><path
       style="fill:#00aa88;stroke:#ff5555;stroke-width:0.66772;stroke-opacity:1;marker-end:url(#DartArrow)"
       d="M 110.37237,67.699248 V 116.33313"
       id="path46"
       sodipodi:nodetypes="cc" /><g
       id="g41"
       transform="translate(51.960954,41.277127)"><rect
         style="fill:#ccffaa;fill-opacity:1;stroke:#2b2200;stroke-width:0.101;stroke-dasharray:none;stroke-opacity:1"
         id="rect26"
         width="30.041998"
         height="7.1847196"
         x="40.165741"
         y="62.773518" /><text
         xml:space="preserve"
         style="font-style:normal;font-variant:normal;font-weight:normal;font-stretch:normal;font-size:3.52777px;font-family:Sans;-inkscape-font-specification:Sans;text-align:center;text-anchor:middle;fill:#2b2200;fill-opacity:1;stroke:none;stroke-width:0.101;stroke-dasharray:none;stroke-opacity:1"
         x="55.305424"
         y="67.522568"
         id="text27"><tspan
           sodipodi:role="line"
           id="tspan27"
           style="fill:#2b2200;stroke:none;stroke-width:0.101"
           x="55.305424"
           y="67.522568">IP-Paket</tspan></text></g><g
       id="g37"
       transform="matrix(0.03732309,0.29530463,-0.29530463,0.03732309,108.21435,79.030307)"
       style="stroke-width:1.18435;stroke-dasharray:none"><path
         style="fill:none;stroke:#2b2200;stroke-width:1.18435;stroke-dasharray:none"
         d="m 87.230056,88.923582 -1.87232,6.65387 c 0,0 -1.03666,2.83687 -1.35547,4.36367 -0.31881,1.526788 -0.52826,4.759778 -0.52826,4.759778"
         id="path29"
         sodipodi:nodetypes="cczc" /><path
         style="fill:none;stroke:#2b2200;stroke-width:1.18435;stroke-dasharray:none"
         d="m 91.617176,90.512682 -1.49237,6.89729 c 0,0 -0.46885,3.549368 -0.49805,4.820528 -0.0292,1.27116 0.1586,2.77827 0.1586,2.77827"
         id="path30"
         sodipodi:nodetypes="cczc" /><g
         id="g32"
         transform="translate(-18.917754,47.570823)"
         style="stroke-width:1.18435;stroke-dasharray:none"><path
           style="fill:none;stroke:#2b2200;stroke-width:1.18435;stroke-dasharray:none"
           d="m 104.65921,45.148195 c 0,0 -1.87403,-0.834118 -1.77855,-1.585238 0.0955,-0.75112 1.10287,-1.352014 2.12623,-1.064695 -0.53207,-1.095116 1.12512,-1.810792 2.19598,-1.785753 1.07086,0.02504 2.70089,1.09234 2.57754,2.199515 1.25165,-1.456 2.80269,-0.0062 3.36051,1.192602 0.55783,1.198757 -2.0317,2.194327 -2.0317,2.194327"
           id="path31"
           sodipodi:nodetypes="czczczc" /><path
           style="fill:none;stroke:#2b2200;stroke-width:1.18435;stroke-dasharray:none"
           d="m 103.6283,48.382488 c 0,0 -0.55855,0.342107 -1.07751,-0.175194 -0.51896,-0.517301 0.17165,-1.385683 0.17165,-1.385683 0,0 -3.045565,-0.08015 -3.220117,-2.164457 -0.174552,-2.084308 2.478467,-2.762389 2.478467,-2.762389 0,0 -1.09898,-1.653952 0.22538,-3.178329 1.32437,-1.524377 3.58635,0.157954 3.58635,0.157954 0,0 1.39018,-1.249148 2.22385,-1.171723 0.83367,0.07743 1.96709,1.558888 1.96709,1.558888 0,0 1.97201,-1.173302 3.0335,-0.587452 1.06149,0.58585 2.29145,2.74607 1.51672,3.900175 1.5827,0.153182 2.32407,1.633462 2.21921,2.795704 -0.10486,1.162242 -1.48868,2.656956 -2.5807,2.262958 0.056,1.285165 -0.96314,2.533193 -1.93405,2.914739 -0.97091,0.381546 -2.68449,-0.645802 -2.68449,-0.645802"
           id="path32"
           sodipodi:nodetypes="czczczczczczczc" /></g><path
         style="fill:none;stroke:#2b2200;stroke-width:1.18435;stroke-dasharray:none"
         d="m 88.633606,93.409612 -0.79959,2.80138"
         id="path33" /><path
         style="fill:none;stroke:#2b2200;stroke-width:1.18435;stroke-dasharray:none"
         d="m 87.107566,98.876442 c 0,0 -0.43824,1.476258 -0.51384,2.186758 -0.0756,0.7105 0.0383,2.04038 0.0383,2.04038"
         id="path34"
         sodipodi:nodetypes="czc" /><path
         style="fill:none;stroke:#2b2200;stroke-width:1.18435;stroke-dasharray:none"
         d="m 88.572266,85.272532 c 0,0 1.4989,-4.47968 1.93938,-6.97014 0.44048,-2.490449 0.62449,-7.915119 0.62449,-7.915119"
         id="path35"
         sodipodi:nodetypes="czc" /><path
         style="fill:none;stroke:#2b2200;stroke-width:1.18435;stroke-dasharray:none"
         d="m 92.336556,86.065262 c 0,0 1.61922,-4.91056 2.02977,-7.65335 0.41055,-2.742785 0.33061,-8.715841 0.33061,-8.715841"
         id="path36"
         sodipodi:nodetypes="czc" /><path
         style="fill:none;stroke:#2b2200;stroke-width:1.18435;stroke-dasharray:none"
         d="m 91.381316,82.347852 c 0,0 0.6867,-2.20254 0.89958,-3.54366 0.21288,-1.34112 0.29727,-4.481568 0.29727,-4.481568"
         id="path37"
         sodipodi:nodetypes="czc" /></g><rect
       style="fill:#e9afaf;stroke-width:0.66772"
       id="rect12"
       width="33.535912"
       height="6.3481207"
       x="89.21167"
       y="82.561539"
       ry="3.1740603" /><text
       xml:space="preserve"
       style="font-size:5.11286px;font-family:Sans;-inkscape-font-specification:Sans;text-align:center;text-anchor:middle;fill:#ffffff;stroke-width:0.66772"
       x="106.16908"
       y="87.624039"
       id="text5"><tspan
         sodipodi:role="line"
         style="fill:#000000;stroke-width:0.667719"
         x="106.16908"
         y="87.624039"
         id="tspan7">SPI</tspan></text><path
       style="fill:#00aa88;fill-opacity:1;stroke:#00aa88;stroke-width:0.66772;stroke-opacity:1;marker-end:url(#DartArrow)"
       d="M 97.914578,103.61814 V 93.328069"
       id="path13" /><rect
       style="fill:#ffccaa;fill-opacity:1;stroke:#2b2200;stroke-width:0.101;stroke-dasharray:none;stroke-opacity:1"
       id="rect13"
       width="18.979952"
       height="8.9993649"
       x="57.779755"
       y="109.93075"
       ry="0" /><text
       xml:space="preserve"
       style="font-weight:bold;font-size:3.0296px;font-family:Sans;-inkscape-font-specification:'Sans Bold';text-align:center;text-anchor:middle;fill:#000000;fill-opacity:1;stroke:none;stroke-width:0.900999;stroke-opacity:1"
       x="67.273994"
       y="115.33991"
       id="text8"><tspan
         sodipodi:role="line"
         id="tspan8"
         style="font-style:normal;font-variant:normal;font-weight:normal;font-stretch:normal;font-size:3.0296px;font-family:Sans;-inkscape-font-specification:Sans;fill:#000000;fill-opacity:1;stroke:none;stroke-width:0.901;stroke-opacity:1"
         x="67.273994"
         y="115.33991">Application</tspan></text><rect
       style="fill:#ffccaa;fill-opacity:1;stroke:#2b2200;stroke-width:0.101;stroke-dasharray:none;stroke-opacity:1"
       id="rect14"
       width="18.979952"
       height="8.9993649"
       x="137.18105"
       y="109.93075"
       ry="0" /><text
       xml:space="preserve"
       style="font-weight:bold;font-size:3.0296px;font-family:Sans;-inkscape-font-specification:'Sans Bold';text-align:center;text-anchor:middle;fill:#000000;fill-opacity:1;stroke:none;stroke-width:0.900999;stroke-opacity:1"
       x="146.67528"
       y="115.33991"
       id="text15"><tspan
         sodipodi:role="line"
         id="tspan15"
         style="font-style:normal;font-variant:normal;font-weight:normal;font-stretch:normal;font-size:3.0296px;font-family:Sans;-inkscape-font-specification:Sans;fill:#000000;fill-opacity:1;stroke:none;stroke-width:0.901;stroke-opacity:1"
         x="146.67528"
         y="115.33991">Application</tspan></text><text
       xml:space="preserve"
       style="font-size:5.11286px;font-family:Sans;-inkscape-font-specification:Sans;text-align:center;text-anchor:middle;fill:#ffffff;stroke-width:0.66772"
       x="106.01634"
       y="53.497322"
       id="text16"><tspan
         sodipodi:role="line"
         style="fill:#000000;stroke-width:0.667719"
         x="106.01634"
         y="53.497322"
         id="tspan17">Applications</tspan></text><text
       xml:space="preserve"
       style="font-size:5.11286px;font-family:Sans;-inkscape-font-specification:Sans;text-align:center;text-anchor:middle;fill:#ffffff;stroke-width:0.66772"
       x="106.16908"
       y="87.624039"
       id="text18"><tspan
         sodipodi:role="line"
         style="fill:#000000;stroke-width:0.667719"
         x="106.16908"
         y="87.624039"
         id="tspan18">SPI</tspan></text><text
       xml:space="preserve"
       style="font-weight:bold;font-size:3.0296px;font-family:Sans;-inkscape-font-specification:'Sans Bold';text-align:center;text-anchor:middle;fill:#005500;fill-opacity:1;stroke:none;stroke-width:0.900999;stroke-opacity:1"
       x="91.132118"
       y="60.807056"
       id="text19"><tspan
         sodipodi:role="line"
         id="tspan19"
         style="font-style:normal;font-variant:normal;font-weight:normal;font-stretch:normal;font-size:3.0296px;font-family:Sans;-inkscape-font-specification:Sans;fill:#005500;fill-opacity:1;stroke:none;stroke-width:0.901;stroke-opacity:1"
         x="91.132118"
         y="60.807056">App 1</tspan></text><text
       xml:space="preserve"
       style="font-weight:bold;font-size:3.0296px;font-family:Sans;-inkscape-font-specification:'Sans Bold';text-align:center;text-anchor:middle;fill:#005500;fill-opacity:1;stroke:none;stroke-width:0.900999;stroke-opacity:1"
       x="107.60558"
       y="60.807056"
       id="text20"><tspan
         sodipodi:role="line"
         id="tspan20"
         style="font-style:normal;font-variant:normal;font-weight:normal;font-stretch:normal;font-size:3.0296px;font-family:Sans;-inkscape-font-specification:Sans;fill:#005500;fill-opacity:1;stroke:none;stroke-width:0.901;stroke-opacity:1"
         x="107.60558"
         y="60.807056">App 2</tspan></text><text
       xml:space="preserve"
       style="font-weight:bold;font-size:3.0296px;font-family:Sans;-inkscape-font-specification:'Sans Bold';text-align:center;text-anchor:middle;fill:#005500;fill-opacity:1;stroke:none;stroke-width:0.900999;stroke-opacity:1"
       x="89.995888"
       y="71.600029"
       id="text21"><tspan
         sodipodi:role="line"
         id="tspan21"
         style="font-style:normal;font-variant:normal;font-weight:normal;font-stretch:normal;font-size:3.0296px;font-family:Sans;-inkscape-font-specification:Sans;fill:#005500;fill-opacity:1;stroke:none;stroke-width:0.901;stroke-opacity:1"
         x="89.995888"
         y="71.600029">App 3</tspan></text><path
       style="fill:#ff5555;fill-opacity:1;stroke:#550000;stroke-width:0.155655;stroke-dasharray:none"
       d="m 98.749333,66.189911 v -3.574795 c 0,0 1.458187,1.38138 2.190327,1.213265 0.73215,-0.168115 0.92197,-0.982398 1.15343,-1.637939 0.23146,-0.655541 0.464,-1.598393 0.14148,-2.163295 -0.32252,-0.564902 -0.87749,-0.847059 -1.54848,-0.782584 -0.67099,0.06447 -1.82514,1.415148 -1.82514,1.415148 l -0.03444,-0.0011 v -4.883788"
       id="path41"
       sodipodi:nodetypes="cczzzzccc" /><path
       style="fill:#ff5555;fill-opacity:1;stroke:#550000;stroke-width:0.155655;stroke-dasharray:none"
       d="m 98.816113,66.084389 h -8.560638 c 0,0 1.38138,-1.458185 1.213265,-2.190336 -0.168115,-0.732151 -0.982398,-0.921976 -1.637939,-1.153436 -0.655541,-0.23146 -1.598393,-0.464 -2.163295,-0.14148 -0.564902,0.32252 -0.847059,0.877493 -0.782584,1.548488 0.06447,0.670995 1.415148,1.825147 1.415148,1.825147 l -0.0011,0.03444 h -4.883788"
       id="path42"
       sodipodi:nodetypes="cczzzzccc" /><path
       style="fill:none;fill-opacity:1;stroke:#ff5555;stroke-width:0.799744;stroke-dasharray:none;stroke-opacity:1;marker-end:url(#marker44)"
       d="m 67.267819,109.40461 c 0,0 -2.506587,-18.665682 0.445832,-26.188788 2.952419,-7.523106 10.4609,-12.420147 10.4609,-12.420147"
       id="path43"
       sodipodi:nodetypes="czc" /><path
       style="fill:none;fill-opacity:1;stroke:#ff5555;stroke-width:0.799744;stroke-dasharray:none;stroke-opacity:1;marker-end:url(#marker44)"
       d="m 143.45039,109.4046 c 0,0 2.50658,-18.665677 -0.44584,-26.188783 -2.95242,-7.523102 -19.55839,-17.360683 -19.55839,-17.360683"
       id="path45"
       sodipodi:nodetypes="czc" /></g></svg>
