<?xml version="1.0" encoding="UTF-8" standalone="no"?>
<!-- Created with Inkscape (http://www.inkscape.org/) -->

<svg
   width="165.08971mm"
   height="97.04232mm"
   viewBox="0 0 186.423 109.58237"
   version="1.1"
   id="svg1"
   inkscape:version="1.3.2 (091e20e, 2023-11-25)"
   sodipodi:docname="lf11-fw-dmz.svg"
   xml:space="preserve"
   xmlns:inkscape="http://www.inkscape.org/namespaces/inkscape"
   xmlns:sodipodi="http://sodipodi.sourceforge.net/DTD/sodipodi-0.dtd"
   xmlns="http://www.w3.org/2000/svg"
   xmlns:svg="http://www.w3.org/2000/svg"
   xmlns:rdf="http://www.w3.org/1999/02/22-rdf-syntax-ns#"
   xmlns:cc="http://creativecommons.org/ns#"
   xmlns:dc="http://purl.org/dc/elements/1.1/"><sodipodi:namedview
     id="namedview1"
     pagecolor="#ffffff"
     bordercolor="#000000"
     borderopacity="0.25"
     inkscape:showpageshadow="2"
     inkscape:pageopacity="0.0"
     inkscape:pagecheckerboard="0"
     inkscape:deskcolor="#d1d1d1"
     inkscape:document-units="mm"
     inkscape:zoom="1.1280546"
     inkscape:cx="261.06892"
     inkscape:cy="189.26389"
     inkscape:window-width="1600"
     inkscape:window-height="828"
     inkscape:window-x="0"
     inkscape:window-y="0"
     inkscape:window-maximized="1"
     inkscape:current-layer="layer1"
     showguides="false" /><defs
     id="defs1" /><g
     inkscape:label="Ebene 1"
     inkscape:groupmode="layer"
     id="layer1"
     transform="translate(-27.40251,-40.064114)"><rect
       style="fill:#ffffff;fill-opacity:1;stroke:none;stroke-width:0.645001;stroke-dasharray:none;stroke-opacity:1"
       id="rect41"
       width="182.42268"
       height="107.23092"
       x="29.195152"
       y="40.064114" /><g
       id="Hintergrund"
       transform="matrix(0.10223796,0,0,0.10223796,73.867949,88.591176)"><g
         id="g16"><path
           style="fill:#b7b79d;fill-opacity:1;stroke:none"
           fill-rule="evenodd"
           d="M 256.58,287.583 V 481.296 H 371.075 V 287.583 Z"
           id="path1-3" /><path
           style="fill:none;stroke:#494936;stroke-width:0.02;stroke-opacity:1"
           d="M 256.58,287.583 V 481.296 H 371.075 V 287.583 H 256.58"
           id="path2-6" /><path
           style="fill:#c9c9b6;fill-opacity:1;stroke:none"
           fill-rule="evenodd"
           d="M 256.58,287.583 272.095,272 h 114.46 l -15.48,15.583 z"
           id="path3-7" /><path
           style="fill:none;stroke:#494936;stroke-width:0.02;stroke-opacity:1"
           d="M 256.58,287.583 272.095,272 h 113.707"
           id="path4-5" /><path
           style="fill:none;stroke:#494936;stroke-width:0.02;stroke-opacity:1"
           d="m 385.802,272.788 -14.727,14.795 H 256.58"
           id="path5-3" /><path
           style="fill:#c9c9b6;fill-opacity:1;stroke:none"
           fill-rule="evenodd"
           d="m 263.635,298.851 h 52.299 v 25.413 h -52.299 z"
           id="path6-5" /><path
           style="fill:none;stroke:#626248;stroke-width:0.02;stroke-opacity:1"
           d="m 263.635,298.851 h 52.264 v 25.379 h -52.264 v -25.379"
           id="path7-6" /><path
           style="fill:none;stroke:#ecece7;stroke-width:0.6;stroke-opacity:1"
           d="m 270.69,311.592 h 36.681"
           id="path8-2" /><path
           style="fill:#7a7a5a;fill-opacity:1;stroke:none"
           fill-rule="evenodd"
           d="m 371.075,481.296 15.48,-15.617 V 272 l -15.48,15.583 z"
           id="path9-9" /><path
           style="fill:none;stroke:#494936;stroke-width:0.02;stroke-opacity:1"
           d="m 371.075,481.296 14.727,-14.829"
           id="path10-1" /><path
           style="fill:none;stroke:#494936;stroke-width:0.02;stroke-opacity:1"
           d="m 385.802,272.788 -14.727,14.795 v 193.713"
           id="path11-2" /><path
           style="fill:none;stroke:#ecece7;stroke-width:0.6;stroke-opacity:1"
           d="M 258.018,468.522 H 371.04"
           id="path12-7" /><path
           style="fill:none;stroke:#000000;stroke-width:0.6;stroke-opacity:1"
           d="M 258.018,365.329 H 371.04"
           id="path13-0" /><path
           style="fill:none;stroke:#494936;stroke-width:0.6;stroke-opacity:1"
           d="M 256.58,467.117 H 370.938"
           id="path14-9" /><path
           style="fill:none;stroke:#000000;stroke-width:0.6;stroke-opacity:1"
           d="M 256.58,363.89 H 370.938"
           id="path15-3" /><path
           style="fill:none;stroke:#ecece7;stroke-width:0.02;stroke-opacity:1"
           d="m 263.635,322.894 v -24.043 h 50.86"
           id="path16-6" /></g></g><text
       xml:space="preserve"
       style="font-size:5.11286px;font-family:Sans;-inkscape-font-specification:Sans;text-align:center;text-anchor:middle;fill:#ffffff;stroke-width:0.66772"
       x="119.75993"
       y="47.521854"
       id="text16"><tspan
         sodipodi:role="line"
         style="fill:#000000;stroke-width:0.667719"
         x="119.75993"
         y="47.521854"
         id="tspan17">Demilitarisierte Zone (DMZ)</tspan></text><path
       style="fill:#99ff55;stroke:#28220b;stroke-width:0.409908;stroke-dasharray:none"
       d="m 130.17508,89.126312 h 18.32187"
       id="path79" /><g
       id="g61"
       transform="translate(54.376767,-2.9877345)"><path
         style="fill:#ffaaaa;stroke:#d40000;stroke-width:0.409908;stroke-dasharray:none"
         d="m 91.758307,69.98581 18.057303,-4.820279 5.78169,0.05579 -17.1169,4.91967"
         id="path31"
         sodipodi:nodetypes="cccc" /><rect
         style="fill:#ffaaaa;stroke:#d40000;stroke-width:0.635752;stroke-dasharray:none"
         id="rect31"
         width="6.6006241"
         height="41.501141"
         x="92.023735"
         y="70.13179" /><path
         style="fill:#ffaaaa;stroke:#d40000;stroke-width:0.635751;stroke-dasharray:none"
         d="m 92.089971,76.285087 h 6.52241"
         id="path32" /><path
         style="fill:#ffaaaa;stroke:#d40000;stroke-width:0.635751;stroke-dasharray:none"
         d="m 92.089971,82.260556 h 6.52241"
         id="path33" /><path
         style="fill:#ffaaaa;stroke:#d40000;stroke-width:0.635751;stroke-dasharray:none"
         d="m 92.089971,88.236025 h 6.52241"
         id="path34" /><path
         style="fill:#ffaaaa;stroke:#d40000;stroke-width:0.635751;stroke-dasharray:none"
         d="m 92.089971,94.211494 h 6.52241"
         id="path35" /><path
         style="fill:#ffaaaa;stroke:#d40000;stroke-width:0.635751;stroke-dasharray:none"
         d="m 92.089971,100.18696 h 6.52241"
         id="path36" /><path
         style="fill:#ffaaaa;stroke:#d40000;stroke-width:0.635751;stroke-dasharray:none"
         d="m 92.089971,106.1624 h 6.52241"
         id="path37" /><path
         id="path38"
         style="fill:#ffaaaa;stroke:#d40000;stroke-width:0.409908"
         d="m 98.639343,70.030167 16.995187,-4.806262 v 38.820545 l -16.995187,7.73849 z"
         sodipodi:nodetypes="ccccc" /><path
         style="fill:#ffaaaa;stroke:#d40000;stroke-width:0.409908;stroke-dasharray:none"
         d="M 98.739141,76.303008 115.58462,71.384937"
         id="path39"
         sodipodi:nodetypes="cc" /><path
         style="fill:#ffaaaa;stroke:#d40000;stroke-width:0.409908;stroke-dasharray:none"
         d="M 98.739141,82.14605 115.55385,77.26731"
         id="path40"
         sodipodi:nodetypes="cc" /><path
         style="fill:#ffaaaa;stroke:#d40000;stroke-width:0.409908;stroke-dasharray:none"
         d="M 98.739141,88.12152 115.65152,83.067288"
         id="path41"
         sodipodi:nodetypes="cc" /><path
         style="fill:#ffaaaa;stroke:#d40000;stroke-width:0.409908;stroke-dasharray:none"
         d="m 98.739141,94.09699 16.853929,-5.3135"
         id="path42"
         sodipodi:nodetypes="cc" /><path
         style="fill:#ffaaaa;stroke:#d40000;stroke-width:0.409908;stroke-dasharray:none"
         d="M 98.739141,100.07246 115.54097,94.167099"
         id="path43"
         sodipodi:nodetypes="cc" /><path
         style="fill:#ffaaaa;stroke:#d40000;stroke-width:0.409908;stroke-dasharray:none"
         d="M 98.739141,106.04796 115.59481,99.255862"
         id="path44"
         sodipodi:nodetypes="cc" /><path
         style="fill:#ffaaaa;stroke:#d40000;stroke-width:0.409908;stroke-dasharray:none"
         d="m 102.162,69.135133 v 6.132556"
         id="path45" /><path
         style="fill:#ffaaaa;stroke:#d40000;stroke-width:0.409908;stroke-dasharray:none"
         d="m 102.162,81.086073 v 6.132556"
         id="path46" /><path
         style="fill:#ffaaaa;stroke:#d40000;stroke-width:0.409908;stroke-dasharray:none"
         d="M 102.162,93.037013 V 98.85147"
         id="path47"
         sodipodi:nodetypes="cc" /><path
         style="fill:#ffaaaa;stroke:#d40000;stroke-width:0.409908;stroke-dasharray:none"
         d="m 102.162,104.57953 v 5.54456"
         id="path48"
         sodipodi:nodetypes="cc" /><path
         style="fill:#ffaaaa;stroke:#d40000;stroke-width:0.409908;stroke-dasharray:none"
         d="m 102.1735,69.068853 -6.889644,-0.0087"
         id="path49"
         sodipodi:nodetypes="cc" /><path
         style="fill:#ffaaaa;stroke:#d40000;stroke-width:0.409908;stroke-dasharray:none"
         d="m 109.3326,66.943587 v 6.132556"
         id="path50" /><path
         style="fill:#ffaaaa;stroke:#d40000;stroke-width:0.409908;stroke-dasharray:none"
         d="m 106.34485,74.114151 v 5.877935"
         id="path51"
         sodipodi:nodetypes="cc" /><path
         style="fill:#ffaaaa;stroke:#d40000;stroke-width:0.409908;stroke-dasharray:none"
         d="m 112.9179,72.089761 v 6.132556"
         id="path53" /><path
         style="fill:#ffaaaa;stroke:#d40000;stroke-width:0.409908;stroke-dasharray:none"
         d="m 109.3326,78.894525 v 6.132556"
         id="path54" /><path
         style="fill:#ffaaaa;stroke:#d40000;stroke-width:0.409908;stroke-dasharray:none"
         d="m 109.3326,90.845463 v 5.541372"
         id="path55"
         sodipodi:nodetypes="cc" /><path
         style="fill:#ffaaaa;stroke:#d40000;stroke-width:0.409908;stroke-dasharray:none"
         d="m 109.3326,101.7641 v 5.37221"
         id="path56"
         sodipodi:nodetypes="cc" /><path
         style="fill:#ffaaaa;stroke:#d40000;stroke-width:0.409908;stroke-dasharray:none"
         d="m 106.34485,85.792394 v 5.952082"
         id="path57"
         sodipodi:nodetypes="cc" /><path
         style="fill:#ffaaaa;stroke:#d40000;stroke-width:0.409908;stroke-dasharray:none"
         d="m 106.34485,97.418482 v 5.526558"
         id="path58"
         sodipodi:nodetypes="cc" /><path
         style="fill:#ffaaaa;stroke:#d40000;stroke-width:0.409908;stroke-dasharray:none"
         d="m 112.9179,83.834209 v 5.741499"
         id="path59"
         sodipodi:nodetypes="cc" /><path
         style="fill:#ffaaaa;stroke:#d40000;stroke-width:0.409908;stroke-dasharray:none"
         d="m 112.9179,95.016732 v 5.387648"
         id="path60"
         sodipodi:nodetypes="cc" /><path
         style="fill:#ffaaaa;stroke:#d40000;stroke-width:0.409908;stroke-dasharray:none"
         d="m 109.37783,67.059292 -6.61481,-0.03728"
         id="path61"
         sodipodi:nodetypes="cc" /></g><path
       id="path52"
       style="fill:#ffeeaa;fill-opacity:1;stroke:#164450;stroke-width:0.32378;stroke-dasharray:none;stroke-opacity:1"
       d="m 184.69176,73.697997 a 18.636972,6.4328691 0 0 0 -17.24716,4.022487 18.636972,6.4328691 0 0 0 -8.72325,5.43663 18.636972,6.4328691 0 0 0 0.19638,0.888637 18.636972,6.4328691 0 0 0 -7.53872,5.157641 18.636972,6.4328691 0 0 0 10.33079,5.748085 18.636972,6.4328691 0 0 0 -0.0518,0.298177 18.636972,6.4328691 0 0 0 18.63962,6.430046 18.636972,6.4328691 0 0 0 18.53061,-5.835159 18.636972,6.4328691 0 0 0 7.44552,-5.132539 v -0.003 a 18.636972,6.4328691 0 0 0 -0.38144,-1.23553 18.636972,6.4328691 0 0 0 6.25669,-4.807791 v -0.0029 A 18.636972,6.4328691 0 0 0 203.10022,79.164153 18.636972,6.4328691 0 0 0 184.69151,73.698 Z" /><text
       xml:space="preserve"
       style="font-weight:bold;font-size:6.37383px;font-family:Sans;-inkscape-font-specification:'Sans Bold';text-align:center;text-anchor:middle;fill:#000000;fill-opacity:1;stroke:none;stroke-width:0.900999;stroke-opacity:1"
       x="182.21825"
       y="88.747131"
       id="text51"><tspan
         sodipodi:role="line"
         style="font-style:normal;font-variant:normal;font-weight:normal;font-stretch:normal;font-size:6.37383px;font-family:Sans;-inkscape-font-specification:Sans;fill:#000000;fill-opacity:1;stroke:none;stroke-width:0.901;stroke-opacity:1"
         x="182.21825"
         y="88.747131"
         id="tspan52">LAN</tspan></text><path
       id="path1"
       style="fill:#cccccc;fill-opacity:1;stroke:#164450;stroke-width:0.32378;stroke-dasharray:none;stroke-opacity:1"
       d="m 63.389728,76.088185 a 18.636972,6.4328691 0 0 0 -17.247157,4.022487 18.636972,6.4328691 0 0 0 -8.723248,5.43663 18.636972,6.4328691 0 0 0 0.19638,0.888637 18.636972,6.4328691 0 0 0 -7.538719,5.157641 18.636972,6.4328691 0 0 0 10.330788,5.748085 18.636972,6.4328691 0 0 0 -0.0518,0.298177 18.636972,6.4328691 0 0 0 18.639617,6.430058 18.636972,6.4328691 0 0 0 18.530607,-5.835171 18.636972,6.4328691 0 0 0 7.445519,-5.132539 v -0.003 a 18.636972,6.4328691 0 0 0 -0.38144,-1.23553 18.636972,6.4328691 0 0 0 6.256689,-4.807791 v -0.0029 A 18.636972,6.4328691 0 0 0 81.798185,81.554341 18.636972,6.4328691 0 0 0 63.389478,76.088188 Z" /><text
       xml:space="preserve"
       style="font-weight:bold;font-size:6.37383px;font-family:Sans;-inkscape-font-specification:'Sans Bold';text-align:center;text-anchor:middle;fill:#000000;fill-opacity:1;stroke:none;stroke-width:0.900999;stroke-opacity:1"
       x="60.916264"
       y="91.137329"
       id="text1"><tspan
         sodipodi:role="line"
         style="font-style:normal;font-variant:normal;font-weight:normal;font-stretch:normal;font-size:6.37383px;font-family:Sans;-inkscape-font-specification:Sans;fill:#000000;fill-opacity:1;stroke:none;stroke-width:0.901;stroke-opacity:1"
         x="60.916264"
         y="91.137329"
         id="tspan1">Internet</tspan></text><g
       id="g30"
       transform="translate(-11.353391,-2.9877345)"><path
         style="fill:#ffaaaa;stroke:#d40000;stroke-width:0.409908;stroke-dasharray:none"
         d="m 91.758307,69.98581 18.057303,-4.820279 5.78169,0.05579 -17.1169,4.91967"
         id="path8"
         sodipodi:nodetypes="cccc" /><rect
         style="fill:#ffaaaa;stroke:#d40000;stroke-width:0.635752;stroke-dasharray:none"
         id="rect1"
         width="6.6006241"
         height="41.501141"
         x="92.023735"
         y="70.13179" /><path
         style="fill:#ffaaaa;stroke:#d40000;stroke-width:0.635751;stroke-dasharray:none"
         d="m 92.089971,76.285087 h 6.52241"
         id="path2" /><path
         style="fill:#ffaaaa;stroke:#d40000;stroke-width:0.635751;stroke-dasharray:none"
         d="m 92.089971,82.260556 h 6.52241"
         id="path3" /><path
         style="fill:#ffaaaa;stroke:#d40000;stroke-width:0.635751;stroke-dasharray:none"
         d="m 92.089971,88.236025 h 6.52241"
         id="path4" /><path
         style="fill:#ffaaaa;stroke:#d40000;stroke-width:0.635751;stroke-dasharray:none"
         d="m 92.089971,94.211494 h 6.52241"
         id="path5" /><path
         style="fill:#ffaaaa;stroke:#d40000;stroke-width:0.635751;stroke-dasharray:none"
         d="m 92.089971,100.18696 h 6.52241"
         id="path6" /><path
         style="fill:#ffaaaa;stroke:#d40000;stroke-width:0.635751;stroke-dasharray:none"
         d="m 92.089971,106.1624 h 6.52241"
         id="path7" /><path
         id="rect9"
         style="fill:#ffaaaa;stroke:#d40000;stroke-width:0.409908"
         d="m 98.639343,70.030167 16.995187,-4.806262 v 38.820545 l -16.995187,7.73849 z"
         sodipodi:nodetypes="ccccc" /><path
         style="fill:#ffaaaa;stroke:#d40000;stroke-width:0.409908;stroke-dasharray:none"
         d="M 98.739141,76.303008 115.58462,71.384937"
         id="path9"
         sodipodi:nodetypes="cc" /><path
         style="fill:#ffaaaa;stroke:#d40000;stroke-width:0.409908;stroke-dasharray:none"
         d="M 98.739141,82.14605 115.55385,77.26731"
         id="path10"
         sodipodi:nodetypes="cc" /><path
         style="fill:#ffaaaa;stroke:#d40000;stroke-width:0.409908;stroke-dasharray:none"
         d="M 98.739141,88.12152 115.65152,83.067288"
         id="path11"
         sodipodi:nodetypes="cc" /><path
         style="fill:#ffaaaa;stroke:#d40000;stroke-width:0.409908;stroke-dasharray:none"
         d="m 98.739141,94.09699 16.853929,-5.3135"
         id="path12"
         sodipodi:nodetypes="cc" /><path
         style="fill:#ffaaaa;stroke:#d40000;stroke-width:0.409908;stroke-dasharray:none"
         d="M 98.739141,100.07246 115.54097,94.167099"
         id="path13"
         sodipodi:nodetypes="cc" /><path
         style="fill:#ffaaaa;stroke:#d40000;stroke-width:0.409908;stroke-dasharray:none"
         d="M 98.739141,106.04796 115.59481,99.255862"
         id="path14"
         sodipodi:nodetypes="cc" /><path
         style="fill:#ffaaaa;stroke:#d40000;stroke-width:0.409908;stroke-dasharray:none"
         d="m 102.162,69.135133 v 6.132556"
         id="path15" /><path
         style="fill:#ffaaaa;stroke:#d40000;stroke-width:0.409908;stroke-dasharray:none"
         d="m 102.162,81.086073 v 6.132556"
         id="path16" /><path
         style="fill:#ffaaaa;stroke:#d40000;stroke-width:0.409908;stroke-dasharray:none"
         d="M 102.162,93.037013 V 98.85147"
         id="path17"
         sodipodi:nodetypes="cc" /><path
         style="fill:#ffaaaa;stroke:#d40000;stroke-width:0.409908;stroke-dasharray:none"
         d="m 102.162,104.57953 v 5.54456"
         id="path18"
         sodipodi:nodetypes="cc" /><path
         style="fill:#ffaaaa;stroke:#d40000;stroke-width:0.409908;stroke-dasharray:none"
         d="m 102.1735,69.068853 -6.889644,-0.0087"
         id="path19"
         sodipodi:nodetypes="cc" /><path
         style="fill:#ffaaaa;stroke:#d40000;stroke-width:0.409908;stroke-dasharray:none"
         d="m 109.3326,66.943587 v 6.132556"
         id="path20" /><path
         style="fill:#ffaaaa;stroke:#d40000;stroke-width:0.409908;stroke-dasharray:none"
         d="m 106.34485,74.114151 v 5.877935"
         id="path21"
         sodipodi:nodetypes="cc" /><path
         style="fill:#ffaaaa;stroke:#d40000;stroke-width:0.409908;stroke-dasharray:none"
         d="m 112.9179,72.089761 v 6.132556"
         id="path22" /><path
         style="fill:#ffaaaa;stroke:#d40000;stroke-width:0.409908;stroke-dasharray:none"
         d="m 109.3326,78.894525 v 6.132556"
         id="path23" /><path
         style="fill:#ffaaaa;stroke:#d40000;stroke-width:0.409908;stroke-dasharray:none"
         d="m 109.3326,90.845463 v 5.541372"
         id="path24"
         sodipodi:nodetypes="cc" /><path
         style="fill:#ffaaaa;stroke:#d40000;stroke-width:0.409908;stroke-dasharray:none"
         d="m 109.3326,101.7641 v 5.37221"
         id="path25"
         sodipodi:nodetypes="cc" /><path
         style="fill:#ffaaaa;stroke:#d40000;stroke-width:0.409908;stroke-dasharray:none"
         d="m 106.34485,85.792394 v 5.952082"
         id="path26"
         sodipodi:nodetypes="cc" /><path
         style="fill:#ffaaaa;stroke:#d40000;stroke-width:0.409908;stroke-dasharray:none"
         d="m 106.34485,97.418482 v 5.526558"
         id="path27"
         sodipodi:nodetypes="cc" /><path
         style="fill:#ffaaaa;stroke:#d40000;stroke-width:0.409908;stroke-dasharray:none"
         d="m 112.9179,83.834209 v 5.741499"
         id="path28"
         sodipodi:nodetypes="cc" /><path
         style="fill:#ffaaaa;stroke:#d40000;stroke-width:0.409908;stroke-dasharray:none"
         d="m 112.9179,95.016732 v 5.387648"
         id="path29"
         sodipodi:nodetypes="cc" /><path
         style="fill:#ffaaaa;stroke:#d40000;stroke-width:0.409908;stroke-dasharray:none"
         d="m 109.37783,67.059292 -6.61481,-0.03728"
         id="path30"
         sodipodi:nodetypes="cc" /></g><text
       xml:space="preserve"
       style="font-weight:bold;font-size:6.37383px;font-family:Sans;-inkscape-font-specification:'Sans Bold';text-align:center;text-anchor:middle;fill:#000000;fill-opacity:1;stroke:none;stroke-width:0.900999;stroke-opacity:1"
       x="81.312912"
       y="114.92484"
       id="text61"><tspan
         sodipodi:role="line"
         style="font-style:normal;font-variant:normal;font-weight:normal;font-stretch:normal;font-size:6.37383px;font-family:Sans;-inkscape-font-specification:Sans;fill:#000000;fill-opacity:1;stroke:none;stroke-width:0.901;stroke-opacity:1"
         x="81.312912"
         y="114.92484"
         id="tspan61">Firewall 1</tspan></text><text
       xml:space="preserve"
       style="font-weight:bold;font-size:6.37383px;font-family:Sans;-inkscape-font-specification:'Sans Bold';text-align:center;text-anchor:middle;fill:#000000;fill-opacity:1;stroke:none;stroke-width:0.900999;stroke-opacity:1"
       x="162.17435"
       y="116.24408"
       id="text62"><tspan
         sodipodi:role="line"
         style="font-style:normal;font-variant:normal;font-weight:normal;font-stretch:normal;font-size:6.37383px;font-family:Sans;-inkscape-font-specification:Sans;fill:#000000;fill-opacity:1;stroke:none;stroke-width:0.901;stroke-opacity:1"
         x="162.17435"
         y="116.24408"
         id="tspan62">Firewall 2</tspan></text><g
       id="g78"
       transform="matrix(0.10223796,0,0,0.10223796,101.95264,88.591176)"><g
         id="g77"><path
           style="fill:#b7b79d;fill-opacity:1;stroke:none"
           fill-rule="evenodd"
           d="M 256.58,287.583 V 481.296 H 371.075 V 287.583 Z"
           id="path62" /><path
           style="fill:none;stroke:#494936;stroke-width:0.02;stroke-opacity:1"
           d="M 256.58,287.583 V 481.296 H 371.075 V 287.583 H 256.58"
           id="path63" /><path
           style="fill:#c9c9b6;fill-opacity:1;stroke:none"
           fill-rule="evenodd"
           d="M 256.58,287.583 272.095,272 h 114.46 l -15.48,15.583 z"
           id="path64" /><path
           style="fill:none;stroke:#494936;stroke-width:0.02;stroke-opacity:1"
           d="M 256.58,287.583 272.095,272 h 113.707"
           id="path65" /><path
           style="fill:none;stroke:#494936;stroke-width:0.02;stroke-opacity:1"
           d="m 385.802,272.788 -14.727,14.795 H 256.58"
           id="path66" /><path
           style="fill:#c9c9b6;fill-opacity:1;stroke:none"
           fill-rule="evenodd"
           d="m 263.635,298.851 h 52.299 v 25.413 h -52.299 z"
           id="path67" /><path
           style="fill:none;stroke:#626248;stroke-width:0.02;stroke-opacity:1"
           d="m 263.635,298.851 h 52.264 v 25.379 h -52.264 v -25.379"
           id="path68" /><path
           style="fill:none;stroke:#ecece7;stroke-width:0.6;stroke-opacity:1"
           d="m 270.69,311.592 h 36.681"
           id="path69" /><path
           style="fill:#7a7a5a;fill-opacity:1;stroke:none"
           fill-rule="evenodd"
           d="m 371.075,481.296 15.48,-15.617 V 272 l -15.48,15.583 z"
           id="path70" /><path
           style="fill:none;stroke:#494936;stroke-width:0.02;stroke-opacity:1"
           d="m 371.075,481.296 14.727,-14.829"
           id="path71" /><path
           style="fill:none;stroke:#494936;stroke-width:0.02;stroke-opacity:1"
           d="m 385.802,272.788 -14.727,14.795 v 193.713"
           id="path72" /><path
           style="fill:none;stroke:#ecece7;stroke-width:0.6;stroke-opacity:1"
           d="M 258.018,468.522 H 371.04"
           id="path73" /><path
           style="fill:none;stroke:#000000;stroke-width:0.6;stroke-opacity:1"
           d="M 258.018,365.329 H 371.04"
           id="path74" /><path
           style="fill:none;stroke:#494936;stroke-width:0.6;stroke-opacity:1"
           d="M 256.58,467.117 H 370.938"
           id="path75" /><path
           style="fill:none;stroke:#000000;stroke-width:0.6;stroke-opacity:1"
           d="M 256.58,363.89 H 370.938"
           id="path76" /><path
           style="fill:none;stroke:#ecece7;stroke-width:0.02;stroke-opacity:1"
           d="m 263.635,322.894 v -24.043 h 50.86"
           id="path77" /></g></g><text
       xml:space="preserve"
       style="font-weight:bold;font-size:6.37383px;font-family:Sans;-inkscape-font-specification:'Sans Bold';text-align:center;text-anchor:middle;fill:#000000;fill-opacity:1;stroke:none;stroke-width:0.900999;stroke-opacity:1"
       x="105.81232"
       y="144.80217"
       id="text78"><tspan
         sodipodi:role="line"
         style="font-style:normal;font-variant:normal;font-weight:normal;font-stretch:normal;font-size:6.37383px;font-family:Sans;-inkscape-font-specification:Sans;fill:#000000;fill-opacity:1;stroke:none;stroke-width:0.901;stroke-opacity:1"
         x="105.81232"
         y="144.80217"
         id="tspan78">E-Mail</tspan></text><text
       xml:space="preserve"
       style="font-weight:bold;font-size:6.37383px;font-family:Sans;-inkscape-font-specification:'Sans Bold';text-align:center;text-anchor:middle;fill:#000000;fill-opacity:1;stroke:none;stroke-width:0.900999;stroke-opacity:1"
       x="138.6774"
       y="144.80217"
       id="text79"><tspan
         sodipodi:role="line"
         style="font-style:normal;font-variant:normal;font-weight:normal;font-stretch:normal;font-size:6.37383px;font-family:Sans;-inkscape-font-specification:Sans;fill:#000000;fill-opacity:1;stroke:none;stroke-width:0.901;stroke-opacity:1"
         x="138.6774"
         y="144.80217"
         id="tspan79">Webserver</tspan></text><path
       style="fill:#99ff55;stroke:#28220b;stroke-width:0.409908;stroke-dasharray:none"
       d="M 94.322264,89.126312 H 112.64413"
       id="path80" /><path
       style="fill:#99ff55;stroke:#28220b;stroke-width:0.409908;stroke-dasharray:none"
       d="m 106.81336,117.26804 8.73665,-25.402359"
       id="path81"
       sodipodi:nodetypes="cc" /><path
       style="fill:#99ff55;stroke:#28220b;stroke-width:0.409908;stroke-dasharray:none"
       d="M 135.32525,116.94357 123.81851,92.1381"
       id="path82"
       sodipodi:nodetypes="cc" /><g
       id="Hintergrund-0"
       transform="matrix(0.10949501,0,0,0.10949501,78.473109,55.890191)"><g
         id="g14"><path
           style="fill:#0096d4;fill-opacity:1;stroke:none"
           fill-rule="evenodd"
           d="m 304.43,308.514 v 35.234 h 139.384 v -35.234 z"
           id="path1-6" /><path
           style="fill:none;stroke:#aae6ff;stroke-width:0.02;stroke-opacity:1"
           d="m 304.43,308.514 v 35.234 H 443.814 V 308.514 H 304.43"
           id="path2-2" /><path
           style="fill:#005a80;fill-opacity:1;stroke:none"
           fill-rule="evenodd"
           d="M 443.814,308.514 486.977,267 v 35.235 l -43.163,41.513 z"
           id="path3-6" /><path
           style="fill:none;stroke:#aae6ff;stroke-width:0.02;stroke-opacity:1"
           d="M 443.814,308.514 486.977,267 v 35.235 l -43.163,41.513 v -35.234"
           id="path4-1" /><path
           style="fill:#00b4ff;fill-opacity:1;stroke:none"
           fill-rule="evenodd"
           d="M 443.814,308.514 486.977,267 H 347.498 l -43.068,41.514 z"
           id="path5-8" /><path
           style="fill:none;stroke:#aae6ff;stroke-width:0.02;stroke-opacity:1"
           d="M 443.814,308.514 486.977,267 H 347.498 l -43.068,41.514 h 139.384"
           id="path6-7" /><path
           style="fill:#000000;fill-opacity:1;stroke:none"
           fill-rule="evenodd"
           d="m 391.834,288.407 -5.042,4.948 h 35.456 l -5.042,6.342 29.145,-7.579 -15.191,-6.248 -3.837,2.537 z"
           id="path7-9" /><path
           style="fill:#000000;fill-opacity:1;stroke:none"
           fill-rule="evenodd"
           d="m 409.594,272.043 -5.074,5.01 h 35.488 l -6.343,6.28 30.414,-8.753 -16.459,-6.343 -2.474,3.806 z"
           id="path8-20" /><path
           style="fill:#000000;fill-opacity:1;stroke:none"
           fill-rule="evenodd"
           d="m 379.149,302.235 5.169,-5.075 h -36.82 l 6.343,-6.279 -29.209,7.516 15.255,6.343 2.568,-2.505 z"
           id="path9-2" /><path
           style="fill:#000000;fill-opacity:1;stroke:none"
           fill-rule="evenodd"
           d="m 395.672,284.538 5.074,-4.916 h -35.488 l 6.374,-6.343 -30.477,8.785 16.46,6.343 2.537,-3.869 z"
           id="path10-3" /><path
           style="fill:#ffffff;fill-opacity:1;stroke:none"
           fill-rule="evenodd"
           d="m 393.103,289.581 -5.043,5.042 h 35.489 l -5.075,6.311 29.146,-7.579 -15.255,-6.248 -3.742,2.474 z"
           id="path11-7" /><path
           style="fill:#ffffff;fill-opacity:1;stroke:none"
           fill-rule="evenodd"
           d="m 410.863,273.279 -5.074,5.011 h 35.488 l -6.343,6.248 30.446,-8.785 -16.46,-6.248 -2.569,3.774 z"
           id="path12-5" /><path
           style="fill:#ffffff;fill-opacity:1;stroke:none"
           fill-rule="evenodd"
           d="m 380.417,303.471 5.075,-5.074 h -36.694 l 6.248,-6.279 -29.114,7.579 15.223,6.28 2.506,-2.506 z"
           id="path13-9" /><path
           style="fill:#ffffff;fill-opacity:1;stroke:none"
           fill-rule="evenodd"
           d="m 396.877,285.87 5.138,-5.074 h -35.552 l 6.375,-6.216 -30.383,8.753 16.46,6.248 2.474,-3.711 z"
           id="path14-2" /></g></g></g><metadata
     id="metadata1"><rdf:RDF><cc:Work
         rdf:about=""><dc:creator><cc:Agent><dc:title>Günter Dannoritzer</dc:title></cc:Agent></dc:creator><cc:license
           rdf:resource="http://creativecommons.org/licenses/by-sa/4.0/" /></cc:Work><cc:License
         rdf:about="http://creativecommons.org/licenses/by-sa/4.0/"><cc:permits
           rdf:resource="http://creativecommons.org/ns#Reproduction" /><cc:permits
           rdf:resource="http://creativecommons.org/ns#Distribution" /><cc:requires
           rdf:resource="http://creativecommons.org/ns#Notice" /><cc:requires
           rdf:resource="http://creativecommons.org/ns#Attribution" /><cc:permits
           rdf:resource="http://creativecommons.org/ns#DerivativeWorks" /><cc:requires
           rdf:resource="http://creativecommons.org/ns#ShareAlike" /></cc:License></rdf:RDF></metadata></svg>
