<?xml version="1.0" encoding="UTF-8" standalone="no"?>
<!-- Created with Inkscape (http://www.inkscape.org/) -->

<svg
   width="141.94334mm"
   height="101.3697mm"
   viewBox="0 0 146.943 104.94023"
   version="1.1"
   id="svg1"
   inkscape:version="1.3.2 (091e20e, 2023-11-25)"
   sodipodi:docname="lf11-fw-paketfilter.svg"
   xml:space="preserve"
   xmlns:inkscape="http://www.inkscape.org/namespaces/inkscape"
   xmlns:sodipodi="http://sodipodi.sourceforge.net/DTD/sodipodi-0.dtd"
   xmlns="http://www.w3.org/2000/svg"
   xmlns:svg="http://www.w3.org/2000/svg"
   xmlns:rdf="http://www.w3.org/1999/02/22-rdf-syntax-ns#"
   xmlns:cc="http://creativecommons.org/ns#"
   xmlns:dc="http://purl.org/dc/elements/1.1/"><sodipodi:namedview
     id="namedview1"
     pagecolor="#ffffff"
     bordercolor="#000000"
     borderopacity="0.25"
     inkscape:showpageshadow="2"
     inkscape:pageopacity="0.0"
     inkscape:pagecheckerboard="0"
     inkscape:deskcolor="#d1d1d1"
     inkscape:document-units="mm"
     inkscape:zoom="1.1280546"
     inkscape:cx="271.70671"
     inkscape:cy="108.15079"
     inkscape:window-width="1431"
     inkscape:window-height="821"
     inkscape:window-x="9"
     inkscape:window-y="7"
     inkscape:window-maximized="0"
     inkscape:current-layer="layer1" /><defs
     id="defs1" /><g
     inkscape:label="Ebene 1"
     inkscape:groupmode="layer"
     id="layer1"
     transform="translate(-28.670729,-42.904865)"><rect
       style="fill:#ffffff;fill-opacity:1;stroke:none;stroke-width:0.645001;stroke-dasharray:none;stroke-opacity:1"
       id="rect41"
       width="141.94334"
       height="101.3697"
       x="31.409758"
       y="45.096088" /><rect
       style="fill:#e6e6e6;fill-opacity:1;stroke:#afc6e9;stroke-width:0.101;stroke-dasharray:none;stroke-opacity:1"
       id="rect40"
       width="120.1108"
       height="50.861874"
       x="42.717037"
       y="54.690449" /><rect
       style="fill:#ffeeaa;fill-opacity:1;stroke:#2b2200;stroke-width:0.101;stroke-dasharray:none;stroke-opacity:1"
       id="rect7"
       width="28.183311"
       height="4.6530151"
       x="44.550018"
       y="94.007217"
       ry="0" /><rect
       style="fill:#ffeeaa;fill-opacity:1;stroke:#2b2200;stroke-width:0.101;stroke-dasharray:none;stroke-opacity:1"
       id="rect6"
       width="18.963037"
       height="4.6453266"
       x="53.770294"
       y="89.311058"
       ry="0" /><rect
       style="fill:#ffeeaa;fill-opacity:1;stroke:#2b2200;stroke-width:0.101;stroke-dasharray:none;stroke-opacity:1"
       id="rect5"
       width="50.114761"
       height="4.6453247"
       x="53.770294"
       y="84.607193"
       ry="0" /><rect
       style="fill:#ffeeaa;fill-opacity:1;stroke:#2b2200;stroke-width:0.101;stroke-dasharray:none;stroke-opacity:1"
       id="rect4"
       width="45.071915"
       height="4.6453247"
       x="53.770294"
       y="79.961967"
       ry="0" /><text
       xml:space="preserve"
       style="font-weight:bold;font-size:3.52778px;font-family:Sans;-inkscape-font-specification:'Sans Bold';text-align:center;text-anchor:middle;fill:#000000;fill-opacity:1;stroke:none;stroke-width:0.900999;stroke-opacity:1"
       x="63.257801"
       y="97.516068"
       id="text1"><tspan
         sodipodi:role="line"
         id="tspan1"
         style="font-style:normal;font-variant:normal;font-weight:normal;font-stretch:normal;font-size:3.52778px;font-family:Sans;-inkscape-font-specification:Sans;fill:#000000;fill-opacity:1;stroke:none;stroke-width:0.901;stroke-opacity:1"
         x="63.257801"
         y="97.516068">Phy</tspan></text><text
       xml:space="preserve"
       style="font-weight:bold;font-size:3.52778px;font-family:Sans;-inkscape-font-specification:'Sans Bold';text-align:center;text-anchor:middle;fill:#000000;fill-opacity:1;stroke:none;stroke-width:0.900999;stroke-opacity:1"
       x="63.257801"
       y="92.753571"
       id="text2"><tspan
         sodipodi:role="line"
         id="tspan2"
         style="font-style:normal;font-variant:normal;font-weight:normal;font-stretch:normal;font-size:3.52778px;font-family:Sans;-inkscape-font-specification:Sans;fill:#000000;fill-opacity:1;stroke:none;stroke-width:0.901;stroke-opacity:1"
         x="63.257801"
         y="92.753571">Eth</tspan></text><text
       xml:space="preserve"
       style="font-weight:bold;font-size:3.52778px;font-family:Sans;-inkscape-font-specification:'Sans Bold';text-align:center;text-anchor:middle;fill:#000000;fill-opacity:1;stroke:none;stroke-width:0.900999;stroke-opacity:1"
       x="63.257801"
       y="87.991066"
       id="text3"><tspan
         sodipodi:role="line"
         id="tspan3"
         style="font-style:normal;font-variant:normal;font-weight:normal;font-stretch:normal;font-size:3.52778px;font-family:Sans;-inkscape-font-specification:Sans;fill:#000000;fill-opacity:1;stroke:none;stroke-width:0.901;stroke-opacity:1"
         x="63.257801"
         y="87.991066">IP</tspan></text><text
       xml:space="preserve"
       style="font-weight:bold;font-size:3.52778px;font-family:Sans;-inkscape-font-specification:'Sans Bold';text-align:center;text-anchor:middle;fill:#000000;fill-opacity:1;stroke:none;stroke-width:0.900999;stroke-opacity:1"
       x="63.257801"
       y="83.757736"
       id="text4"><tspan
         sodipodi:role="line"
         id="tspan4"
         style="font-style:normal;font-variant:normal;font-weight:normal;font-stretch:normal;font-size:3.52778px;font-family:Sans;-inkscape-font-specification:Sans;fill:#000000;fill-opacity:1;stroke:none;stroke-width:0.901;stroke-opacity:1"
         x="63.257801"
         y="83.757736">TCP/UDP</tspan></text><g
       transform="matrix(0.06306659,0,0,0.06306659,34.425708,89.086489)"
       stroke-linecap="square"
       id="g12"><path
         d="m 64.41,69.931 h 108.85 a 4.5139,4.5139 0 0 1 4.5139,4.5139 v 81.597 a 4.5139,4.5139 0 0 1 -4.5139,4.5139 H 64.41 a 4.5139,4.5139 0 0 1 -4.5139,-4.5139 V 74.4449 A 4.5139,4.5139 0 0 1 64.41,69.931"
         fill="#ffffff"
         stroke="#0a0a0a"
         stroke-width="4"
         id="path1" /><path
         d="m 73.958,75.66 h 89.41 c 2.3083,0 4.1667,1.8583 4.1667,4.1667 l 2.8e-4,52.653 h -21.742 v 9.414 h -8.694 l 4e-5,12.586 h -36.871 l -4e-5,-12.586 h -8.694 v -9.414 h -21.742 l -3.4e-4,-52.653 c -1.1e-5,-2.3083 1.8583,-4.1667 4.1667,-4.1667 z"
         fill="#dcdcdc"
         stroke="#0a0a0a"
         stroke-width="2.5"
         id="path2" /><g
         transform="translate(-0.36789)"
         fill="#666666"
         stroke="#191919"
         id="g10"><path
           d="m 80.556,75.747 h 3.9062 V 98.533 H 80.556 Z"
           id="path3" /><path
           d="m 153.6,75.747 h 3.9062 V 98.533 H 153.6 Z"
           id="path4" /><path
           d="m 132.73,75.747 h 3.9062 V 98.533 H 132.73 Z"
           id="path5" /><path
           d="m 122.3,75.747 h 3.9062 V 98.533 H 122.3 Z"
           id="path6" /><path
           d="m 111.86,75.747 h 3.9062 V 98.533 H 111.86 Z"
           id="path7" /><path
           d="m 101.43,75.747 h 3.9062 V 98.533 H 101.43 Z"
           id="path8" /><path
           d="m 90.991,75.747 h 3.9062 V 98.533 H 90.991 Z"
           id="path9" /><path
           d="m 143.17,75.747 h 3.9062 V 98.533 H 143.17 Z"
           id="path10" /></g><path
         d="m 69.542,137.03 h 17.101 v 13.889 H 69.542 Z"
         fill="#1dfe0a"
         stroke="#0a0a0a"
         stroke-width="2"
         id="path11" /><path
         d="m 150.68,137.03 h 17.101 v 13.889 H 150.68 Z"
         fill="#ffd10a"
         stroke="#0a0a0a"
         stroke-width="2"
         id="path12" /></g><rect
       style="fill:#ffeeaa;fill-opacity:1;stroke:#2b2200;stroke-width:0.101;stroke-dasharray:none;stroke-opacity:1"
       id="rect8"
       width="28.183311"
       height="4.6530151"
       x="133.15533"
       y="94.007217"
       ry="0" /><rect
       style="fill:#ffeeaa;fill-opacity:1;stroke:#2b2200;stroke-width:0.101;stroke-dasharray:none;stroke-opacity:1"
       id="rect9"
       width="18.963037"
       height="4.6453266"
       x="133.14526"
       y="89.311058"
       ry="0" /><rect
       style="fill:#ffeeaa;fill-opacity:1;stroke:#2b2200;stroke-width:0.101;stroke-dasharray:none;stroke-opacity:1"
       id="rect10"
       width="41.775402"
       height="4.6453247"
       x="110.33291"
       y="84.607193"
       ry="0" /><rect
       style="fill:#ffeeaa;fill-opacity:1;stroke:#2b2200;stroke-width:0.101;stroke-dasharray:none;stroke-opacity:1"
       id="rect11"
       width="39.340492"
       height="4.6453247"
       x="112.76781"
       y="79.961967"
       ry="0" /><text
       xml:space="preserve"
       style="font-weight:bold;font-size:3.52778px;font-family:Sans;-inkscape-font-specification:'Sans Bold';text-align:center;text-anchor:middle;fill:#000000;fill-opacity:1;stroke:none;stroke-width:0.900999;stroke-opacity:1"
       x="142.6328"
       y="97.516068"
       id="text11"><tspan
         sodipodi:role="line"
         id="tspan11"
         style="font-style:normal;font-variant:normal;font-weight:normal;font-stretch:normal;font-size:3.52778px;font-family:Sans;-inkscape-font-specification:Sans;fill:#000000;fill-opacity:1;stroke:none;stroke-width:0.901;stroke-opacity:1"
         x="142.6328"
         y="97.516068">Phy</tspan></text><text
       xml:space="preserve"
       style="font-weight:bold;font-size:3.52778px;font-family:Sans;-inkscape-font-specification:'Sans Bold';text-align:center;text-anchor:middle;fill:#000000;fill-opacity:1;stroke:none;stroke-width:0.900999;stroke-opacity:1"
       x="142.6328"
       y="92.753571"
       id="text12"><tspan
         sodipodi:role="line"
         id="tspan12"
         style="font-style:normal;font-variant:normal;font-weight:normal;font-stretch:normal;font-size:3.52778px;font-family:Sans;-inkscape-font-specification:Sans;fill:#000000;fill-opacity:1;stroke:none;stroke-width:0.901;stroke-opacity:1"
         x="142.6328"
         y="92.753571">Eth</tspan></text><text
       xml:space="preserve"
       style="font-weight:bold;font-size:3.52778px;font-family:Sans;-inkscape-font-specification:'Sans Bold';text-align:center;text-anchor:middle;fill:#000000;fill-opacity:1;stroke:none;stroke-width:0.900999;stroke-opacity:1"
       x="142.6328"
       y="87.991066"
       id="text13"><tspan
         sodipodi:role="line"
         id="tspan13"
         style="font-style:normal;font-variant:normal;font-weight:normal;font-stretch:normal;font-size:3.52778px;font-family:Sans;-inkscape-font-specification:Sans;fill:#000000;fill-opacity:1;stroke:none;stroke-width:0.901;stroke-opacity:1"
         x="142.6328"
         y="87.991066">IP</tspan></text><text
       xml:space="preserve"
       style="font-weight:bold;font-size:3.52778px;font-family:Sans;-inkscape-font-specification:'Sans Bold';text-align:center;text-anchor:middle;fill:#000000;fill-opacity:1;stroke:none;stroke-width:0.900999;stroke-opacity:1"
       x="142.6328"
       y="83.757736"
       id="text14"><tspan
         sodipodi:role="line"
         id="tspan14"
         style="font-style:normal;font-variant:normal;font-weight:normal;font-stretch:normal;font-size:3.52778px;font-family:Sans;-inkscape-font-specification:Sans;fill:#000000;fill-opacity:1;stroke:none;stroke-width:0.901;stroke-opacity:1"
         x="142.6328"
         y="83.757736">TCP/UDP</tspan></text><g
       transform="matrix(0.06306659,0,0,0.06306659,156.66324,89.086489)"
       stroke-linecap="square"
       id="g25"><path
         d="m 64.41,69.931 h 108.85 a 4.5139,4.5139 0 0 1 4.5139,4.5139 v 81.597 a 4.5139,4.5139 0 0 1 -4.5139,4.5139 H 64.41 a 4.5139,4.5139 0 0 1 -4.5139,-4.5139 V 74.4449 A 4.5139,4.5139 0 0 1 64.41,69.931"
         fill="#ffffff"
         stroke="#0a0a0a"
         stroke-width="4"
         id="path14" /><path
         d="m 73.958,75.66 h 89.41 c 2.3083,0 4.1667,1.8583 4.1667,4.1667 l 2.8e-4,52.653 h -21.742 v 9.414 h -8.694 l 4e-5,12.586 h -36.871 l -4e-5,-12.586 h -8.694 v -9.414 h -21.742 l -3.4e-4,-52.653 c -1.1e-5,-2.3083 1.8583,-4.1667 4.1667,-4.1667 z"
         fill="#dcdcdc"
         stroke="#0a0a0a"
         stroke-width="2.5"
         id="path15" /><g
         transform="translate(-0.36789)"
         fill="#666666"
         stroke="#191919"
         id="g23"><path
           d="m 80.556,75.747 h 3.9062 V 98.533 H 80.556 Z"
           id="path16" /><path
           d="m 153.6,75.747 h 3.9062 V 98.533 H 153.6 Z"
           id="path17" /><path
           d="m 132.73,75.747 h 3.9062 V 98.533 H 132.73 Z"
           id="path18" /><path
           d="m 122.3,75.747 h 3.9062 V 98.533 H 122.3 Z"
           id="path19" /><path
           d="m 111.86,75.747 h 3.9062 V 98.533 H 111.86 Z"
           id="path20" /><path
           d="m 101.43,75.747 h 3.9062 V 98.533 H 101.43 Z"
           id="path21" /><path
           d="m 90.991,75.747 h 3.9062 V 98.533 H 90.991 Z"
           id="path22" /><path
           d="m 143.17,75.747 h 3.9062 V 98.533 H 143.17 Z"
           id="path23" /></g><path
         d="m 69.542,137.03 h 17.101 v 13.889 H 69.542 Z"
         fill="#1dfe0a"
         stroke="#0a0a0a"
         stroke-width="2"
         id="path24" /><path
         d="m 150.68,137.03 h 17.101 v 13.889 H 150.68 Z"
         fill="#ffd10a"
         stroke="#0a0a0a"
         stroke-width="2"
         id="path25" /></g><text
       xml:space="preserve"
       style="font-weight:bold;font-size:3.52778px;font-family:Sans;-inkscape-font-specification:'Sans Bold';text-align:center;text-anchor:middle;fill:#000000;fill-opacity:1;stroke:none;stroke-width:0.900999;stroke-opacity:1"
       x="42.091129"
       y="102.80772"
       id="text25"><tspan
         sodipodi:role="line"
         id="tspan25"
         style="font-style:normal;font-variant:normal;font-weight:normal;font-stretch:normal;font-size:3.52778px;font-family:Sans;-inkscape-font-specification:Sans;fill:#000000;fill-opacity:1;stroke:none;stroke-width:0.901;stroke-opacity:1"
         x="42.091129"
         y="102.80772">LAN</tspan></text><text
       xml:space="preserve"
       style="font-weight:bold;font-size:3.52778px;font-family:Sans;-inkscape-font-specification:'Sans Bold';text-align:center;text-anchor:middle;fill:#000000;fill-opacity:1;stroke:none;stroke-width:0.900999;stroke-opacity:1"
       x="164.32864"
       y="102.80772"
       id="text26"><tspan
         sodipodi:role="line"
         id="tspan26"
         style="font-style:normal;font-variant:normal;font-weight:normal;font-stretch:normal;font-size:3.52778px;font-family:Sans;-inkscape-font-specification:Sans;fill:#000000;fill-opacity:1;stroke:none;stroke-width:0.901;stroke-opacity:1"
         x="164.32864"
         y="102.80772">WAN</tspan></text><g
       id="g41"
       transform="translate(26.022359,2.1912217)"><rect
         style="fill:#ccffaa;fill-opacity:1;stroke:#2b2200;stroke-width:0.101;stroke-dasharray:none;stroke-opacity:1"
         id="rect26"
         width="30.041998"
         height="7.1847196"
         x="40.165741"
         y="62.773518" /><text
         xml:space="preserve"
         style="font-style:normal;font-variant:normal;font-weight:normal;font-stretch:normal;font-size:3.52777px;font-family:Sans;-inkscape-font-specification:Sans;text-align:center;text-anchor:middle;fill:#2b2200;fill-opacity:1;stroke:none;stroke-width:0.101;stroke-dasharray:none;stroke-opacity:1"
         x="55.305424"
         y="67.522568"
         id="text27"><tspan
           sodipodi:role="line"
           id="tspan27"
           style="fill:#2b2200;stroke:none;stroke-width:0.101"
           x="55.305424"
           y="67.522568">IP-Paket</tspan></text></g><g
       id="g28"
       transform="rotate(42.963786,65.6953,152.87883)"><rect
         style="fill:#ccffaa;fill-opacity:1;stroke:#2b2200;stroke-width:0.101;stroke-dasharray:none;stroke-opacity:1"
         id="rect27"
         width="30.041998"
         height="7.1847196"
         x="66.624077"
         y="105.10683" /><text
         xml:space="preserve"
         style="font-style:normal;font-variant:normal;font-weight:normal;font-stretch:normal;font-size:3.52777px;font-family:Sans;-inkscape-font-specification:Sans;text-align:center;text-anchor:middle;fill:#2b2200;fill-opacity:1;stroke:none;stroke-width:0.101;stroke-dasharray:none;stroke-opacity:1"
         x="81.763748"
         y="109.85588"
         id="text28"><tspan
           sodipodi:role="line"
           id="tspan28"
           style="fill:#2b2200;stroke:none;stroke-width:0.101"
           x="81.763748"
           y="109.85588">IP-Paket</tspan></text></g><g
       id="g29"
       transform="matrix(0.54460326,0,0,0.54460326,56.70189,64.353899)"
       style="stroke-width:1.18435;stroke-dasharray:none"><path
         style="fill:none;stroke:#2b2200;stroke-width:1.18435;stroke-dasharray:none"
         d="m 87.230056,88.923582 -1.87232,6.65387 c 0,0 -1.03666,2.83687 -1.35547,4.36367 -0.31881,1.526788 -0.52826,4.759778 -0.52826,4.759778"
         id="path2-6"
         sodipodi:nodetypes="cczc" /><path
         style="fill:none;stroke:#2b2200;stroke-width:1.18435;stroke-dasharray:none"
         d="m 91.617176,90.512682 -1.49237,6.89729 c 0,0 -0.46885,3.549368 -0.49805,4.820528 -0.0292,1.27116 0.1586,2.77827 0.1586,2.77827"
         id="path3-2"
         sodipodi:nodetypes="cczc" /><g
         id="g6"
         transform="translate(-18.917754,47.570823)"
         style="stroke-width:1.18435;stroke-dasharray:none"><path
           style="fill:none;stroke:#2b2200;stroke-width:1.18435;stroke-dasharray:none"
           d="m 104.65921,45.148195 c 0,0 -1.87403,-0.834118 -1.77855,-1.585238 0.0955,-0.75112 1.10287,-1.352014 2.12623,-1.064695 -0.53207,-1.095116 1.12512,-1.810792 2.19598,-1.785753 1.07086,0.02504 2.70089,1.09234 2.57754,2.199515 1.25165,-1.456 2.80269,-0.0062 3.36051,1.192602 0.55783,1.198757 -2.0317,2.194327 -2.0317,2.194327"
           id="path1-9"
           sodipodi:nodetypes="czczczc" /><path
           style="fill:none;stroke:#2b2200;stroke-width:1.18435;stroke-dasharray:none"
           d="m 103.6283,48.382488 c 0,0 -0.55855,0.342107 -1.07751,-0.175194 -0.51896,-0.517301 0.17165,-1.385683 0.17165,-1.385683 0,0 -3.045565,-0.08015 -3.220117,-2.164457 -0.174552,-2.084308 2.478467,-2.762389 2.478467,-2.762389 0,0 -1.09898,-1.653952 0.22538,-3.178329 1.32437,-1.524377 3.58635,0.157954 3.58635,0.157954 0,0 1.39018,-1.249148 2.22385,-1.171723 0.83367,0.07743 1.96709,1.558888 1.96709,1.558888 0,0 1.97201,-1.173302 3.0335,-0.587452 1.06149,0.58585 2.29145,2.74607 1.51672,3.900175 1.5827,0.153182 2.32407,1.633462 2.21921,2.795704 -0.10486,1.162242 -1.48868,2.656956 -2.5807,2.262958 0.056,1.285165 -0.96314,2.533193 -1.93405,2.914739 -0.97091,0.381546 -2.68449,-0.645802 -2.68449,-0.645802"
           id="path4-1"
           sodipodi:nodetypes="czczczczczczczc" /></g><path
         style="fill:none;stroke:#2b2200;stroke-width:1.18435;stroke-dasharray:none"
         d="m 88.633606,93.409612 -0.79959,2.80138"
         id="path5-2" /><path
         style="fill:none;stroke:#2b2200;stroke-width:1.18435;stroke-dasharray:none"
         d="m 87.107566,98.876442 c 0,0 -0.43824,1.476258 -0.51384,2.186758 -0.0756,0.7105 0.0383,2.04038 0.0383,2.04038"
         id="path6-7"
         sodipodi:nodetypes="czc" /><path
         style="fill:none;stroke:#2b2200;stroke-width:1.18435;stroke-dasharray:none"
         d="m 88.572266,85.272532 c 0,0 1.4989,-4.47968 1.93938,-6.97014 0.44048,-2.490449 0.62449,-7.915119 0.62449,-7.915119"
         id="path8-0"
         sodipodi:nodetypes="czc" /><path
         style="fill:none;stroke:#2b2200;stroke-width:1.18435;stroke-dasharray:none"
         d="m 92.336556,86.065262 c 0,0 1.61922,-4.91056 2.02977,-7.65335 0.41055,-2.742785 0.33061,-8.715841 0.33061,-8.715841"
         id="path9-9"
         sodipodi:nodetypes="czc" /><path
         style="fill:none;stroke:#2b2200;stroke-width:1.18435;stroke-dasharray:none"
         d="m 91.381316,82.347852 c 0,0 0.6867,-2.20254 0.89958,-3.54366 0.21288,-1.34112 0.29727,-4.481568 0.29727,-4.481568"
         id="path10-3"
         sodipodi:nodetypes="czc" /></g><g
       id="g37"
       transform="matrix(0.0682883,0.54030493,-0.54030493,0.0682883,96.398759,12.950292)"
       style="stroke-width:1.18435;stroke-dasharray:none"><path
         style="fill:none;stroke:#2b2200;stroke-width:1.18435;stroke-dasharray:none"
         d="m 87.230056,88.923582 -1.87232,6.65387 c 0,0 -1.03666,2.83687 -1.35547,4.36367 -0.31881,1.526788 -0.52826,4.759778 -0.52826,4.759778"
         id="path29"
         sodipodi:nodetypes="cczc" /><path
         style="fill:none;stroke:#2b2200;stroke-width:1.18435;stroke-dasharray:none"
         d="m 91.617176,90.512682 -1.49237,6.89729 c 0,0 -0.46885,3.549368 -0.49805,4.820528 -0.0292,1.27116 0.1586,2.77827 0.1586,2.77827"
         id="path30"
         sodipodi:nodetypes="cczc" /><g
         id="g32"
         transform="translate(-18.917754,47.570823)"
         style="stroke-width:1.18435;stroke-dasharray:none"><path
           style="fill:none;stroke:#2b2200;stroke-width:1.18435;stroke-dasharray:none"
           d="m 104.65921,45.148195 c 0,0 -1.87403,-0.834118 -1.77855,-1.585238 0.0955,-0.75112 1.10287,-1.352014 2.12623,-1.064695 -0.53207,-1.095116 1.12512,-1.810792 2.19598,-1.785753 1.07086,0.02504 2.70089,1.09234 2.57754,2.199515 1.25165,-1.456 2.80269,-0.0062 3.36051,1.192602 0.55783,1.198757 -2.0317,2.194327 -2.0317,2.194327"
           id="path31"
           sodipodi:nodetypes="czczczc" /><path
           style="fill:none;stroke:#2b2200;stroke-width:1.18435;stroke-dasharray:none"
           d="m 103.6283,48.382488 c 0,0 -0.55855,0.342107 -1.07751,-0.175194 -0.51896,-0.517301 0.17165,-1.385683 0.17165,-1.385683 0,0 -3.045565,-0.08015 -3.220117,-2.164457 -0.174552,-2.084308 2.478467,-2.762389 2.478467,-2.762389 0,0 -1.09898,-1.653952 0.22538,-3.178329 1.32437,-1.524377 3.58635,0.157954 3.58635,0.157954 0,0 1.39018,-1.249148 2.22385,-1.171723 0.83367,0.07743 1.96709,1.558888 1.96709,1.558888 0,0 1.97201,-1.173302 3.0335,-0.587452 1.06149,0.58585 2.29145,2.74607 1.51672,3.900175 1.5827,0.153182 2.32407,1.633462 2.21921,2.795704 -0.10486,1.162242 -1.48868,2.656956 -2.5807,2.262958 0.056,1.285165 -0.96314,2.533193 -1.93405,2.914739 -0.97091,0.381546 -2.68449,-0.645802 -2.68449,-0.645802"
           id="path32"
           sodipodi:nodetypes="czczczczczczczc" /></g><path
         style="fill:none;stroke:#2b2200;stroke-width:1.18435;stroke-dasharray:none"
         d="m 88.633606,93.409612 -0.79959,2.80138"
         id="path33" /><path
         style="fill:none;stroke:#2b2200;stroke-width:1.18435;stroke-dasharray:none"
         d="m 87.107566,98.876442 c 0,0 -0.43824,1.476258 -0.51384,2.186758 -0.0756,0.7105 0.0383,2.04038 0.0383,2.04038"
         id="path34"
         sodipodi:nodetypes="czc" /><path
         style="fill:none;stroke:#2b2200;stroke-width:1.18435;stroke-dasharray:none"
         d="m 88.572266,85.272532 c 0,0 1.4989,-4.47968 1.93938,-6.97014 0.44048,-2.490449 0.62449,-7.915119 0.62449,-7.915119"
         id="path35"
         sodipodi:nodetypes="czc" /><path
         style="fill:none;stroke:#2b2200;stroke-width:1.18435;stroke-dasharray:none"
         d="m 92.336556,86.065262 c 0,0 1.61922,-4.91056 2.02977,-7.65335 0.41055,-2.742785 0.33061,-8.715841 0.33061,-8.715841"
         id="path36"
         sodipodi:nodetypes="czc" /><path
         style="fill:none;stroke:#2b2200;stroke-width:1.18435;stroke-dasharray:none"
         d="m 91.381316,82.347852 c 0,0 0.6867,-2.20254 0.89958,-3.54366 0.21288,-1.34112 0.29727,-4.481568 0.29727,-4.481568"
         id="path37"
         sodipodi:nodetypes="czc" /></g><text
       xml:space="preserve"
       style="font-style:normal;font-variant:normal;font-weight:normal;font-stretch:normal;font-size:4.93889px;font-family:Sans;-inkscape-font-specification:Sans;text-align:center;text-anchor:middle;fill:#ff0000;fill-opacity:1;stroke:#ff0000;stroke-width:0.101;stroke-dasharray:none;stroke-opacity:1"
       x="124.16191"
       y="62.844181"
       id="text37"><tspan
         sodipodi:role="line"
         id="tspan37"
         style="font-size:4.93889px;fill:#ff0000;fill-opacity:1;stroke:#ff0000;stroke-width:0.101;stroke-opacity:1"
         x="124.16191"
         y="62.844181">Permit</tspan></text><text
       xml:space="preserve"
       style="font-style:normal;font-variant:normal;font-weight:normal;font-stretch:normal;font-size:4.93889px;font-family:Sans;-inkscape-font-specification:Sans;text-align:center;text-anchor:middle;fill:#ff0000;fill-opacity:1;stroke:#ff0000;stroke-width:0.101;stroke-dasharray:none;stroke-opacity:1"
       x="145.30681"
       y="93.214539"
       id="text38"
       transform="rotate(14.044554)"><tspan
         sodipodi:role="line"
         id="tspan38"
         style="font-size:4.93889px;fill:#ff0000;stroke:#ff0000;stroke-width:0.101"
         x="145.30681"
         y="93.214539">Deny</tspan></text><g
       id="g40"
       transform="translate(-27.072398,-33.72613)"><path
         style="fill:#afc6e9;fill-opacity:1;stroke:#afc6e9;stroke-width:0.101;stroke-dasharray:none;stroke-opacity:1"
         d="m 121.36727,114.55372 9.90281,9.90282 h 4.77684 l 10.49838,-9.85578"
         id="path39"
         sodipodi:nodetypes="cccc" /><path
         style="fill:#3771c8;fill-opacity:1;stroke:#3771c8;stroke-width:0.101;stroke-dasharray:none;stroke-opacity:1"
         id="path38"
         sodipodi:type="arc"
         sodipodi:cx="133.96634"
         sodipodi:cy="114.57435"
         sodipodi:rx="12.533373"
         sodipodi:ry="1.7196476"
         sodipodi:start="0"
         sodipodi:end="6.2825569"
         sodipodi:open="true"
         sodipodi:arc-type="arc"
         d="m 146.49971,114.57435 a 12.533373,1.7196476 0 0 1 -12.5314,1.71965 12.533373,1.7196476 0 0 1 -12.53534,-1.71911 12.533373,1.7196476 0 0 1 12.52746,-1.72019 12.533373,1.7196476 0 0 1 12.53928,1.71857" /><path
         style="fill:#afc6e9;fill-opacity:1;stroke:#afc6e9;stroke-width:0.101;stroke-dasharray:none;stroke-opacity:1"
         d="m 131.23206,124.50727 v 8.66308 l 4.86421,-2.80835 v -5.85558 z"
         id="path40" /></g></g><metadata
     id="metadata1"><rdf:RDF><cc:License
         rdf:about="http://creativecommons.org/licenses/by-sa/4.0/"><cc:permits
           rdf:resource="http://creativecommons.org/ns#Reproduction" /><cc:permits
           rdf:resource="http://creativecommons.org/ns#Distribution" /><cc:requires
           rdf:resource="http://creativecommons.org/ns#Notice" /><cc:requires
           rdf:resource="http://creativecommons.org/ns#Attribution" /><cc:permits
           rdf:resource="http://creativecommons.org/ns#DerivativeWorks" /><cc:requires
           rdf:resource="http://creativecommons.org/ns#ShareAlike" /></cc:License><cc:Work
         rdf:about=""><cc:license
           rdf:resource="http://creativecommons.org/licenses/by-sa/4.0/" /><dc:creator><cc:Agent><dc:title>Günter Dannoritzer</dc:title></cc:Agent></dc:creator></cc:Work></rdf:RDF></metadata></svg>
